<svg width="64" height="81" viewBox="0 0 64 81" fill="none" xmlns="http://www.w3.org/2000/svg">
<path d="M57.1221 77.8744H61.9804L60.1634 73.2795L61.9804 68.6846H55.1528L57.1221 70.8727V77.8744Z" fill="#0460B5"/>
<path d="M7.71651 77.8744H2.8584L4.67526 73.2795L2.8584 68.6846H9.68578L7.71651 70.8727V77.8744Z" fill="#0460B5"/>
<path d="M56.246 71.3102H8.54688V80.5H56.246V71.3102Z" fill="#0460B5"/>
<path d="M14.9518 74.612C15.1904 74.7314 15.3894 74.9305 15.5087 75.1292C15.628 75.3682 15.7076 75.6465 15.7076 75.8854C15.7076 76.1637 15.628 76.4022 15.5087 76.6412C15.3894 76.8797 15.1904 77.0389 14.9518 77.1584C14.7131 77.2774 14.4346 77.3571 14.1561 77.3571H12.9229V74.3735H14.1561C14.4346 74.4133 14.7131 74.4531 14.9518 74.612ZM14.6733 76.7606C14.8324 76.681 14.9518 76.5615 15.0313 76.4022C15.1904 76.0841 15.1904 75.6863 15.0313 75.3682C14.9518 75.2089 14.8324 75.0894 14.6733 75.0102C14.5142 74.9305 14.355 74.8907 14.1561 74.8907H13.4798V76.8796H14.1561C14.3152 76.8796 14.5142 76.8398 14.6733 76.7606Z" fill="white"/>
<path d="M16.1851 74.4133H18.3731V74.8908H16.7818V75.6465H18.214V76.1239H16.7818V76.8797H18.4527V77.3571H16.1851V74.4133Z" fill="white"/>
<path d="M20.4418 74.9704C20.3225 74.9306 20.1633 74.8908 20.0042 74.8908C19.8849 74.8908 19.7655 74.9306 19.686 74.9704C19.6064 75.0098 19.5666 75.0894 19.5666 75.1691C19.5666 75.2487 19.6064 75.3284 19.6462 75.3682C19.686 75.408 19.7655 75.4872 19.8451 75.4872C19.9644 75.527 20.0838 75.5669 20.2031 75.6067C20.3623 75.6465 20.5214 75.7262 20.6805 75.766C20.7999 75.8456 20.9192 75.9248 20.9988 76.0443C21.0783 76.1638 21.1579 76.3226 21.1181 76.5217C21.1181 76.681 21.0783 76.8797 20.959 76.9991C20.8397 77.1186 20.7203 77.2376 20.5612 77.3173C20.3623 77.3969 20.1633 77.4368 19.9644 77.4368C19.7257 77.4368 19.4871 77.3969 19.2881 77.3173C19.0892 77.2376 18.8903 77.1186 18.6914 76.9593L18.9301 76.4819C19.0892 76.6014 19.2483 76.7208 19.4473 76.8C19.6064 76.8797 19.8053 76.9195 19.9644 76.9195C20.0838 76.9195 20.2429 76.8797 20.3225 76.8399C20.4816 76.7602 20.4816 76.5615 20.4021 76.4023L20.3623 76.3624C20.2827 76.3226 20.2429 76.2434 20.1633 76.2434C20.0838 76.2036 19.9644 76.1638 19.8053 76.1239C19.6462 76.0841 19.4871 76.0045 19.3279 75.9646C19.2086 75.9248 19.0892 75.8058 19.0097 75.7262C18.9301 75.6067 18.8505 75.4474 18.8903 75.2885C18.8903 75.1293 18.9301 74.9704 19.0097 74.8509C19.129 74.7315 19.2483 74.612 19.4075 74.5328C19.6064 74.4532 19.8053 74.4133 20.0042 74.4133C20.2031 74.4133 20.4021 74.4531 20.5612 74.493C20.7203 74.5328 20.9192 74.612 21.0783 74.7315L20.8397 75.2089C20.7601 75.0894 20.6009 75.0098 20.4418 74.9704Z" fill="white"/>
<path d="M21.7153 74.4133H22.2723V77.3969H21.7153V74.4133Z" fill="white"/>
<path d="M25.0176 75.8854H25.495V77.0389C25.3359 77.1584 25.137 77.2376 24.938 77.3173C24.7391 77.3969 24.5402 77.4367 24.3015 77.4367C24.023 77.4367 23.7446 77.3571 23.5059 77.2376C23.2672 77.1186 23.0683 76.9195 22.9489 76.681C22.7898 76.442 22.75 76.1637 22.75 75.8854C22.75 75.6067 22.8296 75.3283 22.9489 75.1292C23.1081 74.8907 23.307 74.6916 23.5457 74.5726C23.7844 74.4531 24.0628 74.3735 24.3413 74.3735C24.5402 74.3735 24.7789 74.4133 24.9778 74.4929C25.1767 74.5726 25.3756 74.6518 25.495 74.8111L25.1767 75.2487C25.0574 75.1292 24.938 75.0496 24.7789 75.0102C24.6198 74.9704 24.5004 74.9305 24.3413 74.9305C24.1424 74.9305 23.9833 74.9704 23.8241 75.0496C23.3468 75.3283 23.1876 75.9646 23.4661 76.442C23.665 76.7606 23.9833 76.9593 24.3413 76.9593C24.4606 76.9593 24.5402 76.9593 24.6596 76.9195C24.7789 76.8796 24.8983 76.8398 24.9778 76.7606L25.0176 75.8854Z" fill="white"/>
<path d="M28.2791 74.4133H28.8361V77.3969H28.3189L26.7674 75.3284V77.3969H26.2104V74.4133H26.7674L28.3189 76.4819L28.2791 74.4133Z" fill="white"/>
<path d="M31.423 77.397L30.9059 76.5217H30.1102V77.397H29.5532V74.4134H30.7865C31.1048 74.3735 31.423 74.493 31.7015 74.6519C31.9004 74.851 32.0197 75.1293 32.0197 75.408C32.0197 75.6067 31.98 75.8058 31.8606 76.0045C31.7413 76.1638 31.5821 76.2832 31.423 76.3625L32.0993 77.3571L31.423 77.397ZM30.1102 76.0045H30.7865C30.9854 76.0045 31.1445 75.9647 31.3036 75.8456C31.423 75.7262 31.4628 75.6067 31.4628 75.4479C31.4628 75.2886 31.423 75.1293 31.3036 75.0496C31.1445 74.9704 30.9854 74.8908 30.8263 74.9306H30.1102V76.0045Z" fill="white"/>
<path d="M33.3317 76.7208C33.4909 76.8399 33.6898 76.9195 33.849 76.9195C34.0478 76.9195 34.2468 76.8399 34.3661 76.7208C34.4855 76.5615 34.565 76.3624 34.565 76.1638V74.4133H35.122V76.1638C35.122 76.4023 35.0822 76.6412 34.9628 76.8399C34.8435 77.039 34.6844 77.1978 34.5252 77.2775C34.3263 77.3969 34.0876 77.4368 33.849 77.4368C33.6102 77.4368 33.3716 77.3969 33.1329 77.2775C32.934 77.1978 32.7748 77.039 32.6952 76.8399C32.5759 76.6412 32.5361 76.4023 32.5361 76.1638V74.4133H33.0931V76.1638C33.1329 76.3624 33.2124 76.5615 33.3317 76.7208Z" fill="white"/>
<path d="M37.27 74.9704C37.1506 74.9306 36.9915 74.8908 36.8324 74.8908C36.713 74.8908 36.5936 74.9306 36.5141 74.9704C36.4345 75.0098 36.3947 75.0894 36.3947 75.1691C36.3947 75.2487 36.4345 75.3284 36.4743 75.3682C36.5141 75.408 36.5936 75.4872 36.6732 75.4872C36.7926 75.527 36.9119 75.5669 37.0312 75.6067C37.1904 75.6465 37.3495 75.7262 37.5087 75.766C37.628 75.8456 37.7473 75.9248 37.8269 76.0443C37.9065 76.1638 37.9861 76.3226 37.9463 76.5217C37.9463 76.681 37.9065 76.8797 37.7871 76.9991C37.6678 77.1186 37.5485 77.2376 37.3893 77.3173C37.1904 77.3969 36.9915 77.4368 36.7926 77.4368C36.5539 77.4368 36.3152 77.3969 36.1163 77.3173C35.9174 77.2376 35.7184 77.1186 35.5195 76.9593L35.7582 76.4819C35.9174 76.6014 36.0765 76.7208 36.2754 76.8C36.4345 76.8797 36.6335 76.9195 36.7926 76.9195C36.9119 76.9195 37.0711 76.8797 37.1506 76.8399C37.3097 76.7602 37.3097 76.5615 37.2302 76.4023L37.1904 76.3624C37.1108 76.3226 37.0711 76.2434 36.9915 76.2434C36.9119 76.2036 36.7926 76.1638 36.6335 76.1239C36.4743 76.0841 36.3152 76.0045 36.156 75.9646C36.0367 75.9248 35.9174 75.8058 35.8378 75.7262C35.7582 75.6067 35.6786 75.4474 35.7184 75.2885C35.7184 75.1293 35.7582 74.9704 35.8378 74.8509C35.9571 74.7315 36.0765 74.612 36.2356 74.5328C36.4345 74.4532 36.6335 74.4133 36.8324 74.4133C37.0312 74.4133 37.2302 74.4531 37.3893 74.493C37.5485 74.5328 37.7473 74.612 37.9065 74.7315L37.6678 75.2089C37.5882 75.0894 37.4291 75.0098 37.27 74.9704Z" fill="white"/>
<path d="M38.5425 74.4133H39.0994V75.6863H40.5714V74.4133H41.1283V77.3969H40.5714V76.2036H39.0994V77.3969H38.5425V74.4133Z" fill="white"/>
<path d="M42.2035 76.8797C42.2432 76.9195 42.283 76.9992 42.283 77.1186C42.283 77.1983 42.2432 77.2775 42.2035 77.3571C42.1637 77.3969 42.0841 77.4368 42.0046 77.4368C41.925 77.4368 41.8454 77.3969 41.8056 77.3571C41.7658 77.2775 41.7261 77.1983 41.7261 77.1186C41.7261 77.039 41.7658 76.9593 41.8056 76.8797C41.8454 76.8399 41.925 76.8 42.0046 76.8C42.0841 76.8 42.1637 76.8399 42.2035 76.8797Z" fill="white"/>
<path d="M43.7939 75.5668C43.6347 75.5668 43.4756 75.6465 43.3563 75.766C43.2369 75.885 43.1971 76.0841 43.1971 76.2434C43.1971 76.4421 43.2369 76.6013 43.3563 76.7204C43.4756 76.8398 43.6347 76.9195 43.7939 76.9195C44.0326 76.9195 44.2713 76.8398 44.3906 76.6412L44.7487 76.9195C44.6293 77.0788 44.5099 77.1978 44.3508 77.2774C44.1519 77.3571 43.953 77.3969 43.7541 77.3969C43.5552 77.3969 43.3563 77.3571 43.1573 77.2376C42.9982 77.158 42.8391 76.9991 42.7595 76.8398C42.5606 76.4819 42.5606 76.0044 42.7595 75.6465C42.8391 75.4872 42.9982 75.3283 43.1573 75.2487C43.3563 75.1691 43.5552 75.0894 43.7541 75.0894C43.953 75.0894 44.1519 75.1292 44.3111 75.2089C44.4702 75.2885 44.5895 75.3682 44.7089 75.527L44.3906 75.8452C44.2713 75.6863 44.0326 75.5668 43.7939 75.5668Z" fill="white"/>
<path d="M46.778 75.2487C46.9373 75.3283 47.0961 75.4872 47.2156 75.6465C47.335 75.8452 47.3749 76.0443 47.3749 76.2434C47.3749 76.4421 47.335 76.681 47.2156 76.8398C47.0961 76.9991 46.9771 77.158 46.778 77.2376C46.5791 77.3173 46.3802 77.3969 46.1415 77.3969C45.9028 77.3969 45.7039 77.3571 45.5049 77.2376C45.3458 77.158 45.1867 76.9991 45.0673 76.8398C44.948 76.6412 44.9082 76.4421 44.9082 76.2434C44.9082 76.0443 44.948 75.8058 45.0673 75.6465C45.1867 75.4872 45.306 75.3283 45.5049 75.2487C45.7039 75.1292 45.9028 75.0894 46.1415 75.0894C46.3802 75.0894 46.5791 75.1292 46.778 75.2487ZM45.7039 75.766C45.4651 76.0443 45.4651 76.4819 45.7039 76.7602C45.8232 76.8797 45.9824 76.9593 46.1812 76.9593C46.3404 76.9593 46.5393 76.8797 46.6585 76.7602C46.8974 76.4819 46.8974 76.0443 46.6585 75.766C46.5393 75.6465 46.3802 75.5668 46.1812 75.5668C45.9824 75.5668 45.8232 75.6067 45.7039 75.766Z" fill="white"/>
<path d="M51.4323 75.3283C51.5916 75.4872 51.6712 75.7261 51.6712 75.9646V77.3969H51.1141V76.1239C51.1141 75.9646 51.0743 75.8456 50.9947 75.7261C50.9155 75.6465 50.7562 75.5668 50.6367 75.5668C50.4779 75.5668 50.3186 75.6465 50.1991 75.7659C50.0796 75.8854 50.0403 76.0442 50.0403 76.2434V77.3571H49.4832V76.1239C49.4832 75.9646 49.4434 75.8456 49.3637 75.7261C49.2841 75.6465 49.1252 75.5668 49.0058 75.5668C48.8465 75.5668 48.6876 75.6465 48.5681 75.7659C48.4487 75.8854 48.4089 76.0841 48.4487 76.2434V77.3571H47.8916V75.0894H48.4487V75.527C48.7274 75.0894 49.3239 74.9704 49.7615 75.2088C49.881 75.2885 50.0004 75.4473 50.0403 75.6066C50.1593 75.2487 50.5172 75.0496 50.8756 75.0496C51.0743 75.0496 51.2734 75.169 51.4323 75.3283Z" fill="white"/>
<path d="M32.5128 30.5486C32.4307 30.4608 32.4307 30.5486 32.5128 30.5486L32.1023 30.2851L32.0202 30.1972L22.3334 22.8168C22.3334 22.8168 22.2514 22.8168 22.2514 22.729L22.0872 22.5533L22.0051 22.4654H21.8409L19.0498 20.3567L24.5499 21.2353C24.7962 21.2353 24.8783 21.3232 25.1245 21.4111C25.2066 21.4111 25.3708 21.4989 25.3708 21.4989C25.6171 21.5868 25.6992 21.6746 25.8634 21.7625C26.0276 21.8503 26.1096 21.9382 26.2738 22.0261C26.3559 22.1139 26.5201 22.2018 26.5201 22.2896C26.6022 22.3775 26.6843 22.3775 26.7664 22.4654C26.9306 22.5533 27.0126 22.6411 27.0126 22.729C27.2589 22.9926 27.4231 23.2561 27.6694 23.4318L32.0202 30.0214L32.1023 30.1093L32.5128 30.5486Z" fill="#18AAD1"/>
<path d="M32.5122 40.7406L32.1017 40.0377L32.0197 39.9499L19.1313 20.3567L21.9224 22.4654L22.415 22.8168L32.1017 30.1972H32.1838L32.5122 30.4608C32.5122 30.4608 32.5943 30.4608 32.5943 30.5487L33.0048 30.1972L46.0573 20.3567L32.9227 40.0377L32.8406 40.1256L32.5122 40.7406Z" fill="#2AD2FF"/>
<path d="M32.5115 27.2098L32.1011 26.5069L32.019 26.4191L28.8174 21.6745L32.019 22.3774H32.1011L32.5115 22.4653L32.922 22.3774L36.0414 21.5867L32.922 26.5069V26.5948L32.5115 27.2098Z" fill="#18AAD1"/>
<path d="M46.1403 20.2687L42.0358 20.8837L40.476 21.1474C39.2447 21.3231 38.0954 22.026 37.3566 23.1682L33.0057 29.8456L32.9236 29.9335L32.5132 30.5486L33.0057 30.0214L33.0878 29.9335L32.5132 30.5486L43.5955 22.1138L46.1403 20.2687Z" fill="#18AAD1"/>
<path d="M34.5654 6.38673C34.5654 10.2526 28.3265 12.2734 28.3265 16.4029C28.2444 17.3694 28.4907 18.3358 28.9011 19.2145C28.9011 19.2145 26.5205 16.7543 26.5205 14.1185C26.5205 11.4827 28.819 7.52893 28.819 7.52893C28.819 9.28614 29.4758 9.81332 30.1325 9.90115H30.2146C30.9534 9.90115 31.3639 9.28614 31.3639 8.40751C31.3639 7.52893 30.4609 6.6503 30.4609 4.89309C30.4609 3.2237 32.4311 0.5 32.4311 0.5C33.8266 2.25723 34.5654 4.27804 34.5654 6.38673Z" fill="#2AD2FF"/>
<path d="M32.8414 20.4447C30.8712 20.4447 29.3936 18.7753 29.3936 16.7545V16.6667C29.3936 12.1857 35.222 11.7464 35.222 5.68396C35.3862 5.94753 36.9459 8.23193 36.9459 10.6921C36.9459 13.7672 34.2369 14.558 34.2369 16.0516C34.2369 16.6667 34.4832 17.1059 35.3041 17.1059C35.3862 17.1059 35.4683 17.1059 35.5504 17.0181C37.1101 16.3152 38.1773 14.7337 38.2594 12.8886C38.2594 12.9765 39.0803 20.4447 32.8414 20.4447Z" fill="#2AD2FF"/>
<path d="M35.3859 17.106C35.468 17.106 35.5501 17.106 35.6322 17.0181C34.8113 17.2817 31.7739 18.0724 31.7739 15.788C31.7739 12.9765 36.2889 12.3614 36.2889 9.98918C36.2889 8.49554 35.9606 7.0019 35.2217 5.68396C35.3859 5.94753 36.9456 8.23193 36.9456 10.6921C36.9456 13.7672 34.2366 14.558 34.2366 16.0516C34.3187 16.6667 34.6471 17.106 35.3859 17.106Z" fill="#18AAD1"/>
<path d="M32.7804 7.96824C32.7804 10.1648 30.1534 9.98906 29.9893 9.90119H30.2355C30.9744 9.90119 31.3848 9.28618 31.3848 8.40755C31.3848 7.52893 30.4818 6.6503 30.4818 4.89309C30.4818 3.22371 32.452 0.5 32.452 0.5C31.7953 1.6422 31.4669 2.87226 31.3848 4.10233C31.3848 6.12316 32.7804 6.29886 32.7804 7.96824Z" fill="#18AAD1"/>
<path d="M31.3734 46.4574L29.4751 45.1061H31.8049L32.5815 42.6734L33.2718 45.1061H35.6016L33.7032 46.4574L34.3935 48.7999L32.4952 47.3584L30.5106 48.7999L31.3734 46.4574Z" fill="#2AD2FF"/>
<path d="M41.516 46.4574L39.6177 45.1061H41.9474L42.7241 42.6734L43.4144 45.1061H45.7442L43.8458 46.4574L44.5361 48.7999L42.6378 47.3584L40.6531 48.7999L41.516 46.4574Z" fill="#2AD2FF"/>
<path d="M51.5795 46.4574L49.6812 45.1061H52.011L52.7877 42.6734L53.4778 45.1061H55.8076L53.9093 46.4574L54.5994 48.7999L52.7011 47.3584L50.7165 48.7999L51.5795 46.4574Z" fill="#2AD2FF"/>
<path d="M20.9481 46.4574L19.0498 45.1061H21.3796L22.1562 42.6734L22.8465 45.1061H25.1763L23.278 46.4574L23.9682 48.7999L22.0699 47.3584L20.1716 48.7999L20.9481 46.4574Z" fill="#2AD2FF"/>
<path d="M10.8837 46.4574L8.98535 45.1061H11.3151L12.0917 42.6734L12.7821 45.1061H15.1118L13.2135 46.4574L13.9038 48.7999L12.0055 47.3584L10.1071 48.7999L10.8837 46.4574Z" fill="#2AD2FF"/>
<path d="M10.3508 57.6333V57.0333H11.5568C11.7688 57.0333 11.9328 56.9673 12.0488 56.8353C12.1648 56.7033 12.2228 56.5513 12.2228 56.3793C12.2228 56.2633 12.1968 56.1553 12.1448 56.0553C12.0928 55.9553 12.0168 55.8753 11.9168 55.8153C11.8168 55.7553 11.6968 55.7253 11.5568 55.7253H10.3508V55.1253H11.4548C11.6348 55.1253 11.7788 55.0793 11.8868 54.9873C11.9948 54.8953 12.0488 54.7593 12.0488 54.5793C12.0488 54.3993 11.9948 54.2633 11.8868 54.1713C11.7788 54.0793 11.6348 54.0333 11.4548 54.0333H10.3508V53.4333H11.4728C11.7568 53.4333 11.9928 53.4853 12.1808 53.5893C12.3688 53.6933 12.5088 53.8273 12.6008 53.9913C12.6928 54.1553 12.7388 54.3313 12.7388 54.5193C12.7388 54.7393 12.6768 54.9333 12.5528 55.1013C12.4328 55.2693 12.2548 55.4053 12.0188 55.5093L12.0728 55.2933C12.3368 55.4013 12.5428 55.5533 12.6908 55.7493C12.8388 55.9453 12.9128 56.1753 12.9128 56.4393C12.9128 56.6553 12.8588 56.8533 12.7508 57.0333C12.6468 57.2133 12.4908 57.3593 12.2828 57.4713C12.0788 57.5793 11.8268 57.6333 11.5268 57.6333H10.3508ZM9.87676 57.6333V53.4333H10.5668V57.6333H9.87676ZM13.6092 57.6333V53.4333H14.2992V57.6333H13.6092ZM14.0832 57.6333V57.0033H16.4352V57.6333H14.0832ZM14.0832 55.7913V55.1853H16.2312V55.7913H14.0832ZM14.0832 54.0633V53.4333H16.4052V54.0633H14.0832ZM18.2128 57.6933C17.8808 57.6933 17.5988 57.6333 17.3668 57.5133C17.1348 57.3933 16.9268 57.2173 16.7428 56.9853L17.2108 56.5173C17.3268 56.6853 17.4648 56.8173 17.6248 56.9133C17.7848 57.0053 17.9888 57.0513 18.2368 57.0513C18.4688 57.0513 18.6528 57.0033 18.7888 56.9073C18.9288 56.8113 18.9988 56.6793 18.9988 56.5113C18.9988 56.3713 18.9628 56.2573 18.8908 56.1693C18.8188 56.0813 18.7228 56.0093 18.6028 55.9533C18.4868 55.8933 18.3568 55.8413 18.2128 55.7973C18.0728 55.7493 17.9308 55.6973 17.7868 55.6413C17.6468 55.5813 17.5168 55.5073 17.3968 55.4193C17.2808 55.3313 17.1868 55.2173 17.1148 55.0773C17.0428 54.9373 17.0068 54.7593 17.0068 54.5433C17.0068 54.2953 17.0668 54.0853 17.1868 53.9133C17.3108 53.7373 17.4768 53.6033 17.6848 53.5113C17.8928 53.4193 18.1248 53.3733 18.3808 53.3733C18.6568 53.3733 18.9028 53.4273 19.1188 53.5353C19.3388 53.6433 19.5168 53.7813 19.6528 53.9493L19.1848 54.4173C19.0648 54.2813 18.9388 54.1813 18.8068 54.1173C18.6788 54.0493 18.5308 54.0153 18.3628 54.0153C18.1548 54.0153 17.9908 54.0573 17.8708 54.1413C17.7548 54.2253 17.6968 54.3433 17.6968 54.4953C17.6968 54.6233 17.7328 54.7273 17.8048 54.8073C17.8768 54.8833 17.9708 54.9493 18.0868 55.0053C18.2068 55.0573 18.3368 55.1073 18.4768 55.1553C18.6208 55.2033 18.7628 55.2573 18.9028 55.3173C19.0468 55.3773 19.1768 55.4553 19.2928 55.5513C19.4128 55.6433 19.5088 55.7633 19.5808 55.9113C19.6528 56.0593 19.6888 56.2453 19.6888 56.4693C19.6888 56.8453 19.5548 57.1433 19.2868 57.3633C19.0228 57.5833 18.6648 57.6933 18.2128 57.6933ZM21.2511 57.6333V53.5533H21.9411V57.6333H21.2511ZM19.8831 54.0633V53.4333H23.3091V54.0633H19.8831ZM26.0974 57.6333L24.7174 53.4333H25.3954L26.4334 56.6673H26.2534L27.2674 53.4333H27.7474L28.7614 56.6673H28.5814L29.6194 53.4333H30.2974L28.9174 57.6333H28.4374L27.4174 54.4053H27.5974L26.5774 57.6333H26.0974ZM30.9119 57.6333V53.4333H31.6019V57.6333H30.9119ZM31.3859 57.6333V57.0033H33.7379V57.6333H31.3859ZM31.3859 55.7913V55.1853H33.5339V55.7913H31.3859ZM31.3859 54.0633V53.4333H33.7079V54.0633H31.3859ZM34.925 57.6333V57.0333H36.131C36.343 57.0333 36.507 56.9673 36.623 56.8353C36.739 56.7033 36.797 56.5513 36.797 56.3793C36.797 56.2633 36.771 56.1553 36.719 56.0553C36.667 55.9553 36.591 55.8753 36.491 55.8153C36.391 55.7553 36.271 55.7253 36.131 55.7253H34.925V55.1253H36.029C36.209 55.1253 36.353 55.0793 36.461 54.9873C36.569 54.8953 36.623 54.7593 36.623 54.5793C36.623 54.3993 36.569 54.2633 36.461 54.1713C36.353 54.0793 36.209 54.0333 36.029 54.0333H34.925V53.4333H36.047C36.331 53.4333 36.567 53.4853 36.755 53.5893C36.943 53.6933 37.083 53.8273 37.175 53.9913C37.267 54.1553 37.313 54.3313 37.313 54.5193C37.313 54.7393 37.251 54.9333 37.127 55.1013C37.007 55.2693 36.829 55.4053 36.593 55.5093L36.647 55.2933C36.911 55.4013 37.117 55.5533 37.265 55.7493C37.413 55.9453 37.487 56.1753 37.487 56.4393C37.487 56.6553 37.433 56.8533 37.325 57.0333C37.221 57.2133 37.065 57.3593 36.857 57.4713C36.653 57.5793 36.401 57.6333 36.101 57.6333H34.925ZM34.451 57.6333V53.4333H35.141V57.6333H34.451ZM38.1834 57.6333V53.4333H38.8734V57.6333H38.1834ZM38.6574 55.8333V55.2033H40.7934V55.8333H38.6574ZM38.6574 54.0633V53.4333H40.8954V54.0633H38.6574ZM41.5818 57.6333V53.4333H42.2718V57.6333H41.5818ZM42.0558 57.6333V57.0033H44.2518V57.6333H42.0558ZM46.4904 57.6933C46.1904 57.6933 45.9104 57.6373 45.6504 57.5253C45.3904 57.4133 45.1624 57.2593 44.9664 57.0633C44.7704 56.8633 44.6164 56.6333 44.5044 56.3733C44.3964 56.1093 44.3424 55.8273 44.3424 55.5273C44.3424 55.2273 44.3964 54.9473 44.5044 54.6873C44.6164 54.4273 44.7684 54.1993 44.9604 54.0033C45.1564 53.8033 45.3824 53.6493 45.6384 53.5413C45.8984 53.4293 46.1784 53.3733 46.4784 53.3733C46.7784 53.3733 47.0564 53.4293 47.3124 53.5413C47.5724 53.6493 47.8004 53.8033 47.9964 54.0033C48.1924 54.1993 48.3444 54.4293 48.4524 54.6933C48.5644 54.9533 48.6204 55.2333 48.6204 55.5333C48.6204 55.8333 48.5644 56.1153 48.4524 56.3793C48.3444 56.6393 48.1924 56.8673 47.9964 57.0633C47.8044 57.2593 47.5784 57.4133 47.3184 57.5253C47.0624 57.6373 46.7864 57.6933 46.4904 57.6933ZM46.4784 57.0333C46.7624 57.0333 47.0104 56.9693 47.2224 56.8413C47.4384 56.7133 47.6064 56.5373 47.7264 56.3133C47.8504 56.0853 47.9124 55.8233 47.9124 55.5273C47.9124 55.3073 47.8764 55.1073 47.8044 54.9273C47.7364 54.7433 47.6384 54.5853 47.5104 54.4533C47.3824 54.3173 47.2304 54.2133 47.0544 54.1413C46.8824 54.0693 46.6904 54.0333 46.4784 54.0333C46.1984 54.0333 45.9504 54.0973 45.7344 54.2253C45.5224 54.3493 45.3544 54.5233 45.2304 54.7473C45.1104 54.9713 45.0504 55.2313 45.0504 55.5273C45.0504 55.7473 45.0844 55.9513 45.1524 56.1393C45.2244 56.3233 45.3224 56.4813 45.4464 56.6133C45.5744 56.7453 45.7264 56.8493 45.9024 56.9253C46.0784 56.9973 46.2704 57.0333 46.4784 57.0333ZM50.2204 57.6333L48.8404 53.4333H49.5184L50.5564 56.6673H50.3764L51.3904 53.4333H51.8704L52.8844 56.6673H52.7044L53.7424 53.4333H54.4204L53.0404 57.6333H52.5604L51.5404 54.4053H51.7204L50.7004 57.6333H50.2204ZM9.42746 65.6333L8.04746 61.4333H8.72546L9.76346 64.6673H9.58346L10.5975 61.4333H11.0775L12.0915 64.6673H11.9115L12.9495 61.4333H13.6275L12.2475 65.6333H11.7675L10.7475 62.4053H10.9275L9.90746 65.6333H9.42746ZM14.242 65.6333V61.4333H14.932V65.6333H14.242ZM14.716 65.6333V65.0033H17.068V65.6333H14.716ZM14.716 63.7913V63.1853H16.864V63.7913H14.716ZM14.716 62.0633V61.4333H17.038V62.0633H14.716ZM18.2551 65.6333V65.0333H19.4611C19.6731 65.0333 19.8371 64.9673 19.9531 64.8353C20.0691 64.7033 20.1271 64.5513 20.1271 64.3793C20.1271 64.2633 20.1011 64.1553 20.0491 64.0553C19.9971 63.9553 19.9211 63.8753 19.8211 63.8153C19.7211 63.7553 19.6011 63.7253 19.4611 63.7253H18.2551V63.1253H19.3591C19.5391 63.1253 19.6831 63.0793 19.7911 62.9873C19.8991 62.8953 19.9531 62.7593 19.9531 62.5793C19.9531 62.3993 19.8991 62.2633 19.7911 62.1713C19.6831 62.0793 19.5391 62.0333 19.3591 62.0333H18.2551V61.4333H19.3771C19.6611 61.4333 19.8971 61.4853 20.0851 61.5893C20.2731 61.6933 20.4131 61.8273 20.5051 61.9913C20.5971 62.1553 20.6431 62.3313 20.6431 62.5193C20.6431 62.7393 20.5811 62.9333 20.4571 63.1013C20.3371 63.2693 20.1591 63.4053 19.9231 63.5093L19.9771 63.2933C20.2411 63.4013 20.4471 63.5533 20.5951 63.7493C20.7431 63.9453 20.8171 64.1753 20.8171 64.4393C20.8171 64.6553 20.7631 64.8533 20.6551 65.0333C20.5511 65.2133 20.3951 65.3593 20.1871 65.4713C19.9831 65.5793 19.7311 65.6333 19.4311 65.6333H18.2551ZM17.7811 65.6333V61.4333H18.4711V65.6333H17.7811ZM22.6014 65.6933C22.2694 65.6933 21.9874 65.6333 21.7554 65.5133C21.5234 65.3933 21.3154 65.2173 21.1314 64.9853L21.5994 64.5173C21.7154 64.6853 21.8534 64.8173 22.0134 64.9133C22.1734 65.0053 22.3774 65.0513 22.6254 65.0513C22.8574 65.0513 23.0414 65.0033 23.1774 64.9073C23.3174 64.8113 23.3874 64.6793 23.3874 64.5113C23.3874 64.3713 23.3514 64.2573 23.2794 64.1693C23.2074 64.0813 23.1114 64.0093 22.9914 63.9533C22.8754 63.8933 22.7454 63.8413 22.6014 63.7973C22.4614 63.7493 22.3194 63.6973 22.1754 63.6413C22.0354 63.5813 21.9054 63.5073 21.7854 63.4193C21.6694 63.3313 21.5754 63.2173 21.5034 63.0773C21.4314 62.9373 21.3954 62.7593 21.3954 62.5433C21.3954 62.2953 21.4554 62.0853 21.5754 61.9133C21.6994 61.7373 21.8654 61.6033 22.0734 61.5113C22.2814 61.4193 22.5134 61.3733 22.7694 61.3733C23.0454 61.3733 23.2914 61.4273 23.5074 61.5353C23.7274 61.6433 23.9054 61.7813 24.0414 61.9493L23.5734 62.4173C23.4534 62.2813 23.3274 62.1813 23.1954 62.1173C23.0674 62.0493 22.9194 62.0153 22.7514 62.0153C22.5434 62.0153 22.3794 62.0573 22.2594 62.1413C22.1434 62.2253 22.0854 62.3433 22.0854 62.4953C22.0854 62.6233 22.1214 62.7273 22.1934 62.8073C22.2654 62.8833 22.3594 62.9493 22.4754 63.0053C22.5954 63.0573 22.7254 63.1073 22.8654 63.1553C23.0094 63.2033 23.1514 63.2573 23.2914 63.3173C23.4354 63.3773 23.5654 63.4553 23.6814 63.5513C23.8014 63.6433 23.8974 63.7633 23.9694 63.9113C24.0414 64.0593 24.0774 64.2453 24.0774 64.4693C24.0774 64.8453 23.9434 65.1433 23.6754 65.3633C23.4114 65.5833 23.0534 65.6933 22.6014 65.6933ZM24.7654 65.6333V61.4333H25.4554V65.6333H24.7654ZM27.421 65.6333V61.5533H28.111V65.6333H27.421ZM26.053 62.0633V61.4333H29.479V62.0633H26.053ZM30.0799 65.6333V61.4333H30.7699V65.6333H30.0799ZM30.5539 65.6333V65.0033H32.9059V65.6333H30.5539ZM30.5539 63.7913V63.1853H32.7019V63.7913H30.5539ZM30.5539 62.0633V61.4333H32.8759V62.0633H30.5539ZM35.2941 65.6333V65.0033H36.3981C36.6861 65.0033 36.9381 64.9413 37.1541 64.8173C37.3741 64.6933 37.5441 64.5213 37.6641 64.3013C37.7881 64.0773 37.8501 63.8193 37.8501 63.5273C37.8501 63.2393 37.7881 62.9853 37.6641 62.7653C37.5401 62.5453 37.3681 62.3733 37.1481 62.2493C36.9321 62.1253 36.6821 62.0633 36.3981 62.0633H35.2941V61.4333H36.4161C36.7201 61.4333 37.0021 61.4873 37.2621 61.5953C37.5221 61.6993 37.7481 61.8473 37.9401 62.0393C38.1361 62.2273 38.2881 62.4493 38.3961 62.7053C38.5041 62.9573 38.5581 63.2333 38.5581 63.5333C38.5581 63.8293 38.5041 64.1053 38.3961 64.3613C38.2881 64.6173 38.1381 64.8413 37.9461 65.0333C37.7541 65.2213 37.5281 65.3693 37.2681 65.4773C37.0081 65.5813 36.7281 65.6333 36.4281 65.6333H35.2941ZM34.8201 65.6333V61.4333H35.5101V65.6333H34.8201ZM39.2615 65.6333V61.4333H39.9515V65.6333H39.2615ZM39.7355 65.6333V65.0033H42.0875V65.6333H39.7355ZM39.7355 63.7913V63.1853H41.8835V63.7913H39.7355ZM39.7355 62.0633V61.4333H42.0575V62.0633H39.7355ZM43.8651 65.6933C43.5331 65.6933 43.2511 65.6333 43.0191 65.5133C42.7871 65.3933 42.5791 65.2173 42.3951 64.9853L42.8631 64.5173C42.9791 64.6853 43.1171 64.8173 43.2771 64.9133C43.4371 65.0053 43.6411 65.0513 43.8891 65.0513C44.1211 65.0513 44.3051 65.0033 44.4411 64.9073C44.5811 64.8113 44.6511 64.6793 44.6511 64.5113C44.6511 64.3713 44.6151 64.2573 44.5431 64.1693C44.4711 64.0813 44.3751 64.0093 44.2551 63.9533C44.1391 63.8933 44.0091 63.8413 43.8651 63.7973C43.7251 63.7493 43.5831 63.6973 43.4391 63.6413C43.2991 63.5813 43.1691 63.5073 43.0491 63.4193C42.9331 63.3313 42.8391 63.2173 42.7671 63.0773C42.6951 62.9373 42.6591 62.7593 42.6591 62.5433C42.6591 62.2953 42.7191 62.0853 42.8391 61.9133C42.9631 61.7373 43.1291 61.6033 43.3371 61.5113C43.5451 61.4193 43.7771 61.3733 44.0331 61.3733C44.3091 61.3733 44.5551 61.4273 44.7711 61.5353C44.9911 61.6433 45.1691 61.7813 45.3051 61.9493L44.8371 62.4173C44.7171 62.2813 44.5911 62.1813 44.4591 62.1173C44.3311 62.0493 44.1831 62.0153 44.0151 62.0153C43.8071 62.0153 43.6431 62.0573 43.5231 62.1413C43.4071 62.2253 43.3491 62.3433 43.3491 62.4953C43.3491 62.6233 43.3851 62.7273 43.4571 62.8073C43.5291 62.8833 43.6231 62.9493 43.7391 63.0053C43.8591 63.0573 43.9891 63.1073 44.1291 63.1553C44.2731 63.2033 44.4151 63.2573 44.5551 63.3173C44.6991 63.3773 44.8291 63.4553 44.9451 63.5513C45.0651 63.6433 45.1611 63.7633 45.2331 63.9113C45.3051 64.0593 45.3411 64.2453 45.3411 64.4693C45.3411 64.8453 45.2071 65.1433 44.9391 65.3633C44.6751 65.5833 44.3171 65.6933 43.8651 65.6933ZM46.0291 65.6333V61.4333H46.7191V65.6333H46.0291ZM49.5247 65.6933C49.2367 65.6933 48.9647 65.6373 48.7087 65.5253C48.4527 65.4133 48.2287 65.2593 48.0367 65.0633C47.8447 64.8633 47.6927 64.6333 47.5807 64.3733C47.4727 64.1093 47.4187 63.8273 47.4187 63.5273C47.4187 63.2273 47.4727 62.9473 47.5807 62.6873C47.6927 62.4273 47.8447 62.1993 48.0367 62.0033C48.2327 61.8033 48.4607 61.6493 48.7207 61.5413C48.9847 61.4293 49.2687 61.3733 49.5727 61.3733C49.9047 61.3733 50.2127 61.4373 50.4967 61.5653C50.7807 61.6933 51.0187 61.8753 51.2107 62.1113L50.7427 62.5793C50.6187 62.4033 50.4527 62.2693 50.2447 62.1773C50.0367 62.0813 49.8127 62.0333 49.5727 62.0333C49.2847 62.0333 49.0307 62.0973 48.8107 62.2253C48.5947 62.3493 48.4267 62.5233 48.3067 62.7473C48.1867 62.9713 48.1267 63.2313 48.1267 63.5273C48.1267 63.8233 48.1867 64.0853 48.3067 64.3133C48.4307 64.5373 48.5967 64.7133 48.8047 64.8413C49.0127 64.9693 49.2487 65.0333 49.5127 65.0333C49.7927 65.0333 50.0327 64.9833 50.2327 64.8833C50.4367 64.7793 50.5927 64.6273 50.7007 64.4273C50.8087 64.2233 50.8627 63.9733 50.8627 63.6773L51.2947 63.9893H49.5007V63.3593H51.5767V63.4553C51.5767 63.9553 51.4867 64.3713 51.3067 64.7033C51.1307 65.0353 50.8887 65.2833 50.5807 65.4473C50.2727 65.6113 49.9207 65.6933 49.5247 65.6933ZM52.2635 65.6333V61.4333H52.7435L52.9535 62.2253V65.6333H52.2635ZM55.1735 65.6333L52.6595 62.3513L52.7435 61.4333L55.2575 64.7153L55.1735 65.6333ZM55.1735 65.6333L54.9635 64.8953V61.4333H55.6535V65.6333H55.1735Z" fill="#333333"/>
</svg>
