<svg width="64" height="80" viewBox="0 0 64 80" fill="none" xmlns="http://www.w3.org/2000/svg">
<path d="M57.1216 77.3744H61.9799L60.1629 72.7795L61.9799 68.1846H55.1523L57.1216 70.3727V77.3744Z" fill="#0460B5"/>
<path d="M7.71553 77.3744H2.85742L4.67429 72.7795L2.85742 68.1846H9.68481L7.71553 70.3727V77.3744Z" fill="#0460B5"/>
<path d="M56.246 70.8102H8.54688V80H56.246V70.8102Z" fill="#0460B5"/>
<path d="M14.9508 74.112C15.1895 74.2314 15.3884 74.4305 15.5077 74.6292C15.6271 74.8682 15.7066 75.1465 15.7066 75.3854C15.7066 75.6637 15.6271 75.9022 15.5077 76.1412C15.3884 76.3797 15.1895 76.5389 14.9508 76.6584C14.7121 76.7774 14.4336 76.8571 14.1551 76.8571H12.9219V73.8735H14.1551C14.4336 73.9133 14.7121 73.9531 14.9508 74.112ZM14.6723 76.2606C14.8314 76.181 14.9508 76.0615 15.0304 75.9022C15.1895 75.5841 15.1895 75.1863 15.0304 74.8682C14.9508 74.7089 14.8314 74.5894 14.6723 74.5102C14.5132 74.4305 14.354 74.3907 14.1551 74.3907H13.4788V76.3796H14.1551C14.3143 76.3796 14.5132 76.3398 14.6723 76.2606Z" fill="white"/>
<path d="M16.1855 73.9133H18.3736V74.3908H16.7823V75.1465H18.2145V75.6239H16.7823V76.3797H18.4532V76.8571H16.1855V73.9133Z" fill="white"/>
<path d="M20.4418 74.4704C20.3225 74.4306 20.1633 74.3908 20.0042 74.3908C19.8849 74.3908 19.7655 74.4306 19.686 74.4704C19.6064 74.5098 19.5666 74.5894 19.5666 74.6691C19.5666 74.7487 19.6064 74.8284 19.6462 74.8682C19.686 74.908 19.7655 74.9872 19.8451 74.9872C19.9644 75.027 20.0838 75.0669 20.2031 75.1067C20.3623 75.1465 20.5214 75.2262 20.6805 75.266C20.7999 75.3456 20.9192 75.4248 20.9988 75.5443C21.0783 75.6638 21.1579 75.8226 21.1181 76.0217C21.1181 76.181 21.0783 76.3797 20.959 76.4991C20.8397 76.6186 20.7203 76.7376 20.5612 76.8173C20.3623 76.8969 20.1633 76.9368 19.9644 76.9368C19.7257 76.9368 19.4871 76.8969 19.2881 76.8173C19.0892 76.7376 18.8903 76.6186 18.6914 76.4593L18.9301 75.9819C19.0892 76.1014 19.2483 76.2208 19.4473 76.3C19.6064 76.3797 19.8053 76.4195 19.9644 76.4195C20.0838 76.4195 20.2429 76.3797 20.3225 76.3399C20.4816 76.2602 20.4816 76.0615 20.4021 75.9023L20.3623 75.8624C20.2827 75.8226 20.2429 75.7434 20.1633 75.7434C20.0838 75.7036 19.9644 75.6638 19.8053 75.6239C19.6462 75.5841 19.4871 75.5045 19.3279 75.4646C19.2086 75.4248 19.0892 75.3058 19.0097 75.2262C18.9301 75.1067 18.8505 74.9474 18.8903 74.7885C18.8903 74.6293 18.9301 74.4704 19.0097 74.3509C19.129 74.2315 19.2483 74.112 19.4075 74.0328C19.6064 73.9532 19.8053 73.9133 20.0042 73.9133C20.2031 73.9133 20.4021 73.9531 20.5612 73.993C20.7203 74.0328 20.9192 74.112 21.0783 74.2315L20.8397 74.7089C20.7601 74.5894 20.6009 74.5098 20.4418 74.4704Z" fill="white"/>
<path d="M21.7148 73.9133H22.2718V76.8969H21.7148V73.9133Z" fill="white"/>
<path d="M25.0176 75.3854H25.495V76.5389C25.3359 76.6584 25.137 76.7376 24.938 76.8173C24.7391 76.8969 24.5402 76.9367 24.3015 76.9367C24.023 76.9367 23.7446 76.8571 23.5059 76.7376C23.2672 76.6186 23.0683 76.4195 22.9489 76.181C22.7898 75.942 22.75 75.6637 22.75 75.3854C22.75 75.1067 22.8296 74.8283 22.9489 74.6292C23.1081 74.3907 23.307 74.1916 23.5457 74.0726C23.7844 73.9531 24.0628 73.8735 24.3413 73.8735C24.5402 73.8735 24.7789 73.9133 24.9778 73.9929C25.1767 74.0726 25.3756 74.1518 25.495 74.3111L25.1767 74.7487C25.0574 74.6292 24.938 74.5496 24.7789 74.5102C24.6198 74.4704 24.5004 74.4305 24.3413 74.4305C24.1424 74.4305 23.9833 74.4704 23.8241 74.5496C23.3468 74.8283 23.1876 75.4646 23.4661 75.942C23.665 76.2606 23.9833 76.4593 24.3413 76.4593C24.4606 76.4593 24.5402 76.4593 24.6596 76.4195C24.7789 76.3796 24.8983 76.3398 24.9778 76.2606L25.0176 75.3854Z" fill="white"/>
<path d="M28.2796 73.9133H28.8366V76.8969H28.3194L26.7679 74.8284V76.8969H26.2109V73.9133H26.7679L28.3194 75.9819L28.2796 73.9133Z" fill="white"/>
<path d="M31.4225 76.897L30.9054 76.0217H30.1097V76.897H29.5527V73.9134H30.786C31.1043 73.8735 31.4225 73.993 31.701 74.1519C31.8999 74.351 32.0193 74.6293 32.0193 74.908C32.0193 75.1067 31.9795 75.3058 31.8601 75.5045C31.7408 75.6638 31.5817 75.7832 31.4225 75.8625L32.0988 76.8571L31.4225 76.897ZM30.1097 75.5045H30.786C30.9849 75.5045 31.144 75.4647 31.3032 75.3456C31.4225 75.2262 31.4623 75.1067 31.4623 74.9479C31.4623 74.7886 31.4225 74.6293 31.3032 74.5496C31.144 74.4704 30.9849 74.3908 30.8258 74.4306H30.1097V75.5045Z" fill="white"/>
<path d="M33.3327 76.2208C33.4919 76.3399 33.6908 76.4195 33.8499 76.4195C34.0488 76.4195 34.2478 76.3399 34.3671 76.2208C34.4864 76.0615 34.566 75.8624 34.566 75.6638V73.9133H35.123V75.6638C35.123 75.9023 35.0831 76.1412 34.9638 76.3399C34.8445 76.539 34.6854 76.6978 34.5262 76.7775C34.3273 76.8969 34.0886 76.9368 33.8499 76.9368C33.6112 76.9368 33.3725 76.8969 33.1338 76.7775C32.9349 76.6978 32.7758 76.539 32.6962 76.3399C32.5769 76.1412 32.5371 75.9023 32.5371 75.6638V73.9133H33.0941V75.6638C33.1338 75.8624 33.2134 76.0615 33.3327 76.2208Z" fill="white"/>
<path d="M37.27 74.4704C37.1506 74.4306 36.9915 74.3908 36.8324 74.3908C36.713 74.3908 36.5936 74.4306 36.5141 74.4704C36.4345 74.5098 36.3947 74.5894 36.3947 74.6691C36.3947 74.7487 36.4345 74.8284 36.4743 74.8682C36.5141 74.908 36.5936 74.9872 36.6732 74.9872C36.7926 75.027 36.9119 75.0669 37.0312 75.1067C37.1904 75.1465 37.3495 75.2262 37.5087 75.266C37.628 75.3456 37.7473 75.4248 37.8269 75.5443C37.9065 75.6638 37.9861 75.8226 37.9463 76.0217C37.9463 76.181 37.9065 76.3797 37.7871 76.4991C37.6678 76.6186 37.5485 76.7376 37.3893 76.8173C37.1904 76.8969 36.9915 76.9368 36.7926 76.9368C36.5539 76.9368 36.3152 76.8969 36.1163 76.8173C35.9174 76.7376 35.7184 76.6186 35.5195 76.4593L35.7582 75.9819C35.9174 76.1014 36.0765 76.2208 36.2754 76.3C36.4345 76.3797 36.6335 76.4195 36.7926 76.4195C36.9119 76.4195 37.0711 76.3797 37.1506 76.3399C37.3097 76.2602 37.3097 76.0615 37.2302 75.9023L37.1904 75.8624C37.1108 75.8226 37.0711 75.7434 36.9915 75.7434C36.9119 75.7036 36.7926 75.6638 36.6335 75.6239C36.4743 75.5841 36.3152 75.5045 36.156 75.4646C36.0367 75.4248 35.9174 75.3058 35.8378 75.2262C35.7582 75.1067 35.6786 74.9474 35.7184 74.7885C35.7184 74.6293 35.7582 74.4704 35.8378 74.3509C35.9571 74.2315 36.0765 74.112 36.2356 74.0328C36.4345 73.9532 36.6335 73.9133 36.8324 73.9133C37.0312 73.9133 37.2302 73.9531 37.3893 73.993C37.5485 74.0328 37.7473 74.112 37.9065 74.2315L37.6678 74.7089C37.5882 74.5894 37.4291 74.5098 37.27 74.4704Z" fill="white"/>
<path d="M38.543 73.9133H39.0999V75.1863H40.5718V73.9133H41.1288V76.8969H40.5718V75.7036H39.0999V76.8969H38.543V73.9133Z" fill="white"/>
<path d="M42.2039 76.3797C42.2437 76.4195 42.2835 76.4992 42.2835 76.6186C42.2835 76.6983 42.2437 76.7775 42.2039 76.8571C42.1642 76.8969 42.0846 76.9368 42.0051 76.9368C41.9255 76.9368 41.8459 76.8969 41.8061 76.8571C41.7663 76.7775 41.7266 76.6983 41.7266 76.6186C41.7266 76.539 41.7663 76.4593 41.8061 76.3797C41.8459 76.3399 41.9255 76.3 42.0051 76.3C42.0846 76.3 42.1642 76.3399 42.2039 76.3797Z" fill="white"/>
<path d="M43.7929 75.0668C43.6338 75.0668 43.4746 75.1465 43.3553 75.266C43.2359 75.385 43.1962 75.5841 43.1962 75.7434C43.1962 75.9421 43.2359 76.1013 43.3553 76.2204C43.4746 76.3398 43.6338 76.4195 43.7929 76.4195C44.0316 76.4195 44.2703 76.3398 44.3896 76.1412L44.7477 76.4195C44.6284 76.5788 44.509 76.6978 44.3499 76.7774C44.1509 76.8571 43.952 76.8969 43.7531 76.8969C43.5542 76.8969 43.3553 76.8571 43.1564 76.7376C42.9973 76.658 42.8381 76.4991 42.7585 76.3398C42.5597 75.9819 42.5597 75.5044 42.7585 75.1465C42.8381 74.9872 42.9973 74.8283 43.1564 74.7487C43.3553 74.6691 43.5542 74.5894 43.7531 74.5894C43.952 74.5894 44.1509 74.6292 44.3101 74.7089C44.4692 74.7885 44.5885 74.8682 44.7079 75.027L44.3896 75.3452C44.2703 75.1863 44.0316 75.0668 43.7929 75.0668Z" fill="white"/>
<path d="M46.778 74.7487C46.9373 74.8283 47.0961 74.9872 47.2156 75.1465C47.335 75.3452 47.3749 75.5443 47.3749 75.7434C47.3749 75.9421 47.335 76.181 47.2156 76.3398C47.0961 76.4991 46.9771 76.658 46.778 76.7376C46.5791 76.8173 46.3802 76.8969 46.1415 76.8969C45.9028 76.8969 45.7039 76.8571 45.5049 76.7376C45.3458 76.658 45.1867 76.4991 45.0673 76.3398C44.948 76.1412 44.9082 75.9421 44.9082 75.7434C44.9082 75.5443 44.948 75.3058 45.0673 75.1465C45.1867 74.9872 45.306 74.8283 45.5049 74.7487C45.7039 74.6292 45.9028 74.5894 46.1415 74.5894C46.3802 74.5894 46.5791 74.6292 46.778 74.7487ZM45.7039 75.266C45.4651 75.5443 45.4651 75.9819 45.7039 76.2602C45.8232 76.3797 45.9824 76.4593 46.1812 76.4593C46.3404 76.4593 46.5393 76.3797 46.6585 76.2602C46.8974 75.9819 46.8974 75.5443 46.6585 75.266C46.5393 75.1465 46.3802 75.0668 46.1812 75.0668C45.9824 75.0668 45.8232 75.1067 45.7039 75.266Z" fill="white"/>
<path d="M51.4313 74.8283C51.5906 74.9872 51.6702 75.2261 51.6702 75.4646V76.8969H51.1132V75.6239C51.1132 75.4646 51.0733 75.3456 50.9937 75.2261C50.9145 75.1465 50.7552 75.0668 50.6357 75.0668C50.4769 75.0668 50.3176 75.1465 50.1981 75.2659C50.0787 75.3854 50.0393 75.5442 50.0393 75.7434V76.8571H49.4822V75.6239C49.4822 75.4646 49.4424 75.3456 49.3627 75.2261C49.2831 75.1465 49.1242 75.0668 49.0048 75.0668C48.8455 75.0668 48.6866 75.1465 48.5672 75.2659C48.4477 75.3854 48.4079 75.5841 48.4477 75.7434V76.8571H47.8906V74.5894H48.4477V75.027C48.7265 74.5894 49.3229 74.4704 49.7605 74.7088C49.88 74.7885 49.9995 74.9473 50.0393 75.1066C50.1583 74.7487 50.5163 74.5496 50.8747 74.5496C51.0733 74.5496 51.2725 74.669 51.4313 74.8283Z" fill="white"/>
<path d="M32.5138 30.0486C32.4317 29.9608 32.4317 30.0486 32.5138 30.0486L32.1033 29.7851L32.0212 29.6972L22.3344 22.3168C22.3344 22.3168 22.2524 22.3168 22.2524 22.229L22.0882 22.0533L22.0061 21.9654H21.8419L19.0508 19.8567L24.5509 20.7353C24.7972 20.7353 24.8793 20.8232 25.1255 20.9111C25.2076 20.9111 25.3718 20.9989 25.3718 20.9989C25.6181 21.0868 25.7002 21.1746 25.8644 21.2625C26.0286 21.3503 26.1106 21.4382 26.2748 21.5261C26.3569 21.6139 26.5211 21.7018 26.5211 21.7896C26.6032 21.8775 26.6853 21.8775 26.7674 21.9654C26.9316 22.0533 27.0136 22.1411 27.0136 22.229C27.2599 22.4926 27.4241 22.7561 27.6704 22.9318L32.0212 29.5214L32.1033 29.6093L32.5138 30.0486Z" fill="#18AAD1"/>
<path d="M32.5117 40.2406L32.1013 39.5377L32.0192 39.4499L19.1309 19.8567L21.922 21.9654L22.4145 22.3168L32.1013 29.6972H32.1834L32.5117 29.9608C32.5117 29.9608 32.5938 29.9608 32.5938 30.0487L33.0043 29.6972L46.0568 19.8567L32.9222 39.5377L32.8401 39.6256L32.5117 40.2406Z" fill="#2AD2FF"/>
<path d="M32.5125 26.7098L32.102 26.0069L32.0199 25.9191L28.8184 21.1745L32.0199 21.8774H32.102L32.5125 21.9653L32.9229 21.8774L36.0424 21.0867L32.9229 26.0069V26.0948L32.5125 26.7098Z" fill="#18AAD1"/>
<path d="M46.1408 19.7687L42.0363 20.3837L40.4765 20.6474C39.2452 20.8231 38.0959 21.526 37.3571 22.6682L33.0062 29.3456L32.9241 29.4335L32.5137 30.0486L33.0062 29.5214L33.0883 29.4335L32.5137 30.0486L43.596 21.6138L46.1408 19.7687Z" fill="#18AAD1"/>
<path d="M34.5664 5.88673C34.5664 9.75259 28.3275 11.7734 28.3275 15.9029C28.2454 16.8694 28.4917 17.8358 28.9021 18.7145C28.9021 18.7145 26.5215 16.2543 26.5215 13.6185C26.5215 10.9827 28.82 7.02893 28.82 7.02893C28.82 8.78614 29.4768 9.31332 30.1335 9.40115H30.2156C30.9544 9.40115 31.3649 8.78614 31.3649 7.90751C31.3649 7.02893 30.4619 6.1503 30.4619 4.39309C30.4619 2.7237 32.4321 0 32.4321 0C33.8276 1.75723 34.5664 3.77804 34.5664 5.88673Z" fill="#2AD2FF"/>
<path d="M32.8423 19.9447C30.8722 19.9447 29.3945 18.2753 29.3945 16.2545V16.1667C29.3945 11.6857 35.223 11.2464 35.223 5.18396C35.3872 5.44753 36.9469 7.73193 36.9469 10.1921C36.9469 13.2672 34.2379 14.058 34.2379 15.5516C34.2379 16.1667 34.4842 16.6059 35.3051 16.6059C35.3872 16.6059 35.4693 16.6059 35.5514 16.5181C37.1111 15.8152 38.1783 14.2337 38.2604 12.3886C38.2604 12.4765 39.0813 19.9447 32.8423 19.9447Z" fill="#2AD2FF"/>
<path d="M35.3854 16.606C35.4675 16.606 35.5496 16.606 35.6317 16.5181C34.8108 16.7817 31.7734 17.5724 31.7734 15.288C31.7734 12.4765 36.2884 11.8614 36.2884 9.48918C36.2884 7.99554 35.9601 6.5019 35.2213 5.18396C35.3854 5.44753 36.9452 7.73193 36.9452 10.1921C36.9452 13.2672 34.2362 14.058 34.2362 15.5516C34.3183 16.1667 34.6466 16.606 35.3854 16.606Z" fill="#18AAD1"/>
<path d="M32.7813 7.46824C32.7813 9.66476 30.1544 9.48906 29.9902 9.40119H30.2365C30.9753 9.40119 31.3858 8.78618 31.3858 7.90755C31.3858 7.02893 30.4828 6.1503 30.4828 4.39309C30.4828 2.72371 32.453 0 32.453 0C31.7962 1.1422 31.4679 2.37226 31.3858 3.60233C31.3858 5.62316 32.7813 5.79886 32.7813 7.46824Z" fill="#18AAD1"/>
<path d="M31.3729 45.9574L29.4746 44.6061H31.8044L32.581 42.1734L33.2713 44.6061H35.6011L33.7027 45.9574L34.393 48.2999L32.4947 46.8584L30.5101 48.2999L31.3729 45.9574Z" fill="#2AD2FF"/>
<path d="M41.5155 45.9574L39.6172 44.6061H41.947L42.7236 42.1734L43.4139 44.6061H45.7437L43.8453 45.9574L44.5356 48.2999L42.6373 46.8584L40.6527 48.2999L41.5155 45.9574Z" fill="#2AD2FF"/>
<path d="M51.58 45.9574L49.6816 44.6061H52.0115L52.7882 42.1734L53.4783 44.6061H55.8081L53.9098 45.9574L54.5999 48.2999L52.7016 46.8584L50.717 48.2999L51.58 45.9574Z" fill="#2AD2FF"/>
<path d="M20.9491 45.9574L19.0508 44.6061H21.3806L22.1572 42.1734L22.8475 44.6061H25.1773L23.2789 45.9574L23.9692 48.2999L22.0709 46.8584L20.1725 48.2999L20.9491 45.9574Z" fill="#2AD2FF"/>
<path d="M10.8827 45.9574L8.98438 44.6061H11.3141L12.0908 42.1734L12.7811 44.6061H15.1109L13.2125 45.9574L13.9028 48.2999L12.0045 46.8584L10.1061 48.2999L10.8827 45.9574Z" fill="#2AD2FF"/>
<path d="M10.3508 57.1333V56.5333H11.5568C11.7688 56.5333 11.9328 56.4673 12.0488 56.3353C12.1648 56.2033 12.2228 56.0513 12.2228 55.8793C12.2228 55.7633 12.1968 55.6553 12.1448 55.5553C12.0928 55.4553 12.0168 55.3753 11.9168 55.3153C11.8168 55.2553 11.6968 55.2253 11.5568 55.2253H10.3508V54.6253H11.4548C11.6348 54.6253 11.7788 54.5793 11.8868 54.4873C11.9948 54.3953 12.0488 54.2593 12.0488 54.0793C12.0488 53.8993 11.9948 53.7633 11.8868 53.6713C11.7788 53.5793 11.6348 53.5333 11.4548 53.5333H10.3508V52.9333H11.4728C11.7568 52.9333 11.9928 52.9853 12.1808 53.0893C12.3688 53.1933 12.5088 53.3273 12.6008 53.4913C12.6928 53.6553 12.7388 53.8313 12.7388 54.0193C12.7388 54.2393 12.6768 54.4333 12.5528 54.6013C12.4328 54.7693 12.2548 54.9053 12.0188 55.0093L12.0728 54.7933C12.3368 54.9013 12.5428 55.0533 12.6908 55.2493C12.8388 55.4453 12.9128 55.6753 12.9128 55.9393C12.9128 56.1553 12.8588 56.3533 12.7508 56.5333C12.6468 56.7133 12.4908 56.8593 12.2828 56.9713C12.0788 57.0793 11.8268 57.1333 11.5268 57.1333H10.3508ZM9.87676 57.1333V52.9333H10.5668V57.1333H9.87676ZM13.6092 57.1333V52.9333H14.2992V57.1333H13.6092ZM14.0832 57.1333V56.5033H16.4352V57.1333H14.0832ZM14.0832 55.2913V54.6853H16.2312V55.2913H14.0832ZM14.0832 53.5633V52.9333H16.4052V53.5633H14.0832ZM18.2128 57.1933C17.8808 57.1933 17.5988 57.1333 17.3668 57.0133C17.1348 56.8933 16.9268 56.7173 16.7428 56.4853L17.2108 56.0173C17.3268 56.1853 17.4648 56.3173 17.6248 56.4133C17.7848 56.5053 17.9888 56.5513 18.2368 56.5513C18.4688 56.5513 18.6528 56.5033 18.7888 56.4073C18.9288 56.3113 18.9988 56.1793 18.9988 56.0113C18.9988 55.8713 18.9628 55.7573 18.8908 55.6693C18.8188 55.5813 18.7228 55.5093 18.6028 55.4533C18.4868 55.3933 18.3568 55.3413 18.2128 55.2973C18.0728 55.2493 17.9308 55.1973 17.7868 55.1413C17.6468 55.0813 17.5168 55.0073 17.3968 54.9193C17.2808 54.8313 17.1868 54.7173 17.1148 54.5773C17.0428 54.4373 17.0068 54.2593 17.0068 54.0433C17.0068 53.7953 17.0668 53.5853 17.1868 53.4133C17.3108 53.2373 17.4768 53.1033 17.6848 53.0113C17.8928 52.9193 18.1248 52.8733 18.3808 52.8733C18.6568 52.8733 18.9028 52.9273 19.1188 53.0353C19.3388 53.1433 19.5168 53.2813 19.6528 53.4493L19.1848 53.9173C19.0648 53.7813 18.9388 53.6813 18.8068 53.6173C18.6788 53.5493 18.5308 53.5153 18.3628 53.5153C18.1548 53.5153 17.9908 53.5573 17.8708 53.6413C17.7548 53.7253 17.6968 53.8433 17.6968 53.9953C17.6968 54.1233 17.7328 54.2273 17.8048 54.3073C17.8768 54.3833 17.9708 54.4493 18.0868 54.5053C18.2068 54.5573 18.3368 54.6073 18.4768 54.6553C18.6208 54.7033 18.7628 54.7573 18.9028 54.8173C19.0468 54.8773 19.1768 54.9553 19.2928 55.0513C19.4128 55.1433 19.5088 55.2633 19.5808 55.4113C19.6528 55.5593 19.6888 55.7453 19.6888 55.9693C19.6888 56.3453 19.5548 56.6433 19.2868 56.8633C19.0228 57.0833 18.6648 57.1933 18.2128 57.1933ZM21.2511 57.1333V53.0533H21.9411V57.1333H21.2511ZM19.8831 53.5633V52.9333H23.3091V53.5633H19.8831ZM26.0974 57.1333L24.7174 52.9333H25.3954L26.4334 56.1673H26.2534L27.2674 52.9333H27.7474L28.7614 56.1673H28.5814L29.6194 52.9333H30.2974L28.9174 57.1333H28.4374L27.4174 53.9053H27.5974L26.5774 57.1333H26.0974ZM30.9119 57.1333V52.9333H31.6019V57.1333H30.9119ZM31.3859 57.1333V56.5033H33.7379V57.1333H31.3859ZM31.3859 55.2913V54.6853H33.5339V55.2913H31.3859ZM31.3859 53.5633V52.9333H33.7079V53.5633H31.3859ZM34.925 57.1333V56.5333H36.131C36.343 56.5333 36.507 56.4673 36.623 56.3353C36.739 56.2033 36.797 56.0513 36.797 55.8793C36.797 55.7633 36.771 55.6553 36.719 55.5553C36.667 55.4553 36.591 55.3753 36.491 55.3153C36.391 55.2553 36.271 55.2253 36.131 55.2253H34.925V54.6253H36.029C36.209 54.6253 36.353 54.5793 36.461 54.4873C36.569 54.3953 36.623 54.2593 36.623 54.0793C36.623 53.8993 36.569 53.7633 36.461 53.6713C36.353 53.5793 36.209 53.5333 36.029 53.5333H34.925V52.9333H36.047C36.331 52.9333 36.567 52.9853 36.755 53.0893C36.943 53.1933 37.083 53.3273 37.175 53.4913C37.267 53.6553 37.313 53.8313 37.313 54.0193C37.313 54.2393 37.251 54.4333 37.127 54.6013C37.007 54.7693 36.829 54.9053 36.593 55.0093L36.647 54.7933C36.911 54.9013 37.117 55.0533 37.265 55.2493C37.413 55.4453 37.487 55.6753 37.487 55.9393C37.487 56.1553 37.433 56.3533 37.325 56.5333C37.221 56.7133 37.065 56.8593 36.857 56.9713C36.653 57.0793 36.401 57.1333 36.101 57.1333H34.925ZM34.451 57.1333V52.9333H35.141V57.1333H34.451ZM38.1834 57.1333V52.9333H38.8734V57.1333H38.1834ZM38.6574 55.3333V54.7033H40.7934V55.3333H38.6574ZM38.6574 53.5633V52.9333H40.8954V53.5633H38.6574ZM41.5818 57.1333V52.9333H42.2718V57.1333H41.5818ZM42.0558 57.1333V56.5033H44.2518V57.1333H42.0558ZM46.4904 57.1933C46.1904 57.1933 45.9104 57.1373 45.6504 57.0253C45.3904 56.9133 45.1624 56.7593 44.9664 56.5633C44.7704 56.3633 44.6164 56.1333 44.5044 55.8733C44.3964 55.6093 44.3424 55.3273 44.3424 55.0273C44.3424 54.7273 44.3964 54.4473 44.5044 54.1873C44.6164 53.9273 44.7684 53.6993 44.9604 53.5033C45.1564 53.3033 45.3824 53.1493 45.6384 53.0413C45.8984 52.9293 46.1784 52.8733 46.4784 52.8733C46.7784 52.8733 47.0564 52.9293 47.3124 53.0413C47.5724 53.1493 47.8004 53.3033 47.9964 53.5033C48.1924 53.6993 48.3444 53.9293 48.4524 54.1933C48.5644 54.4533 48.6204 54.7333 48.6204 55.0333C48.6204 55.3333 48.5644 55.6153 48.4524 55.8793C48.3444 56.1393 48.1924 56.3673 47.9964 56.5633C47.8044 56.7593 47.5784 56.9133 47.3184 57.0253C47.0624 57.1373 46.7864 57.1933 46.4904 57.1933ZM46.4784 56.5333C46.7624 56.5333 47.0104 56.4693 47.2224 56.3413C47.4384 56.2133 47.6064 56.0373 47.7264 55.8133C47.8504 55.5853 47.9124 55.3233 47.9124 55.0273C47.9124 54.8073 47.8764 54.6073 47.8044 54.4273C47.7364 54.2433 47.6384 54.0853 47.5104 53.9533C47.3824 53.8173 47.2304 53.7133 47.0544 53.6413C46.8824 53.5693 46.6904 53.5333 46.4784 53.5333C46.1984 53.5333 45.9504 53.5973 45.7344 53.7253C45.5224 53.8493 45.3544 54.0233 45.2304 54.2473C45.1104 54.4713 45.0504 54.7313 45.0504 55.0273C45.0504 55.2473 45.0844 55.4513 45.1524 55.6393C45.2244 55.8233 45.3224 55.9813 45.4464 56.1133C45.5744 56.2453 45.7264 56.3493 45.9024 56.4253C46.0784 56.4973 46.2704 56.5333 46.4784 56.5333ZM50.2204 57.1333L48.8404 52.9333H49.5184L50.5564 56.1673H50.3764L51.3904 52.9333H51.8704L52.8844 56.1673H52.7044L53.7424 52.9333H54.4204L53.0404 57.1333H52.5604L51.5404 53.9053H51.7204L50.7004 57.1333H50.2204ZM9.42746 65.1333L8.04746 60.9333H8.72546L9.76346 64.1673H9.58346L10.5975 60.9333H11.0775L12.0915 64.1673H11.9115L12.9495 60.9333H13.6275L12.2475 65.1333H11.7675L10.7475 61.9053H10.9275L9.90746 65.1333H9.42746ZM14.242 65.1333V60.9333H14.932V65.1333H14.242ZM14.716 65.1333V64.5033H17.068V65.1333H14.716ZM14.716 63.2913V62.6853H16.864V63.2913H14.716ZM14.716 61.5633V60.9333H17.038V61.5633H14.716ZM18.2551 65.1333V64.5333H19.4611C19.6731 64.5333 19.8371 64.4673 19.9531 64.3353C20.0691 64.2033 20.1271 64.0513 20.1271 63.8793C20.1271 63.7633 20.1011 63.6553 20.0491 63.5553C19.9971 63.4553 19.9211 63.3753 19.8211 63.3153C19.7211 63.2553 19.6011 63.2253 19.4611 63.2253H18.2551V62.6253H19.3591C19.5391 62.6253 19.6831 62.5793 19.7911 62.4873C19.8991 62.3953 19.9531 62.2593 19.9531 62.0793C19.9531 61.8993 19.8991 61.7633 19.7911 61.6713C19.6831 61.5793 19.5391 61.5333 19.3591 61.5333H18.2551V60.9333H19.3771C19.6611 60.9333 19.8971 60.9853 20.0851 61.0893C20.2731 61.1933 20.4131 61.3273 20.5051 61.4913C20.5971 61.6553 20.6431 61.8313 20.6431 62.0193C20.6431 62.2393 20.5811 62.4333 20.4571 62.6013C20.3371 62.7693 20.1591 62.9053 19.9231 63.0093L19.9771 62.7933C20.2411 62.9013 20.4471 63.0533 20.5951 63.2493C20.7431 63.4453 20.8171 63.6753 20.8171 63.9393C20.8171 64.1553 20.7631 64.3533 20.6551 64.5333C20.5511 64.7133 20.3951 64.8593 20.1871 64.9713C19.9831 65.0793 19.7311 65.1333 19.4311 65.1333H18.2551ZM17.7811 65.1333V60.9333H18.4711V65.1333H17.7811ZM22.6014 65.1933C22.2694 65.1933 21.9874 65.1333 21.7554 65.0133C21.5234 64.8933 21.3154 64.7173 21.1314 64.4853L21.5994 64.0173C21.7154 64.1853 21.8534 64.3173 22.0134 64.4133C22.1734 64.5053 22.3774 64.5513 22.6254 64.5513C22.8574 64.5513 23.0414 64.5033 23.1774 64.4073C23.3174 64.3113 23.3874 64.1793 23.3874 64.0113C23.3874 63.8713 23.3514 63.7573 23.2794 63.6693C23.2074 63.5813 23.1114 63.5093 22.9914 63.4533C22.8754 63.3933 22.7454 63.3413 22.6014 63.2973C22.4614 63.2493 22.3194 63.1973 22.1754 63.1413C22.0354 63.0813 21.9054 63.0073 21.7854 62.9193C21.6694 62.8313 21.5754 62.7173 21.5034 62.5773C21.4314 62.4373 21.3954 62.2593 21.3954 62.0433C21.3954 61.7953 21.4554 61.5853 21.5754 61.4133C21.6994 61.2373 21.8654 61.1033 22.0734 61.0113C22.2814 60.9193 22.5134 60.8733 22.7694 60.8733C23.0454 60.8733 23.2914 60.9273 23.5074 61.0353C23.7274 61.1433 23.9054 61.2813 24.0414 61.4493L23.5734 61.9173C23.4534 61.7813 23.3274 61.6813 23.1954 61.6173C23.0674 61.5493 22.9194 61.5153 22.7514 61.5153C22.5434 61.5153 22.3794 61.5573 22.2594 61.6413C22.1434 61.7253 22.0854 61.8433 22.0854 61.9953C22.0854 62.1233 22.1214 62.2273 22.1934 62.3073C22.2654 62.3833 22.3594 62.4493 22.4754 62.5053C22.5954 62.5573 22.7254 62.6073 22.8654 62.6553C23.0094 62.7033 23.1514 62.7573 23.2914 62.8173C23.4354 62.8773 23.5654 62.9553 23.6814 63.0513C23.8014 63.1433 23.8974 63.2633 23.9694 63.4113C24.0414 63.5593 24.0774 63.7453 24.0774 63.9693C24.0774 64.3453 23.9434 64.6433 23.6754 64.8633C23.4114 65.0833 23.0534 65.1933 22.6014 65.1933ZM24.7654 65.1333V60.9333H25.4554V65.1333H24.7654ZM27.421 65.1333V61.0533H28.111V65.1333H27.421ZM26.053 61.5633V60.9333H29.479V61.5633H26.053ZM30.0799 65.1333V60.9333H30.7699V65.1333H30.0799ZM30.5539 65.1333V64.5033H32.9059V65.1333H30.5539ZM30.5539 63.2913V62.6853H32.7019V63.2913H30.5539ZM30.5539 61.5633V60.9333H32.8759V61.5633H30.5539ZM35.2941 65.1333V64.5033H36.3981C36.6861 64.5033 36.9381 64.4413 37.1541 64.3173C37.3741 64.1933 37.5441 64.0213 37.6641 63.8013C37.7881 63.5773 37.8501 63.3193 37.8501 63.0273C37.8501 62.7393 37.7881 62.4853 37.6641 62.2653C37.5401 62.0453 37.3681 61.8733 37.1481 61.7493C36.9321 61.6253 36.6821 61.5633 36.3981 61.5633H35.2941V60.9333H36.4161C36.7201 60.9333 37.0021 60.9873 37.2621 61.0953C37.5221 61.1993 37.7481 61.3473 37.9401 61.5393C38.1361 61.7273 38.2881 61.9493 38.3961 62.2053C38.5041 62.4573 38.5581 62.7333 38.5581 63.0333C38.5581 63.3293 38.5041 63.6053 38.3961 63.8613C38.2881 64.1173 38.1381 64.3413 37.9461 64.5333C37.7541 64.7213 37.5281 64.8693 37.2681 64.9773C37.0081 65.0813 36.7281 65.1333 36.4281 65.1333H35.2941ZM34.8201 65.1333V60.9333H35.5101V65.1333H34.8201ZM39.2615 65.1333V60.9333H39.9515V65.1333H39.2615ZM39.7355 65.1333V64.5033H42.0875V65.1333H39.7355ZM39.7355 63.2913V62.6853H41.8835V63.2913H39.7355ZM39.7355 61.5633V60.9333H42.0575V61.5633H39.7355ZM43.8651 65.1933C43.5331 65.1933 43.2511 65.1333 43.0191 65.0133C42.7871 64.8933 42.5791 64.7173 42.3951 64.4853L42.8631 64.0173C42.9791 64.1853 43.1171 64.3173 43.2771 64.4133C43.4371 64.5053 43.6411 64.5513 43.8891 64.5513C44.1211 64.5513 44.3051 64.5033 44.4411 64.4073C44.5811 64.3113 44.6511 64.1793 44.6511 64.0113C44.6511 63.8713 44.6151 63.7573 44.5431 63.6693C44.4711 63.5813 44.3751 63.5093 44.2551 63.4533C44.1391 63.3933 44.0091 63.3413 43.8651 63.2973C43.7251 63.2493 43.5831 63.1973 43.4391 63.1413C43.2991 63.0813 43.1691 63.0073 43.0491 62.9193C42.9331 62.8313 42.8391 62.7173 42.7671 62.5773C42.6951 62.4373 42.6591 62.2593 42.6591 62.0433C42.6591 61.7953 42.7191 61.5853 42.8391 61.4133C42.9631 61.2373 43.1291 61.1033 43.3371 61.0113C43.5451 60.9193 43.7771 60.8733 44.0331 60.8733C44.3091 60.8733 44.5551 60.9273 44.7711 61.0353C44.9911 61.1433 45.1691 61.2813 45.3051 61.4493L44.8371 61.9173C44.7171 61.7813 44.5911 61.6813 44.4591 61.6173C44.3311 61.5493 44.1831 61.5153 44.0151 61.5153C43.8071 61.5153 43.6431 61.5573 43.5231 61.6413C43.4071 61.7253 43.3491 61.8433 43.3491 61.9953C43.3491 62.1233 43.3851 62.2273 43.4571 62.3073C43.5291 62.3833 43.6231 62.4493 43.7391 62.5053C43.8591 62.5573 43.9891 62.6073 44.1291 62.6553C44.2731 62.7033 44.4151 62.7573 44.5551 62.8173C44.6991 62.8773 44.8291 62.9553 44.9451 63.0513C45.0651 63.1433 45.1611 63.2633 45.2331 63.4113C45.3051 63.5593 45.3411 63.7453 45.3411 63.9693C45.3411 64.3453 45.2071 64.6433 44.9391 64.8633C44.6751 65.0833 44.3171 65.1933 43.8651 65.1933ZM46.0291 65.1333V60.9333H46.7191V65.1333H46.0291ZM49.5247 65.1933C49.2367 65.1933 48.9647 65.1373 48.7087 65.0253C48.4527 64.9133 48.2287 64.7593 48.0367 64.5633C47.8447 64.3633 47.6927 64.1333 47.5807 63.8733C47.4727 63.6093 47.4187 63.3273 47.4187 63.0273C47.4187 62.7273 47.4727 62.4473 47.5807 62.1873C47.6927 61.9273 47.8447 61.6993 48.0367 61.5033C48.2327 61.3033 48.4607 61.1493 48.7207 61.0413C48.9847 60.9293 49.2687 60.8733 49.5727 60.8733C49.9047 60.8733 50.2127 60.9373 50.4967 61.0653C50.7807 61.1933 51.0187 61.3753 51.2107 61.6113L50.7427 62.0793C50.6187 61.9033 50.4527 61.7693 50.2447 61.6773C50.0367 61.5813 49.8127 61.5333 49.5727 61.5333C49.2847 61.5333 49.0307 61.5973 48.8107 61.7253C48.5947 61.8493 48.4267 62.0233 48.3067 62.2473C48.1867 62.4713 48.1267 62.7313 48.1267 63.0273C48.1267 63.3233 48.1867 63.5853 48.3067 63.8133C48.4307 64.0373 48.5967 64.2133 48.8047 64.3413C49.0127 64.4693 49.2487 64.5333 49.5127 64.5333C49.7927 64.5333 50.0327 64.4833 50.2327 64.3833C50.4367 64.2793 50.5927 64.1273 50.7007 63.9273C50.8087 63.7233 50.8627 63.4733 50.8627 63.1773L51.2947 63.4893H49.5007V62.8593H51.5767V62.9553C51.5767 63.4553 51.4867 63.8713 51.3067 64.2033C51.1307 64.5353 50.8887 64.7833 50.5807 64.9473C50.2727 65.1113 49.9207 65.1933 49.5247 65.1933ZM52.2635 65.1333V60.9333H52.7435L52.9535 61.7253V65.1333H52.2635ZM55.1735 65.1333L52.6595 61.8513L52.7435 60.9333L55.2575 64.2153L55.1735 65.1333ZM55.1735 65.1333L54.9635 64.3953V60.9333H55.6535V65.1333H55.1735Z" fill="#333333"/>
</svg>
