<svg width="343" height="348" viewBox="0 0 343 348" fill="none" xmlns="http://www.w3.org/2000/svg">
<path fill-rule="evenodd" clip-rule="evenodd" d="M92.4435 325.406C118.346 336.929 144.732 352.12 173.119 346.762C201.392 341.426 219.779 313.685 243.954 296.81C272.749 276.711 312.204 269.67 328.809 238.088C345.97 205.448 345.98 163.196 331.27 130.739C317.104 99.4834 278.213 92.9386 252.957 70.7318C227.914 48.7118 216.372 7.53929 183.735 1.01429C151.04 -5.52171 120.135 21.0112 90.1652 38.187C61.904 54.3836 31.078 69.2433 14.4466 98.0339C-1.9474 126.413 -0.613406 160.62 0.750194 192.973C2.04209 223.626 5.1786 255.141 22.0978 279.578C38.5827 303.387 66.3788 313.811 92.4435 325.406Z" fill="#D6EBDC"/>
</svg>
