<svg width="56" height="80" viewBox="0 0 56 80" fill="none" xmlns="http://www.w3.org/2000/svg">
<path d="M51.1587 77.5385H55.7133L54.0099 73.2308L55.7133 68.9231H49.3125L51.1587 70.9744V77.5385Z" fill="#0460B5"/>
<path d="M4.84159 77.5385H0.287109L1.99042 73.2308L0.287109 68.9231H6.68779L4.84159 70.9744V77.5385Z" fill="#0460B5"/>
<path d="M50.339 71.3846H5.62109V80H50.339V71.3846Z" fill="#0460B5"/>
<path d="M11.6248 74.4799C11.8485 74.5919 12.035 74.7786 12.1469 74.9649C12.2588 75.1889 12.3334 75.4498 12.3334 75.6738C12.3334 75.9347 12.2588 76.1583 12.1469 76.3823C12.035 76.6059 11.8485 76.7552 11.6248 76.8672C11.401 76.9788 11.1399 77.0535 10.8788 77.0535H9.72266V74.2563H10.8788C11.1399 74.2937 11.401 74.331 11.6248 74.4799ZM11.3637 76.4943C11.5129 76.4196 11.6248 76.3076 11.6994 76.1583C11.8485 75.86 11.8485 75.4871 11.6994 75.1889C11.6248 75.0395 11.5129 74.9275 11.3637 74.8533C11.2145 74.7786 11.0653 74.7413 10.8788 74.7413H10.2448V76.6059H10.8788C11.028 76.6059 11.2145 76.5686 11.3637 76.4943Z" fill="white"/>
<path d="M12.7812 74.2938H14.8325V74.7414H13.3407V75.4499H14.6834V75.8975H13.3407V76.606H14.9072V77.0536H12.7812V74.2938Z" fill="white"/>
<path d="M16.7719 74.8161C16.66 74.7787 16.5108 74.7414 16.3616 74.7414C16.2498 74.7414 16.1378 74.7787 16.0632 74.8161C15.9887 74.853 15.9514 74.9277 15.9514 75.0023C15.9514 75.077 15.9887 75.1517 16.026 75.189C16.0632 75.2263 16.1378 75.3006 16.2125 75.3006C16.3243 75.3379 16.4362 75.3753 16.5481 75.4126C16.6973 75.4499 16.8465 75.5246 16.9956 75.5619C17.1076 75.6366 17.2194 75.7108 17.294 75.8228C17.3686 75.9348 17.4432 76.0838 17.4059 76.2704C17.4059 76.4198 17.3686 76.606 17.2567 76.718C17.1448 76.83 17.033 76.9416 16.8838 77.0163C16.6973 77.091 16.5108 77.1283 16.3243 77.1283C16.1005 77.1283 15.8768 77.091 15.6903 77.0163C15.5038 76.9416 15.3173 76.83 15.1309 76.6807L15.3546 76.2331C15.5038 76.3451 15.653 76.4571 15.8395 76.5314C15.9887 76.606 16.1751 76.6434 16.3243 76.6434C16.4362 76.6434 16.5854 76.606 16.66 76.5687C16.8092 76.494 16.8092 76.3078 16.7346 76.1584L16.6973 76.1211C16.6227 76.0838 16.5854 76.0095 16.5108 76.0095C16.4362 75.9722 16.3243 75.9348 16.1751 75.8975C16.026 75.8602 15.8768 75.7855 15.7276 75.7482C15.6157 75.7108 15.5038 75.5993 15.4292 75.5246C15.3546 75.4126 15.28 75.2633 15.3173 75.1143C15.3173 74.965 15.3546 74.8161 15.4292 74.7041C15.5411 74.5921 15.653 74.4801 15.8022 74.4058C15.9887 74.3312 16.1751 74.2938 16.3616 74.2938C16.5481 74.2938 16.7346 74.3312 16.8838 74.3685C17.033 74.4058 17.2194 74.4801 17.3686 74.5921L17.1448 75.0397C17.0703 74.9277 16.9211 74.853 16.7719 74.8161Z" fill="white"/>
<path d="M17.9648 74.2938H18.487V77.0909H17.9648V74.2938Z" fill="white"/>
<path d="M21.0615 75.6738H21.509V76.7552C21.3598 76.8672 21.1733 76.9415 20.9868 77.0161C20.8004 77.0908 20.6139 77.1281 20.3901 77.1281C20.129 77.1281 19.868 77.0535 19.6442 76.9415C19.4204 76.8299 19.2339 76.6432 19.122 76.4196C18.9728 76.1956 18.9355 75.9347 18.9355 75.6738C18.9355 75.4125 19.0102 75.1515 19.122 74.9649C19.2712 74.7413 19.4577 74.5546 19.6815 74.443C19.9053 74.331 20.1663 74.2563 20.4274 74.2563C20.6139 74.2563 20.8377 74.2937 21.0241 74.3683C21.2106 74.443 21.3971 74.5173 21.509 74.6666L21.2106 75.0769C21.0987 74.9649 20.9868 74.8902 20.8377 74.8533C20.6885 74.8159 20.5766 74.7786 20.4274 74.7786C20.2409 74.7786 20.0917 74.8159 19.9426 74.8902C19.495 75.1515 19.3458 75.748 19.6069 76.1956C19.7934 76.4943 20.0917 76.6806 20.4274 76.6806C20.5393 76.6806 20.6139 76.6806 20.7258 76.6432C20.8377 76.6059 20.9495 76.5686 21.0241 76.4943L21.0615 75.6738Z" fill="white"/>
<path d="M24.1191 74.2938H24.6412V77.0909H24.1564L22.7018 75.1517V77.0909H22.1797V74.2938H22.7018L24.1564 76.2331L24.1191 74.2938Z" fill="white"/>
<path d="M27.0654 77.0909L26.5806 76.2703H25.8347V77.0909H25.3125V74.2937H26.4687C26.7671 74.2564 27.0654 74.3684 27.3265 74.5173C27.513 74.704 27.6249 74.9649 27.6249 75.2262C27.6249 75.4125 27.5876 75.5992 27.4757 75.7854C27.3638 75.9348 27.2146 76.0468 27.0654 76.121L27.6995 77.0535L27.0654 77.0909ZM25.8347 75.7854H26.4687C26.6552 75.7854 26.8044 75.7481 26.9535 75.6365C27.0654 75.5245 27.1027 75.4125 27.1027 75.2636C27.1027 75.1142 27.0654 74.9649 26.9535 74.8902C26.8044 74.816 26.6552 74.7413 26.506 74.7787H25.8347V75.7854Z" fill="white"/>
<path d="M28.8553 76.4571C29.0045 76.5687 29.1909 76.6434 29.3401 76.6434C29.5266 76.6434 29.7131 76.5687 29.825 76.4571C29.9369 76.3078 30.0114 76.1211 30.0114 75.9348V74.2938H30.5336V75.9348C30.5336 76.1584 30.4963 76.3824 30.3844 76.5687C30.2725 76.7554 30.1234 76.9043 29.9742 76.979C29.7877 77.091 29.5639 77.1283 29.3401 77.1283C29.1163 77.1283 28.8926 77.091 28.6688 76.979C28.4823 76.9043 28.3331 76.7554 28.2585 76.5687C28.1467 76.3824 28.1094 76.1584 28.1094 75.9348V74.2938H28.6315V75.9348C28.6688 76.1211 28.7434 76.3078 28.8553 76.4571Z" fill="white"/>
<path d="M32.5492 74.8161C32.4374 74.7787 32.2881 74.7414 32.139 74.7414C32.0271 74.7414 31.9152 74.7787 31.8406 74.8161C31.766 74.853 31.7287 74.9277 31.7287 75.0023C31.7287 75.077 31.766 75.1517 31.8033 75.189C31.8406 75.2263 31.9152 75.3006 31.9898 75.3006C32.1017 75.3379 32.2136 75.3753 32.3254 75.4126C32.4746 75.4499 32.6238 75.5246 32.773 75.5619C32.8849 75.6366 32.9968 75.7108 33.0714 75.8228C33.1459 75.9348 33.2206 76.0838 33.1833 76.2704C33.1833 76.4198 33.1459 76.606 33.0341 76.718C32.9222 76.83 32.8103 76.9416 32.6611 77.0163C32.4746 77.091 32.2881 77.1283 32.1017 77.1283C31.8779 77.1283 31.6541 77.091 31.4676 77.0163C31.2812 76.9416 31.0947 76.83 30.9082 76.6807L31.132 76.2331C31.2812 76.3451 31.4303 76.4571 31.6168 76.5314C31.766 76.606 31.9525 76.6434 32.1017 76.6434C32.2136 76.6434 32.3628 76.606 32.4374 76.5687C32.5865 76.494 32.5865 76.3078 32.5119 76.1584L32.4746 76.1211C32.4001 76.0838 32.3628 76.0095 32.2881 76.0095C32.2136 75.9722 32.1017 75.9348 31.9525 75.8975C31.8033 75.8602 31.6541 75.7855 31.5049 75.7482C31.393 75.7108 31.2812 75.5993 31.2066 75.5246C31.132 75.4126 31.0574 75.2633 31.0947 75.1143C31.0947 74.965 31.132 74.8161 31.2066 74.7041C31.3185 74.5921 31.4303 74.4801 31.5795 74.4058C31.766 74.3312 31.9525 74.2938 32.139 74.2938C32.3254 74.2938 32.5119 74.3312 32.6611 74.3685C32.8103 74.4058 32.9968 74.4801 33.1459 74.5921L32.9222 75.0397C32.8476 74.9277 32.6984 74.853 32.5492 74.8161Z" fill="white"/>
<path d="M33.7422 74.2938H34.2643V75.4873H35.6443V74.2938H36.1664V77.0909H35.6443V75.9722H34.2643V77.0909H33.7422V74.2938Z" fill="white"/>
<path d="M37.1722 76.606C37.2094 76.6434 37.2467 76.718 37.2467 76.83C37.2467 76.9047 37.2094 76.979 37.1722 77.0536C37.1349 77.091 37.0603 77.1283 36.9857 77.1283C36.9111 77.1283 36.8365 77.091 36.7992 77.0536C36.7619 76.979 36.7246 76.9047 36.7246 76.83C36.7246 76.7554 36.7619 76.6807 36.7992 76.606C36.8365 76.5687 36.9111 76.5314 36.9857 76.5314C37.0603 76.5314 37.1349 76.5687 37.1722 76.606Z" fill="white"/>
<path d="M38.6643 75.3752C38.515 75.3752 38.3659 75.4499 38.254 75.5619C38.1421 75.6735 38.1048 75.8601 38.1048 76.0095C38.1048 76.1957 38.1421 76.3451 38.254 76.4566C38.3659 76.5686 38.515 76.6433 38.6643 76.6433C38.888 76.6433 39.1118 76.5686 39.2237 76.3824L39.5594 76.6433C39.4475 76.7926 39.3356 76.9042 39.1864 76.9789C38.9999 77.0536 38.8134 77.0909 38.627 77.0909C38.4405 77.0909 38.254 77.0536 38.0675 76.9416C37.9183 76.8669 37.7691 76.718 37.6945 76.5686C37.5081 76.233 37.5081 75.7855 37.6945 75.4499C37.7691 75.3005 37.9183 75.1516 38.0675 75.0769C38.254 75.0023 38.4405 74.9276 38.627 74.9276C38.8134 74.9276 38.9999 74.9649 39.1491 75.0396C39.2983 75.1143 39.4101 75.1889 39.5221 75.3379L39.2237 75.6361C39.1118 75.4872 38.888 75.3752 38.6643 75.3752Z" fill="white"/>
<path d="M41.4619 75.0769C41.6112 75.1516 41.7601 75.3005 41.8721 75.4499C41.9841 75.6361 42.0215 75.8228 42.0215 76.0095C42.0215 76.1957 41.9841 76.4197 41.8721 76.5686C41.7601 76.718 41.6486 76.8669 41.4619 76.9416C41.2754 77.0162 41.089 77.0909 40.8652 77.0909C40.6414 77.0909 40.4549 77.0536 40.2684 76.9416C40.1192 76.8669 39.9701 76.718 39.8582 76.5686C39.7463 76.3824 39.709 76.1957 39.709 76.0095C39.709 75.8228 39.7463 75.5992 39.8582 75.4499C39.9701 75.3005 40.0819 75.1516 40.2684 75.0769C40.4549 74.9649 40.6414 74.9276 40.8652 74.9276C41.089 74.9276 41.2754 74.9649 41.4619 75.0769ZM40.4549 75.5619C40.2311 75.8228 40.2311 76.233 40.4549 76.494C40.5668 76.606 40.716 76.6806 40.9025 76.6806C41.0516 76.6806 41.2381 76.606 41.3499 76.494C41.5739 76.233 41.5739 75.8228 41.3499 75.5619C41.2381 75.4499 41.089 75.3752 40.9025 75.3752C40.716 75.3752 40.5668 75.4125 40.4549 75.5619Z" fill="white"/>
<path d="M45.8252 75.1516C45.9746 75.3005 46.0492 75.5245 46.0492 75.7481V77.0909H45.527V75.8974C45.527 75.7481 45.4897 75.6365 45.415 75.5245C45.3407 75.4499 45.1914 75.3752 45.0794 75.3752C44.9305 75.3752 44.7811 75.4499 44.6691 75.5619C44.5571 75.6739 44.5202 75.8228 44.5202 76.0094V77.0535H43.998V75.8974C43.998 75.7481 43.9606 75.6365 43.886 75.5245C43.8113 75.4499 43.6624 75.3752 43.5504 75.3752C43.401 75.3752 43.2521 75.4499 43.1401 75.5619C43.0281 75.6739 42.9908 75.8601 43.0281 76.0094V77.0535H42.5059V74.9276H43.0281V75.3378C43.2895 74.9276 43.8486 74.816 44.2589 75.0396C44.3709 75.1143 44.4829 75.2632 44.5202 75.4125C44.6318 75.0769 44.9674 74.8903 45.3034 74.8903C45.4897 74.8903 45.6763 75.0023 45.8252 75.1516Z" fill="white"/>
<path d="M24.142 53.3334V49.6312H25.4679V48.9551H22.048V49.6312H23.374V53.3334H24.142ZM28 53.4122C29.3063 53.4122 30.2384 52.4538 30.2384 51.1475C30.2384 49.8413 29.3063 48.8829 28 48.8829C26.6872 48.8829 25.7617 49.8413 25.7617 51.1475C25.7617 52.4538 26.6872 53.4122 28 53.4122ZM28 52.7295C27.1139 52.7295 26.5494 52.0468 26.5494 51.1475C26.5494 50.2417 27.1139 49.5656 28 49.5656C28.8796 49.5656 29.4507 50.2417 29.4507 51.1475C29.4507 52.0468 28.8796 52.7295 28 52.7295ZM31.7393 53.3334V51.6924H32.9011C33.8135 51.6924 34.3255 51.0688 34.3255 50.327C34.3255 49.5787 33.8201 48.9551 32.9011 48.9551H30.9713V53.3334H31.7393ZM32.7961 51.0163H31.7393V49.6312H32.7961C33.2293 49.6312 33.5379 49.9069 33.5379 50.327C33.5379 50.7406 33.2293 51.0163 32.7961 51.0163ZM15.7226 60.7968C16.6022 60.7968 17.147 60.3307 17.4818 59.8056L16.8254 59.4774C16.6153 59.8384 16.1886 60.1141 15.7226 60.1141C14.8561 60.1141 14.2128 59.4446 14.2128 58.5322C14.2128 57.6066 14.8561 56.9502 15.7226 56.9502C16.1886 56.9502 16.6153 57.2193 16.8254 57.5869L17.4752 57.2456C17.1536 56.7205 16.6022 56.2675 15.7226 56.2675C14.4295 56.2675 13.4252 57.18 13.4252 58.5322C13.4252 59.8778 14.4295 60.7968 15.7226 60.7968ZM21.4835 60.718L20.407 58.9982C20.9387 58.9129 21.4507 58.4862 21.4507 57.7117C21.4507 56.8977 20.8796 56.3398 20.0131 56.3398H18.0899V60.718H18.8579V59.0836H19.6259L20.5908 60.718H21.4835ZM19.9147 58.4074H18.8579V57.0159H19.9147C20.3479 57.0159 20.663 57.285 20.663 57.7051C20.663 58.1318 20.3479 58.4074 19.9147 58.4074ZM25.2179 60.718V60.0419H22.9861V58.821H25.1719V58.1449H22.9861V57.0159H25.2179V56.3398H22.2181V60.718H25.2179ZM29.9516 60.718L28.2318 56.3398H27.2734L25.5536 60.718H26.4266L26.7483 59.8712H28.7569L29.0785 60.718H29.9516ZM28.5403 59.1951H26.9649L27.7526 57.1078L28.5403 59.1951ZM31.8054 60.718V57.0159H33.1313V56.3398H29.7114V57.0159H31.0374V60.718H31.8054ZM34.5502 60.718V56.3398H33.7822V60.718H34.5502ZM37.7061 60.718L39.4259 56.3398H38.5529L37.2269 59.8778L35.901 56.3398H35.0279L36.7477 60.718H37.7061ZM42.8973 60.718V60.0419H40.6656V58.821H42.8514V58.1449H40.6656V57.0159H42.8973V56.3398H39.8976V60.718H42.8973ZM16.9644 68.1026L15.2446 63.7244H14.2862L12.5664 68.1026H13.4394L13.7611 67.2559H15.7697L16.0913 68.1026H16.9644ZM15.5531 66.5798H13.9777L14.7654 64.4924L15.5531 66.5798ZM19.3123 68.188C20.0672 68.188 20.6842 67.8663 21.1109 67.3871V65.7527H19.0366V66.4288H20.3495V67.1049C20.1525 67.2952 19.7587 67.4987 19.3123 67.4987C18.4459 67.4987 17.8026 66.8292 17.8026 65.9168C17.8026 64.9912 18.4459 64.3348 19.3123 64.3348C19.7981 64.3348 20.2116 64.5908 20.4479 64.919L21.0715 64.558C20.7236 64.0591 20.1657 63.6522 19.3123 63.6522C18.0389 63.6522 17.0149 64.5383 17.0149 65.9168C17.0149 67.2887 18.0389 68.188 19.3123 68.188ZM24.9102 68.1026V67.4265H22.6784V66.2056H24.8642V65.5295H22.6784V64.4005H24.9102V63.7244H21.9104V68.1026H24.9102ZM29.4929 68.1026V63.7244H28.7249V66.757L26.4865 63.7244H25.6988V68.1026H26.4668V64.9715L28.7511 68.1026H29.4929ZM32.5303 68.1814C33.4099 68.1814 33.9547 67.7153 34.2894 67.1902L33.633 66.862C33.423 67.223 32.9963 67.4987 32.5303 67.4987C31.6638 67.4987 31.0205 66.8292 31.0205 65.9168C31.0205 64.9912 31.6638 64.3348 32.5303 64.3348C32.9963 64.3348 33.423 64.604 33.633 64.9715L34.2829 64.6302C33.9612 64.1051 33.4099 63.6522 32.5303 63.6522C31.2371 63.6522 30.2328 64.5646 30.2328 65.9168C30.2328 67.2624 31.2371 68.1814 32.5303 68.1814ZM35.6656 68.1026V63.7244H34.8976V68.1026H35.6656ZM39.5961 68.1026V67.4265H37.3643V66.2056H39.5501V65.5295H37.3643V64.4005H39.5961V63.7244H36.5963V68.1026H39.5961ZM41.8881 68.1814C43.0631 68.1814 43.5816 67.5512 43.5816 66.8226C43.5816 65.1947 41.0346 65.7002 41.0346 64.8797C41.0346 64.558 41.3236 64.3348 41.7699 64.3348C42.2294 64.3348 42.6955 64.4924 43.0434 64.8403L43.4766 64.2692C43.0762 63.8753 42.5182 63.6522 41.8421 63.6522C40.8771 63.6522 40.2469 64.2101 40.2469 64.9387C40.2469 66.5469 42.7939 65.9759 42.7939 66.8948C42.7939 67.1902 42.5511 67.4987 41.9209 67.4987C41.3103 67.4987 40.8311 67.2099 40.5357 66.8883L40.1025 67.4856C40.4963 67.8926 41.0805 68.1814 41.8881 68.1814Z" fill="#333333"/>
<path d="M28.0883 28.1706C28.0114 28.0882 28.0114 28.1706 28.0883 28.1706L27.7035 27.9235L27.6266 27.8411L18.5452 20.922C18.5452 20.922 18.4683 20.922 18.4683 20.8396L18.3143 20.6749L18.2374 20.5925H18.0835L15.4668 18.6156L20.6231 19.4393C20.854 19.4393 20.931 19.5217 21.1619 19.6041C21.2388 19.6041 21.3927 19.6864 21.3927 19.6864C21.6236 19.7688 21.7006 19.8512 21.8545 19.9335C22.0085 20.0159 22.0854 20.0983 22.2393 20.1806C22.3163 20.263 22.4702 20.3454 22.4702 20.4277C22.5472 20.5101 22.6241 20.5101 22.7011 20.5925C22.855 20.6749 22.9319 20.7572 22.9319 20.8396C23.1628 21.0867 23.3168 21.3338 23.5477 21.4986L27.6266 27.6763L27.7035 27.7587L28.0883 28.1706Z" fill="#18AAD1"/>
<path d="M28.0875 37.7255L27.7027 37.0666L27.6258 36.9842L15.543 18.6156L18.1596 20.5925L18.6214 20.922L27.7027 27.8411H27.7797L28.0875 28.0882C28.0875 28.0882 28.1645 28.0882 28.1645 28.1706L28.5493 27.8411L40.786 18.6156L28.4723 37.0666L28.3954 37.1489L28.0875 37.7255Z" fill="#2AD2FF"/>
<path d="M28.0883 25.0405L27.7034 24.3815L27.6265 24.2992L24.625 19.8512L27.6265 20.5101H27.7034L28.0883 20.5925L28.473 20.5101L31.3976 19.7688L28.473 24.3815V24.4639L28.0883 25.0405Z" fill="#18AAD1"/>
<path d="M40.8633 18.5332L37.0153 19.1098L35.553 19.3569C34.3987 19.5216 33.3212 20.1806 32.6286 21.2514L28.5496 27.5115L28.4727 27.5939L28.0879 28.1705L28.5496 27.6763L28.6266 27.5939L28.0879 28.1705L38.4776 20.263L40.8633 18.5332Z" fill="#18AAD1"/>
<path d="M30.0128 5.51881C30.0128 9.14306 24.1638 11.0376 24.1638 14.909C24.0869 15.8151 24.3178 16.7211 24.7025 17.5448C24.7025 17.5448 22.4707 15.2384 22.4707 12.7673C22.4707 10.2962 24.6256 6.58962 24.6256 6.58962C24.6256 8.23701 25.2413 8.73124 25.857 8.81358H25.9339C26.6266 8.81358 27.0114 8.23701 27.0114 7.41329C27.0114 6.58962 26.1648 5.76591 26.1648 4.11852C26.1648 2.55347 28.0119 0 28.0119 0C29.3202 1.6474 30.0128 3.54191 30.0128 5.51881Z" fill="#2AD2FF"/>
<path d="M28.3964 18.6982C26.5493 18.6982 25.1641 17.1331 25.1641 15.2386V15.1563C25.1641 10.9554 30.6282 10.5435 30.6282 4.85999C30.7822 5.10708 32.2444 7.2487 32.2444 9.55508C32.2444 12.438 29.7047 13.1794 29.7047 14.5797C29.7047 15.1563 29.9356 15.5681 30.7052 15.5681C30.7822 15.5681 30.8591 15.5681 30.9361 15.4857C32.3983 14.8268 33.3988 13.3441 33.4758 11.6143C33.4758 11.6967 34.2454 18.6982 28.3964 18.6982Z" fill="#2AD2FF"/>
<path d="M30.7808 15.5681C30.8578 15.5681 30.9347 15.5681 31.0116 15.4858C30.242 15.7328 27.3945 16.4742 27.3945 14.3326C27.3945 11.6967 31.6274 11.1201 31.6274 8.89613C31.6274 7.49584 31.3195 6.09555 30.6269 4.85999C30.7808 5.10708 32.243 7.2487 32.243 9.55508C32.243 12.438 29.7033 13.1794 29.7033 14.5797C29.7803 15.1563 30.0881 15.5681 30.7808 15.5681Z" fill="#18AAD1"/>
<path d="M28.3393 7.00148C28.3393 9.06072 25.8766 8.896 25.7227 8.81362H25.9535C26.6462 8.81362 27.031 8.23705 27.031 7.41333C27.031 6.58962 26.1844 5.76591 26.1844 4.11852C26.1844 2.55348 28.0315 0 28.0315 0C27.4158 1.07081 27.1079 2.224 27.031 3.37718C27.031 5.27171 28.3393 5.43643 28.3393 7.00148Z" fill="#18AAD1"/>
<path d="M27.0199 43.0851L25.2402 41.8182H27.4244L28.1525 39.5376L28.7996 41.8182H30.9838L29.2041 43.0851L29.8513 45.2812L28.0716 43.9298L26.211 45.2812L27.0199 43.0851Z" fill="#2AD2FF"/>
<path d="M36.5297 43.0851L34.75 41.8182H36.9342L37.6622 39.5376L38.3094 41.8182H40.4936L38.7139 43.0851L39.361 45.2812L37.5813 43.9298L35.7208 45.2812L36.5297 43.0851Z" fill="#2AD2FF"/>
<path d="M45.9633 43.0851L44.1836 41.8182H46.3678L47.096 39.5376L47.743 41.8182H49.9272L48.1475 43.0851L48.7945 45.2812L47.0148 43.9298L45.1543 45.2812L45.9633 43.0851Z" fill="#2AD2FF"/>
<path d="M17.2465 43.0851L15.4668 41.8182H17.651L18.379 39.5376L19.0262 41.8182H21.2104L19.4307 43.0851L20.0778 45.2812L18.2981 43.9298L16.5184 45.2812L17.2465 43.0851Z" fill="#2AD2FF"/>
<path d="M7.81094 43.0851L6.03125 41.8182H8.21541L8.9435 39.5376L9.59068 41.8182H11.7748L9.99515 43.0851L10.6423 45.2812L8.86259 43.9298L7.0829 45.2812L7.81094 43.0851Z" fill="#2AD2FF"/>
</svg>
