<svg width="56" height="81" viewBox="0 0 56 81" fill="none" xmlns="http://www.w3.org/2000/svg">
<g id="Group 2188">
<path id="Vector" d="M51.1587 78.0385H55.7133L54.0099 73.7308L55.7133 69.4231H49.3125L51.1587 71.4744V78.0385Z" fill="#0460B5"/>
<path id="Vector_2" d="M4.8411 78.0385H0.286621L1.98993 73.7308L0.286621 69.4231H6.6873L4.8411 71.4744V78.0385Z" fill="#0460B5"/>
<path id="Vector_3" d="M50.3376 71.8846H5.61963V80.5H50.3376V71.8846Z" fill="#0460B5"/>
<path id="Vector_4" d="M11.6248 74.98C11.8485 75.092 12.035 75.2787 12.1469 75.4649C12.2588 75.6889 12.3334 75.9498 12.3334 76.1738C12.3334 76.4348 12.2588 76.6584 12.1469 76.8824C12.035 77.1059 11.8485 77.2553 11.6248 77.3673C11.401 77.4789 11.1399 77.5535 10.8788 77.5535H9.72266V74.7564H10.8788C11.1399 74.7937 11.401 74.8311 11.6248 74.98ZM11.3637 76.9944C11.5129 76.9197 11.6248 76.8077 11.6994 76.6584C11.8485 76.3601 11.8485 75.9872 11.6994 75.6889C11.6248 75.5396 11.5129 75.4276 11.3637 75.3533C11.2145 75.2787 11.0653 75.2413 10.8788 75.2413H10.2448V77.1059H10.8788C11.028 77.1059 11.2145 77.0686 11.3637 76.9944Z" fill="white"/>
<path id="Vector_5" d="M12.7808 74.7938H14.832V75.2414H13.3402V75.9499H14.6829V76.3975H13.3402V77.106H14.9067V77.5536H12.7808V74.7938Z" fill="white"/>
<path id="Vector_6" d="M16.7709 75.316C16.659 75.2787 16.5098 75.2414 16.3607 75.2414C16.2488 75.2414 16.1369 75.2787 16.0623 75.316C15.9877 75.3529 15.9504 75.4276 15.9504 75.5023C15.9504 75.5769 15.9877 75.6516 16.025 75.6889C16.0623 75.7263 16.1369 75.8005 16.2115 75.8005C16.3234 75.8379 16.4352 75.8752 16.5471 75.9125C16.6963 75.9499 16.8455 76.0245 16.9947 76.0619C17.1066 76.1365 17.2185 76.2108 17.293 76.3228C17.3676 76.4348 17.4423 76.5837 17.4049 76.7704C17.4049 76.9197 17.3676 77.106 17.2557 77.218C17.1439 77.33 17.032 77.4416 16.8828 77.5162C16.6963 77.5909 16.5098 77.6282 16.3234 77.6282C16.0996 77.6282 15.8758 77.5909 15.6893 77.5162C15.5028 77.4416 15.3163 77.33 15.1299 77.1806L15.3536 76.733C15.5028 76.845 15.652 76.957 15.8385 77.0313C15.9877 77.106 16.1741 77.1433 16.3234 77.1433C16.4352 77.1433 16.5844 77.106 16.659 77.0686C16.8082 76.994 16.8082 76.8077 16.7336 76.6584L16.6963 76.621C16.6217 76.5837 16.5844 76.5095 16.5098 76.5095C16.4352 76.4721 16.3234 76.4348 16.1741 76.3975C16.025 76.3601 15.8758 76.2855 15.7266 76.2481C15.6147 76.2108 15.5028 76.0992 15.4283 76.0245C15.3536 75.9125 15.2791 75.7632 15.3163 75.6143C15.3163 75.4649 15.3536 75.316 15.4283 75.204C15.5401 75.092 15.652 74.98 15.8012 74.9058C15.9877 74.8311 16.1741 74.7938 16.3607 74.7938C16.5471 74.7938 16.7336 74.8311 16.8828 74.8684C17.032 74.9058 17.2185 74.98 17.3676 75.092L17.1439 75.5396C17.0693 75.4276 16.9201 75.3529 16.7709 75.316Z" fill="white"/>
<path id="Vector_7" d="M17.9653 74.7938H18.4875V77.5909H17.9653V74.7938Z" fill="white"/>
<path id="Vector_8" d="M21.0605 76.1738H21.508V77.2553C21.3588 77.3673 21.1724 77.4415 20.9859 77.5162C20.7994 77.5909 20.6129 77.6282 20.3891 77.6282C20.128 77.6282 19.867 77.5535 19.6432 77.4415C19.4195 77.3299 19.233 77.1433 19.1211 76.9197C18.9719 76.6957 18.9346 76.4348 18.9346 76.1738C18.9346 75.9125 19.0092 75.6516 19.1211 75.4649C19.2702 75.2413 19.4567 75.0547 19.6805 74.9431C19.9043 74.8311 20.1653 74.7564 20.4264 74.7564C20.6129 74.7564 20.8367 74.7937 21.0231 74.8684C21.2096 74.9431 21.3961 75.0173 21.508 75.1667L21.2096 75.5769C21.0978 75.4649 20.9859 75.3903 20.8367 75.3533C20.6875 75.316 20.5756 75.2787 20.4264 75.2787C20.24 75.2787 20.0908 75.316 19.9416 75.3903C19.494 75.6516 19.3448 76.2481 19.6059 76.6957C19.7924 76.9944 20.0908 77.1806 20.4264 77.1806C20.5383 77.1806 20.6129 77.1806 20.7248 77.1433C20.8367 77.1059 20.9486 77.0686 21.0231 76.9944L21.0605 76.1738Z" fill="white"/>
<path id="Vector_9" d="M24.1186 74.7938H24.6407V77.5909H24.1559L22.7013 75.6516V77.5909H22.1792V74.7938H22.7013L24.1559 76.733L24.1186 74.7938Z" fill="white"/>
<path id="Vector_10" d="M27.0654 77.5909L26.5806 76.7704H25.8347V77.5909H25.3125V74.7938H26.4687C26.7671 74.7565 27.0654 74.8685 27.3265 75.0174C27.513 75.2041 27.6249 75.465 27.6249 75.7263C27.6249 75.9126 27.5876 76.0992 27.4757 76.2855C27.3638 76.4348 27.2146 76.5468 27.0654 76.6211L27.6995 77.5536L27.0654 77.5909ZM25.8347 76.2855H26.4687C26.6552 76.2855 26.8044 76.2482 26.9535 76.1366C27.0654 76.0246 27.1027 75.9126 27.1027 75.7636C27.1027 75.6143 27.0654 75.465 26.9535 75.3903C26.8044 75.3161 26.6552 75.2414 26.506 75.2787H25.8347V76.2855Z" fill="white"/>
<path id="Vector_11" d="M28.8558 76.957C29.005 77.0686 29.1914 77.1433 29.3406 77.1433C29.5271 77.1433 29.7136 77.0686 29.8255 76.957C29.9374 76.8077 30.0119 76.621 30.0119 76.4348V74.7938H30.5341V76.4348C30.5341 76.6584 30.4968 76.8824 30.3849 77.0686C30.273 77.2553 30.1239 77.4042 29.9746 77.4789C29.7882 77.5909 29.5644 77.6282 29.3406 77.6282C29.1168 77.6282 28.8931 77.5909 28.6693 77.4789C28.4828 77.4042 28.3336 77.2553 28.259 77.0686C28.1472 76.8824 28.1099 76.6584 28.1099 76.4348V74.7938H28.632V76.4348C28.6693 76.621 28.7439 76.8077 28.8558 76.957Z" fill="white"/>
<path id="Vector_12" d="M32.5478 75.316C32.4359 75.2787 32.2867 75.2414 32.1375 75.2414C32.0256 75.2414 31.9137 75.2787 31.8391 75.316C31.7645 75.3529 31.7273 75.4276 31.7273 75.5023C31.7273 75.5769 31.7645 75.6516 31.8018 75.6889C31.8391 75.7263 31.9137 75.8005 31.9883 75.8005C32.1002 75.8379 32.2121 75.8752 32.324 75.9125C32.4732 75.9499 32.6223 76.0245 32.7716 76.0619C32.8834 76.1365 32.9953 76.2108 33.0699 76.3228C33.1445 76.4348 33.2191 76.5837 33.1818 76.7704C33.1818 76.9197 33.1445 77.106 33.0326 77.218C32.9207 77.33 32.8089 77.4416 32.6596 77.5162C32.4732 77.5909 32.2867 77.6282 32.1002 77.6282C31.8764 77.6282 31.6527 77.5909 31.4662 77.5162C31.2797 77.4416 31.0932 77.33 30.9067 77.1806L31.1305 76.733C31.2797 76.845 31.4289 76.957 31.6154 77.0313C31.7645 77.106 31.951 77.1433 32.1002 77.1433C32.2121 77.1433 32.3613 77.106 32.4359 77.0686C32.5851 76.994 32.5851 76.8077 32.5105 76.6584L32.4732 76.621C32.3986 76.5837 32.3613 76.5095 32.2867 76.5095C32.2121 76.4721 32.1002 76.4348 31.951 76.3975C31.8018 76.3601 31.6527 76.2855 31.5035 76.2481C31.3916 76.2108 31.2797 76.0992 31.2051 76.0245C31.1305 75.9125 31.0559 75.7632 31.0932 75.6143C31.0932 75.4649 31.1305 75.316 31.2051 75.204C31.317 75.092 31.4289 74.98 31.5781 74.9058C31.7645 74.8311 31.951 74.7938 32.1375 74.7938C32.324 74.7938 32.5105 74.8311 32.6596 74.8684C32.8089 74.9058 32.9953 74.98 33.1445 75.092L32.9207 75.5396C32.8461 75.4276 32.6969 75.3529 32.5478 75.316Z" fill="white"/>
<path id="Vector_13" d="M33.7412 74.7938H34.2633V75.9872H35.6433V74.7938H36.1655V77.5909H35.6433V76.4721H34.2633V77.5909H33.7412V74.7938Z" fill="white"/>
<path id="Vector_14" d="M37.1722 77.106C37.2094 77.1433 37.2467 77.218 37.2467 77.33C37.2467 77.4046 37.2094 77.4789 37.1722 77.5536C37.1349 77.5909 37.0603 77.6282 36.9857 77.6282C36.9111 77.6282 36.8365 77.5909 36.7992 77.5536C36.7619 77.4789 36.7246 77.4046 36.7246 77.33C36.7246 77.2553 36.7619 77.1806 36.7992 77.106C36.8365 77.0686 36.9111 77.0313 36.9857 77.0313C37.0603 77.0313 37.1349 77.0686 37.1722 77.106Z" fill="white"/>
<path id="Vector_15" d="M38.6643 75.8752C38.515 75.8752 38.3659 75.9499 38.254 76.0619C38.1421 76.1735 38.1048 76.3601 38.1048 76.5095C38.1048 76.6957 38.1421 76.8451 38.254 76.9566C38.3659 77.0686 38.515 77.1433 38.6643 77.1433C38.888 77.1433 39.1118 77.0686 39.2237 76.8824L39.5594 77.1433C39.4475 77.2926 39.3356 77.4042 39.1864 77.4789C38.9999 77.5536 38.8134 77.5909 38.627 77.5909C38.4405 77.5909 38.254 77.5536 38.0675 77.4416C37.9183 77.3669 37.7691 77.218 37.6945 77.0686C37.5081 76.733 37.5081 76.2855 37.6945 75.9499C37.7691 75.8005 37.9183 75.6516 38.0675 75.5769C38.254 75.5023 38.4405 75.4276 38.627 75.4276C38.8134 75.4276 38.9999 75.4649 39.1491 75.5396C39.2983 75.6143 39.4101 75.6889 39.5221 75.8379L39.2237 76.1361C39.1118 75.9872 38.888 75.8752 38.6643 75.8752Z" fill="white"/>
<path id="Vector_16" d="M41.4614 75.5769C41.6107 75.6516 41.7597 75.8005 41.8717 75.9499C41.9837 76.1361 42.021 76.3228 42.021 76.5095C42.021 76.6957 41.9837 76.9197 41.8717 77.0686C41.7597 77.218 41.6481 77.3669 41.4614 77.4416C41.2749 77.5162 41.0885 77.5909 40.8647 77.5909C40.6409 77.5909 40.4544 77.5536 40.2679 77.4416C40.1188 77.3669 39.9696 77.218 39.8577 77.0686C39.7458 76.8824 39.7085 76.6957 39.7085 76.5095C39.7085 76.3228 39.7458 76.0992 39.8577 75.9499C39.9696 75.8005 40.0815 75.6516 40.2679 75.5769C40.4544 75.4649 40.6409 75.4276 40.8647 75.4276C41.0885 75.4276 41.2749 75.4649 41.4614 75.5769ZM40.4544 76.0619C40.2306 76.3228 40.2306 76.733 40.4544 76.994C40.5663 77.106 40.7155 77.1806 40.902 77.1806C41.0511 77.1806 41.2376 77.106 41.3494 76.994C41.5734 76.733 41.5734 76.3228 41.3494 76.0619C41.2376 75.9499 41.0885 75.8752 40.902 75.8752C40.7155 75.8752 40.5663 75.9125 40.4544 76.0619Z" fill="white"/>
<path id="Vector_17" d="M45.8248 75.6516C45.9741 75.8005 46.0488 76.0245 46.0488 76.2481V77.5909H45.5265V76.3974C45.5265 76.2481 45.4892 76.1365 45.4145 76.0245C45.3402 75.9499 45.1909 75.8752 45.0789 75.8752C44.93 75.8752 44.7807 75.9499 44.6687 76.0619C44.5567 76.1739 44.5197 76.3228 44.5197 76.5094V77.5535H43.9975V76.3974C43.9975 76.2481 43.9601 76.1365 43.8855 76.0245C43.8108 75.9499 43.6619 75.8752 43.5499 75.8752C43.4006 75.8752 43.2516 75.9499 43.1396 76.0619C43.0276 76.1739 42.9903 76.3601 43.0276 76.5094V77.5535H42.5054V75.4276H43.0276V75.8378C43.289 75.4276 43.8481 75.316 44.2584 75.5396C44.3704 75.6143 44.4824 75.7632 44.5197 75.9125C44.6313 75.5769 44.9669 75.3903 45.3029 75.3903C45.4892 75.3903 45.6758 75.5023 45.8248 75.6516Z" fill="white"/>
<path id="Vector_18" d="M24.141 53.8333V50.1312H25.4669V49.4551H22.047V50.1312H23.373V53.8333H24.141ZM27.9991 53.9121C29.3053 53.9121 30.2374 52.9537 30.2374 51.6475C30.2374 50.3412 29.3053 49.3829 27.9991 49.3829C26.6862 49.3829 25.7607 50.3412 25.7607 51.6475C25.7607 52.9537 26.6862 53.9121 27.9991 53.9121ZM27.9991 53.2294C27.1129 53.2294 26.5484 52.5468 26.5484 51.6475C26.5484 50.7416 27.1129 50.0655 27.9991 50.0655C28.8787 50.0655 29.4497 50.7416 29.4497 51.6475C29.4497 52.5468 28.8787 53.2294 27.9991 53.2294ZM31.7383 53.8333V52.1923H32.9002C33.8126 52.1923 34.3246 51.5687 34.3246 50.827C34.3246 50.0787 33.8191 49.4551 32.9002 49.4551H30.9703V53.8333H31.7383ZM32.7951 51.5162H31.7383V50.1312H32.7951C33.2284 50.1312 33.5369 50.4069 33.5369 50.827C33.5369 51.2405 33.2284 51.5162 32.7951 51.5162ZM15.7216 61.2967C16.6012 61.2967 17.146 60.8307 17.4808 60.3055L16.8244 59.9773C16.6143 60.3384 16.1877 60.6141 15.7216 60.6141C14.8552 60.6141 14.2119 59.9445 14.2119 59.0321C14.2119 58.1066 14.8552 57.4502 15.7216 57.4502C16.1877 57.4502 16.6143 57.7193 16.8244 58.0869L17.4742 57.7455C17.1526 57.2204 16.6012 56.7675 15.7216 56.7675C14.4285 56.7675 13.4242 57.6799 13.4242 59.0321C13.4242 60.3777 14.4285 61.2967 15.7216 61.2967ZM21.4825 61.2179L20.406 59.4982C20.9377 59.4128 21.4497 58.9862 21.4497 58.2116C21.4497 57.3976 20.8786 56.8397 20.0122 56.8397H18.0889V61.2179H18.8569V59.5835H19.6249L20.5898 61.2179H21.4825ZM19.9137 58.9074H18.8569V57.5158H19.9137C20.3469 57.5158 20.662 57.7849 20.662 58.205C20.662 58.6317 20.3469 58.9074 19.9137 58.9074ZM25.2169 61.2179V60.5418H22.9851V59.3209H25.1709V58.6448H22.9851V57.5158H25.2169V56.8397H22.2171V61.2179H25.2169ZM29.9506 61.2179L28.2308 56.8397H27.2724L25.5526 61.2179H26.4257L26.7473 60.3712H28.7559L29.0776 61.2179H29.9506ZM28.5393 59.6951H26.9639L27.7516 57.6077L28.5393 59.6951ZM31.8044 61.2179V57.5158H33.1304V56.8397H29.7105V57.5158H31.0364V61.2179H31.8044ZM34.5492 61.2179V56.8397H33.7812V61.2179H34.5492ZM37.7051 61.2179L39.4249 56.8397H38.5519L37.2259 60.3777L35.9 56.8397H35.027L36.7468 61.2179H37.7051ZM42.8963 61.2179V60.5418H40.6646V59.3209H42.8504V58.6448H40.6646V57.5158H42.8963V56.8397H39.8966V61.2179H42.8963ZM16.9634 68.6026L15.2436 64.2243H14.2852L12.5654 68.6026H13.4385L13.7601 67.7558H15.7687L16.0904 68.6026H16.9634ZM15.5521 67.0797H13.9767L14.7644 64.9923L15.5521 67.0797ZM19.3114 68.6879C20.0662 68.6879 20.6833 68.3663 21.1099 67.8871V66.2526H19.0357V66.9287H20.3485V67.6048C20.1516 67.7952 19.7577 67.9987 19.3114 67.9987C18.4449 67.9987 17.8016 67.3291 17.8016 66.4167C17.8016 65.4912 18.4449 64.8348 19.3114 64.8348C19.7971 64.8348 20.2106 65.0908 20.4469 65.419L21.0705 65.058C20.7226 64.5591 20.1647 64.1521 19.3114 64.1521C18.0379 64.1521 17.0139 65.0383 17.0139 66.4167C17.0139 67.7886 18.0379 68.6879 19.3114 68.6879ZM24.9092 68.6026V67.9265H22.6774V66.7055H24.8632V66.0294H22.6774V64.9004H24.9092V64.2243H21.9094V68.6026H24.9092ZM29.4919 68.6026V64.2243H28.7239V67.2569L26.4856 64.2243H25.6979V68.6026H26.4659V65.4715L28.7502 68.6026H29.4919ZM32.5293 68.6813C33.4089 68.6813 33.9537 68.2153 34.2885 67.6902L33.6321 67.3619C33.422 67.723 32.9953 67.9987 32.5293 67.9987C31.6628 67.9987 31.0195 67.3291 31.0195 66.4167C31.0195 65.4912 31.6628 64.8348 32.5293 64.8348C32.9953 64.8348 33.422 65.1039 33.6321 65.4715L34.2819 65.1302C33.9603 64.605 33.4089 64.1521 32.5293 64.1521C31.2362 64.1521 30.2318 65.0645 30.2318 66.4167C30.2318 67.7624 31.2362 68.6813 32.5293 68.6813ZM35.6646 68.6026V64.2243H34.8966V68.6026H35.6646ZM39.5951 68.6026V67.9265H37.3633V66.7055H39.5491V66.0294H37.3633V64.9004H39.5951V64.2243H36.5953V68.6026H39.5951ZM41.8871 68.6813C43.0621 68.6813 43.5806 68.0512 43.5806 67.3226C43.5806 65.6947 41.0336 66.2001 41.0336 65.3796C41.0336 65.0579 41.3226 64.8348 41.769 64.8348C42.2284 64.8348 42.6945 64.9923 43.0424 65.3402L43.4756 64.7691C43.0752 64.3753 42.5173 64.1521 41.8412 64.1521C40.8761 64.1521 40.2459 64.71 40.2459 65.4387C40.2459 67.0469 42.793 66.4758 42.793 67.3948C42.793 67.6902 42.5501 67.9987 41.9199 67.9987C41.3093 67.9987 40.8301 67.7098 40.5347 67.3882L40.1015 67.9855C40.4954 68.3925 41.0796 68.6813 41.8871 68.6813Z" fill="#333333"/>
<path id="Vector_19" d="M28.0878 28.6706C28.0109 28.5882 28.0109 28.6706 28.0878 28.6706L27.703 28.4235L27.6261 28.3411L18.5447 21.422C18.5447 21.422 18.4678 21.422 18.4678 21.3397L18.3139 21.1749L18.2369 21.0926H18.083L15.4663 19.1157L20.6227 19.9394C20.8535 19.9394 20.9305 20.0218 21.1614 20.1041C21.2383 20.1041 21.3923 20.1865 21.3923 20.1865C21.6232 20.2689 21.7001 20.3512 21.854 20.4336C22.008 20.5159 22.0849 20.5983 22.2388 20.6807C22.3158 20.7631 22.4697 20.8455 22.4697 20.9278C22.5467 21.0102 22.6236 21.0102 22.7006 21.0926C22.8545 21.1749 22.9315 21.2573 22.9315 21.3397C23.1624 21.5868 23.3163 21.8339 23.5472 21.9986L27.6261 28.1764L27.703 28.2588L28.0878 28.6706Z" fill="#18AAD1"/>
<path id="Vector_20" d="M28.0871 38.2256L27.7022 37.5667L27.6253 37.4843L15.5425 19.1157L18.1591 21.0926L18.6209 21.422L27.7022 28.3411H27.7792L28.0871 28.5883C28.0871 28.5883 28.164 28.5883 28.164 28.6707L28.5488 28.3411L40.7856 19.1157L28.4718 37.5667L28.3949 37.649L28.0871 38.2256Z" fill="#2AD2FF"/>
<path id="Vector_21" d="M28.0873 25.5405L27.7025 24.8815L27.6255 24.7991L24.624 20.3511L27.6255 21.0101H27.7025L28.0873 21.0925L28.4721 21.0101L31.3966 20.2687L28.4721 24.8815V24.9638L28.0873 25.5405Z" fill="#18AAD1"/>
<path id="Vector_22" d="M40.8633 19.0332L37.0153 19.6098L35.553 19.8569C34.3987 20.0216 33.3212 20.6806 32.6286 21.7514L28.5496 28.0115L28.4727 28.0939L28.0879 28.6705L28.5496 28.1763L28.6266 28.0939L28.0879 28.6705L38.4776 20.763L40.8633 19.0332Z" fill="#18AAD1"/>
<path id="Vector_23" d="M30.0118 6.01881C30.0118 9.64306 24.1629 11.5376 24.1629 15.409C24.0859 16.3151 24.3168 17.2211 24.7016 18.0448C24.7016 18.0448 22.4697 15.7384 22.4697 13.2673C22.4697 10.7962 24.6246 7.08962 24.6246 7.08962C24.6246 8.73701 25.2403 9.23124 25.856 9.31358H25.9329C26.6256 9.31358 27.0104 8.73701 27.0104 7.91329C27.0104 7.08962 26.1638 6.26591 26.1638 4.61852C26.1638 3.05347 28.0109 0.5 28.0109 0.5C29.3192 2.1474 30.0118 4.04191 30.0118 6.01881Z" fill="#2AD2FF"/>
<path id="Vector_24" d="M28.3954 19.1982C26.5484 19.1982 25.1631 17.6331 25.1631 15.7386V15.6563C25.1631 11.4554 30.6272 11.0435 30.6272 5.35999C30.7812 5.60708 32.2434 7.7487 32.2434 10.0551C32.2434 12.938 29.7037 13.6794 29.7037 15.0797C29.7037 15.6563 29.9346 16.0681 30.7042 16.0681C30.7812 16.0681 30.8581 16.0681 30.9351 15.9857C32.3973 15.3268 33.3978 13.8441 33.4748 12.1143C33.4748 12.1967 34.2444 19.1982 28.3954 19.1982Z" fill="#2AD2FF"/>
<path id="Vector_25" d="M30.7808 16.0681C30.8578 16.0681 30.9347 16.0681 31.0116 15.9858C30.242 16.2328 27.3945 16.9742 27.3945 14.8326C27.3945 12.1967 31.6274 11.6201 31.6274 9.39613C31.6274 7.99584 31.3195 6.59555 30.6269 5.35999C30.7808 5.60708 32.243 7.7487 32.243 10.0551C32.243 12.938 29.7033 13.6794 29.7033 15.0797C29.7803 15.6563 30.0881 16.0681 30.7808 16.0681Z" fill="#18AAD1"/>
<path id="Vector_26" d="M28.3388 7.50148C28.3388 9.56072 25.8761 9.396 25.7222 9.31362H25.9531C26.6457 9.31362 27.0305 8.73705 27.0305 7.91333C27.0305 7.08962 26.1839 6.26591 26.1839 4.61852C26.1839 3.05348 28.031 0.5 28.031 0.5C27.4153 1.57081 27.1074 2.724 27.0305 3.87718C27.0305 5.77171 28.3388 5.93643 28.3388 7.50148Z" fill="#18AAD1"/>
<path id="Vector_27" d="M27.0194 43.5851L25.2397 42.3182H27.4239L28.152 40.0376L28.7991 42.3182H30.9833L29.2036 43.5851L29.8508 45.7812L28.0711 44.4298L26.2105 45.7812L27.0194 43.5851Z" fill="#2AD2FF"/>
<path id="Vector_28" d="M36.5282 43.5851L34.7485 42.3182H36.9327L37.6608 40.0376L38.308 42.3182H40.4921L38.7124 43.5851L39.3596 45.7812L37.5799 44.4298L35.7193 45.7812L36.5282 43.5851Z" fill="#2AD2FF"/>
<path id="Vector_29" d="M45.9633 43.5851L44.1836 42.3182H46.3678L47.096 40.0376L47.743 42.3182H49.9272L48.1475 43.5851L48.7945 45.7812L47.0148 44.4298L45.1543 45.7812L45.9633 43.5851Z" fill="#2AD2FF"/>
<path id="Vector_30" d="M17.246 43.5851L15.4663 42.3182H17.6505L18.3786 40.0376L19.0257 42.3182H21.2099L19.4302 43.5851L20.0773 45.7812L18.2977 44.4298L16.518 45.7812L17.246 43.5851Z" fill="#2AD2FF"/>
<path id="Vector_31" d="M7.80997 43.5851L6.03027 42.3182H8.21444L8.94252 40.0376L9.5897 42.3182H11.7739L9.99417 43.5851L10.6413 45.7812L8.86162 44.4298L7.08192 45.7812L7.80997 43.5851Z" fill="#2AD2FF"/>
</g>
</svg>
