<svg width="60" height="61" viewBox="0 0 60 61" fill="none" xmlns="http://www.w3.org/2000/svg">
<path d="M34.1667 47.1315C34.1667 49.4326 32.3012 51.2981 30 51.2981C27.6989 51.2981 25.8334 49.4326 25.8334 47.1315" fill="#9B9B9A"/>
<path d="M55.8346 47.1315H4.16546C3.70587 47.1315 3.33337 46.759 3.33337 46.2994V14.6302C3.33337 14.1707 3.70587 13.7982 4.16546 13.7982H55.8346C56.2942 13.7982 56.6667 14.1707 56.6667 14.6302V46.2994C56.6667 46.759 56.2942 47.1315 55.8346 47.1315Z" fill="#D0CFCE"/>
<path d="M53.3346 43.4856H6.66546C6.20587 43.4856 5.83337 43.1131 5.83337 42.6536V18.2761C5.83337 17.8166 6.20587 17.444 6.66546 17.444H53.3346C53.7942 17.444 54.1667 17.8165 54.1667 18.2761V42.6536C54.1667 43.1131 53.7942 43.4856 53.3346 43.4856Z" fill="white"/>
<path d="M34.1667 47.1315C34.1667 49.4326 32.3012 51.2981 30 51.2981C27.6989 51.2981 25.8334 49.4326 25.8334 47.1315" stroke="black" stroke-width="2" stroke-miterlimit="10" stroke-linecap="round" stroke-linejoin="round"/>
<path d="M55.8346 47.1315H4.16546C3.70587 47.1315 3.33337 46.759 3.33337 46.2994V14.6302C3.33337 14.1707 3.70587 13.7982 4.16546 13.7982H55.8346C56.2942 13.7982 56.6667 14.1707 56.6667 14.6302V46.2994C56.6667 46.759 56.2942 47.1315 55.8346 47.1315Z" stroke="black" stroke-width="2" stroke-miterlimit="10" stroke-linecap="round" stroke-linejoin="round"/>
<path d="M53.3346 43.4856H6.66546C6.20587 43.4856 5.83337 43.1131 5.83337 42.6536V18.2761C5.83337 17.8166 6.20587 17.444 6.66546 17.444H53.3346C53.7942 17.444 54.1667 17.8165 54.1667 18.2761V42.6536C54.1667 43.1131 53.7942 43.4856 53.3346 43.4856Z" stroke="black" stroke-width="2" stroke-miterlimit="10" stroke-linecap="round" stroke-linejoin="round"/>
<path d="M30 14.6315V46.2981" stroke="black" stroke-width="2" stroke-miterlimit="10" stroke-linecap="round" stroke-linejoin="round"/>
<path d="M9.16675 22.9648H25.8334" stroke="black" stroke-width="2" stroke-miterlimit="10" stroke-linecap="round" stroke-linejoin="round"/>
<path d="M9.16675 27.9648H25.8334" stroke="black" stroke-width="2" stroke-miterlimit="10" stroke-linecap="round" stroke-linejoin="round"/>
<path d="M9.16675 32.9648H25.8334" stroke="black" stroke-width="2" stroke-miterlimit="10" stroke-linecap="round" stroke-linejoin="round"/>
<path d="M9.16675 37.9648H25.8334" stroke="black" stroke-width="2" stroke-miterlimit="10" stroke-linecap="round" stroke-linejoin="round"/>
<path d="M34.1667 22.9648H50.8334" stroke="black" stroke-width="2" stroke-miterlimit="10" stroke-linecap="round" stroke-linejoin="round"/>
<path d="M34.1667 27.9648H50.8334" stroke="black" stroke-width="2" stroke-miterlimit="10" stroke-linecap="round" stroke-linejoin="round"/>
<path d="M34.1667 32.9648H50.8334" stroke="black" stroke-width="2" stroke-miterlimit="10" stroke-linecap="round" stroke-linejoin="round"/>
<path d="M34.1667 37.9648H50.8334" stroke="black" stroke-width="2" stroke-miterlimit="10" stroke-linecap="round" stroke-linejoin="round"/>
</svg>
