<svg width="60" height="61" viewBox="0 0 60 61" fill="none" xmlns="http://www.w3.org/2000/svg">
<path d="M12.535 13.4445C10.6941 13.4445 9.20166 14.9369 9.20166 16.7778V26.5979L9.20007 30.374C9.19991 30.608 9.47341 30.7354 9.65241 30.5846L13.8405 26.9271C13.9908 26.8006 14.181 26.7312 14.3774 26.7312H40.1738C42.0147 26.7312 43.5072 25.2388 43.5072 23.3979V16.7778C43.5072 14.9369 42.0147 13.4445 40.1738 13.4445H12.535Z" fill="#D0CFCE"/>
<path d="M50.4246 51.4185C50.6035 51.5691 50.8769 51.4419 50.8768 51.208L50.8753 47.6491L50.8759 37.6956C50.8759 35.8547 49.3834 34.3623 47.5425 34.3623H20.0858C18.2449 34.3623 16.7524 35.8547 16.7524 37.6956V44.3157C16.7524 46.1566 18.2449 47.6491 20.0858 47.6491H45.8007C45.9971 47.6491 46.1873 47.7185 46.3374 47.845L50.4246 51.4185Z" fill="white"/>
<path d="M12.535 13.4445C10.6941 13.4445 9.20166 14.9369 9.20166 16.7778V26.5979L9.20007 30.374C9.19991 30.608 9.47341 30.7354 9.65241 30.5846L13.8405 26.9271C13.9908 26.8006 14.181 26.7312 14.3774 26.7312H40.1738C42.0147 26.7312 43.5072 25.2388 43.5072 23.3979V16.7778C43.5072 14.9369 42.0147 13.4445 40.1738 13.4445H12.535Z" stroke="black" stroke-width="2" stroke-miterlimit="10"/>
<path d="M50.4246 51.4185C50.6035 51.5691 50.8769 51.4419 50.8768 51.208L50.8753 47.6491L50.8759 37.6956C50.8759 35.8547 49.3834 34.3623 47.5425 34.3623H20.0858C18.2449 34.3623 16.7524 35.8547 16.7524 37.6956V44.3157C16.7524 46.1566 18.2449 47.6491 20.0858 47.6491H45.8007C45.9971 47.6491 46.1873 47.7185 46.3374 47.845L50.4246 51.4185Z" stroke="black" stroke-width="2" stroke-miterlimit="10"/>
<path d="M26.6637 42.6809C27.5842 42.6809 28.3304 41.9347 28.3304 41.0142C28.3304 40.0937 27.5842 39.3475 26.6637 39.3475C25.7433 39.3475 24.9971 40.0937 24.9971 41.0142C24.9971 41.9347 25.7433 42.6809 26.6637 42.6809Z" fill="black"/>
<path d="M33.3401 42.6809C34.2606 42.6809 35.0068 41.9347 35.0068 41.0142C35.0068 40.0937 34.2606 39.3475 33.3401 39.3475C32.4197 39.3475 31.6735 40.0937 31.6735 41.0142C31.6735 41.9347 32.4197 42.6809 33.3401 42.6809Z" fill="black"/>
<path d="M40.0165 42.6809C40.937 42.6809 41.6832 41.9347 41.6832 41.0142C41.6832 40.0937 40.937 39.3475 40.0165 39.3475C39.096 39.3475 38.3499 40.0937 38.3499 41.0142C38.3499 41.9347 39.096 42.6809 40.0165 42.6809Z" fill="black"/>
</svg>
