<svg width="60" height="61" viewBox="0 0 60 61" fill="none" xmlns="http://www.w3.org/2000/svg">
<path d="M26.7255 22.3782C26.7255 17.4257 22.4585 12.2441 22.4585 13.7982C22.4585 15.3522 23.2477 35.9918 23.2477 35.9918L22.4585 49.4887C22.4585 50.4092 23.2047 51.1554 24.1252 51.1554C25.0457 51.1554 25.7918 50.4092 25.7918 49.4887L25.3511 35.9143C25.3511 35.9143 26.7255 27.3308 26.7255 22.3782Z" fill="#D0CFCE"/>
<path d="M38.282 14.4147C38.282 14.4147 38.3749 17.8797 38.3749 21.1695C38.3749 23.6369 37.6255 25.1864 36.5575 25.807L36.5813 49.4888C36.5813 50.4093 35.8351 51.1554 34.9146 51.1554C33.9941 51.1554 33.2479 50.4093 33.2479 49.4888L33.9236 25.8118C32.8511 25.1945 32.0978 23.6433 32.0978 21.1695C32.0978 17.8797 32.1907 14.4147 32.1907 14.4147" fill="#D0CFCE"/>
<path d="M26.7255 22.3782C26.7255 17.4257 22.4585 12.2441 22.4585 13.7982C22.4585 15.3522 23.2477 35.9918 23.2477 35.9918L22.4585 49.4887C22.4585 50.4092 23.2047 51.1554 24.1252 51.1554C25.0457 51.1554 25.7918 50.4092 25.7918 49.4887L25.3511 35.9143C25.3511 35.9143 26.7255 27.3308 26.7255 22.3782Z" stroke="black" stroke-width="2" stroke-miterlimit="10"/>
<path d="M38.282 14.4147C38.282 14.4147 38.3749 17.8797 38.3749 21.1695C38.3749 23.6369 37.6255 25.1864 36.5575 25.807L36.5813 49.4888C36.5813 50.4093 35.8351 51.1554 34.9146 51.1554C33.9941 51.1554 33.2479 50.4093 33.2479 49.4888L33.9236 25.8118C32.8511 25.1945 32.0978 23.6433 32.0978 21.1695C32.0978 17.8797 32.1907 14.4147 32.1907 14.4147" stroke="black" stroke-width="2" stroke-miterlimit="10" stroke-linecap="round" stroke-linejoin="round"/>
<path d="M35.2362 14.4147V22.4021" stroke="black" stroke-width="2" stroke-miterlimit="10" stroke-linecap="round" stroke-linejoin="round"/>
</svg>
