<svg width="60" height="60" viewBox="0 0 60 60" fill="none" xmlns="http://www.w3.org/2000/svg">
<path d="M36.8194 50.7986C36.8194 54.9305 43.3529 56.6667 43.3529 56.6667H30.3358H30.0195H17.0024C17.0024 56.6667 23.5359 54.9306 23.5359 50.7986V46.6873H36.6846L36.8194 50.7986Z" fill="#D0CFCE"/>
<path d="M52.6617 46.6667H7.69356C5.35805 46.6667 3.46472 44.7734 3.46472 42.4379V13.3609C3.46472 11.0254 5.35805 9.13202 7.69356 9.13202H52.6617C54.9972 9.13202 56.8906 11.0254 56.8906 13.3609V42.4379C56.8906 44.7734 54.9972 46.6667 52.6617 46.6667Z" fill="#9B9B9A"/>
<path d="M56.2891 38.9345L3.51099 20.1672V12.2859C3.51099 10.7479 5.03349 9.67336 6.48257 10.1886L56.2891 27.8993V38.9345Z" fill="white"/>
<path d="M56.8906 39.6357C56.8906 39.6357 57.0312 43.6821 55.599 45.3278C54.1667 46.9736 54.9972 46.6641 52.6617 46.6641H7.69355C5.35805 46.6641 4.22355 45.1207 4.22355 44.6279L3.46472 39.6357" fill="#D0CFCE"/>
<path d="M52.6617 46.6667H7.69356C5.35805 46.6667 3.46472 44.7734 3.46472 42.4379V13.3609C3.46472 11.0254 5.35805 9.13202 7.69356 9.13202H52.6617C54.9972 9.13202 56.8906 11.0254 56.8906 13.3609V42.4379C56.8906 44.7734 54.9972 46.6667 52.6617 46.6667Z" stroke="black" stroke-width="2" stroke-miterlimit="10" stroke-linecap="round" stroke-linejoin="round"/>
<path d="M56.8906 39.6357C56.8906 39.6357 57.0312 43.6821 55.599 45.3278C54.1667 46.9736 54.9972 46.6641 52.6617 46.6641H7.69355C5.35805 46.6641 4.22355 45.1207 4.22355 44.6279L3.46472 39.6357" stroke="black" stroke-width="0.9187" stroke-miterlimit="10" stroke-linecap="round" stroke-linejoin="round"/>
<path d="M52.6617 46.6667H7.69356C5.35805 46.6667 3.46472 44.7734 3.46472 42.4379V13.3609C3.46472 11.0254 5.35805 9.13202 7.69356 9.13202H52.6617C54.9972 9.13202 56.8906 11.0254 56.8906 13.3609V42.4379C56.8906 44.7734 54.9972 46.6667 52.6617 46.6667Z" stroke="black" stroke-width="2" stroke-miterlimit="10" stroke-linecap="round" stroke-linejoin="round"/>
<path d="M6.01099 40.4103H54.3443" stroke="black" stroke-width="2" stroke-miterlimit="10" stroke-linecap="round" stroke-linejoin="round"/>
<path d="M35.9861 50.7986C35.9861 54.9305 43.3529 56.6667 43.3529 56.6667H30.3358H30.0195H17.0024C17.0024 56.6667 24.3692 54.9306 24.3692 50.7986" stroke="black" stroke-width="2" stroke-miterlimit="10" stroke-linecap="round" stroke-linejoin="round"/>
</svg>
