<svg width="60" height="61" viewBox="0 0 60 61" fill="none" xmlns="http://www.w3.org/2000/svg">
<path d="M46.6667 39.3871C46.6667 49.1996 39.2048 57.1342 30 57.1342C20.7953 57.1342 13.3334 49.1796 13.3334 39.3672C13.3334 39.3672 13.1508 27.4434 27.2133 5.87739C27.2133 5.87739 29.8521 1.40214 32.5084 5.5838C46.5709 27.1497 46.6667 39.3871 46.6667 39.3871Z" fill="#92D3F5"/>
<path d="M29.9999 3.79749C40.7291 12.4441 46.5624 37.8602 46.5624 37.8602C46.5624 50.3607 39.2047 57.1323 29.9999 57.1323C29.9999 57.1323 48.3333 42.0269 29.9999 3.79749Z" fill="#61B2E4"/>
<path d="M46.6667 39.3869C46.6667 49.1993 39.2048 57.134 30 57.134C20.7953 57.134 13.3334 49.1794 13.3334 39.367C13.3334 39.367 13.1508 27.4431 27.2133 5.87714C27.2133 5.87714 29.8521 1.40189 32.5084 5.58356C46.5709 27.1495 46.6667 39.3869 46.6667 39.3869Z" stroke="black" stroke-width="2" stroke-miterlimit="10" stroke-linecap="round" stroke-linejoin="round"/>
</svg>
