<svg width="60" height="60" viewBox="0 0 60 60" fill="none" xmlns="http://www.w3.org/2000/svg">
<path d="M40.7236 27.1306L37.6483 24.5478L41.5073 25.6597C43.5324 26.0623 45.4111 25.9278 46.3386 24.1871C47.2661 22.4463 46.6067 20.2831 44.866 19.3557L43.29 18.516L43.5698 17.9908L44.1296 16.9401C45.0571 15.1993 44.3977 13.0363 42.657 12.1088C40.9161 11.1813 39.3124 12.101 37.8257 13.5814L35.243 16.6568L36.3548 12.7978C36.7622 10.8269 36.6229 8.89401 34.8821 7.96651C33.1414 7.03901 30.9783 7.69834 30.0509 9.43909L29.2112 11.0151L28.6859 10.7352L27.6352 10.1754C25.8944 9.24792 23.7313 9.90742 22.8039 11.6483C21.8765 13.3891 22.6446 15.1338 24.2766 16.4795L28.0765 19.4455L28.0874 19.4541L24.2933 18.2123C23.5569 17.9714 22.7949 17.7978 22.0206 17.7685C20.6432 17.7163 19.4681 18.0771 18.7566 19.2558C17.6871 21.0275 18.4697 23.3675 20.2961 24.3405L21.7104 25.094L21.4305 25.6194L20.9445 26.5316C19.9881 28.3268 20.6315 30.6646 22.4578 31.5599C24.1563 32.3929 25.7633 31.5813 27.1746 30.0288L29.7573 26.9534L28.6455 30.8125C28.2253 32.496 28.3774 34.7163 30.1181 35.6438C31.859 36.5713 34.022 35.9119 34.9494 34.1712L35.7891 32.595L36.3145 32.8749L37.3651 33.4347C39.106 34.3622 41.269 33.7028 42.1964 31.9621C43.1238 30.2211 42.406 28.5738 40.7236 27.1306Z" fill="#B1CC33"/>
<path d="M25.3052 34.191C22.4402 37.1476 18.9085 42.7293 20.4477 51.4701" stroke="black" stroke-width="2" stroke-linecap="round" stroke-linejoin="round"/>
<path d="M37.5845 24.446L41.4173 25.6452C43.4326 26.0937 45.314 26.0019 46.2808 24.2827C47.2475 22.5634 46.6375 20.3859 44.9183 19.4192L43.3618 18.5439L43.6535 18.0251L44.237 16.9874C45.2038 15.2682 44.5938 13.0907 42.8745 12.1239C41.1553 11.1572 39.531 12.0401 38.011 13.4864L35.3591 16.5022" stroke="black" stroke-width="2" stroke-miterlimit="10" stroke-linecap="round" stroke-linejoin="round"/>
<path d="M29.6409 26.6715L28.4417 30.5042C27.9835 32.1777 28.085 34.401 29.8042 35.3677C31.5235 36.3345 33.701 35.7245 34.6677 34.0052L35.543 32.4487L36.0618 32.7405L37.0995 33.324C38.8187 34.2907 40.9962 33.6807 41.963 31.9615C42.9297 30.2422 42.2496 28.579 40.6005 27.098L37.5846 24.4461" stroke="black" stroke-width="2" stroke-miterlimit="10" stroke-linecap="round" stroke-linejoin="round"/>
<path d="M28.1419 19.1362L24.3769 17.8086C23.6462 17.5509 22.8883 17.36 22.1149 17.3131C20.7391 17.2296 19.556 17.5636 18.8179 18.7258C17.7085 20.4727 18.4376 22.83 20.2414 23.8443L21.6382 24.6298L21.3464 25.1487L20.8399 26.0496C19.8429 27.8225 20.4331 30.1742 22.2386 31.111C23.9178 31.9822 25.5428 31.2073 26.989 29.6873L29.6409 26.6715" stroke="black" stroke-width="2" stroke-miterlimit="10" stroke-linecap="round" stroke-linejoin="round"/>
<path d="M35.3592 16.5023L36.5583 12.6696C37.0104 10.7085 36.9151 8.77283 35.1958 7.80608C33.4766 6.83933 31.2991 7.44933 30.3323 9.16858L29.4571 10.725L28.9383 10.4332L27.9006 9.84975C26.1813 8.883 24.0038 9.493 23.0371 11.2123C22.0703 12.9315 22.7986 14.6932 24.3996 16.0757L28.1418 19.1362" stroke="black" stroke-width="2" stroke-miterlimit="10" stroke-linecap="round" stroke-linejoin="round"/>
</svg>
