<svg width="61" height="60" viewBox="0 0 61 60" fill="none" xmlns="http://www.w3.org/2000/svg">
<path d="M30.5 53.3333C43.3866 53.3333 53.8333 42.8866 53.8333 30C53.8333 17.1133 43.3866 6.66666 30.5 6.66666C17.6133 6.66666 7.16663 17.1133 7.16663 30C7.16663 42.8866 17.6133 53.3333 30.5 53.3333Z" fill="#92D3F5"/>
<path d="M41.6995 9.52506C41.251 10.2801 40.3293 11.3105 39.6666 11.6666C38.629 12.2243 38.08 11.8893 37.1666 12.5C36.1092 13.207 36.1587 14.1149 35.5 14.1666C34.8318 14.2191 34.9267 12.5058 34.6666 11.6666C34.2899 10.4512 34.4744 10.3944 33.8333 9.99998C32.9305 9.44456 31.1565 9.12481 29.6666 9.99998C29.0755 10.3472 29.0411 10.5683 27.1666 13.3333C25.742 15.4348 25.3433 15.9244 25.5 16.6666C25.6657 17.4516 25.5355 18.1228 26.3333 18.3333C27.3227 18.5943 27.4717 18.1065 28 17.5C29.1068 16.2291 29.965 14.3476 30.5 14.1666C30.976 14.0056 32.2213 15.2912 32.1666 16.6666C32.128 17.6378 31.4566 18.2683 30.5 19.1666C29.8819 19.7471 28.1041 20.4166 25.5 20.8333C24.0675 21.0625 24.3264 21.5436 23.7812 22.1615C23.079 22.9573 23.3966 23.9691 22.7135 24.9219C21.8592 26.1136 19.8196 26.415 19.6665 27.1876C19.536 27.8461 21.3003 28.3204 22.1666 28.3333C22.8754 28.3439 23.0536 27.6899 24.6666 26.6666C25.284 26.275 26.125 25.599 26.9062 25.625C27.3263 25.639 28.4303 25.8626 28.8594 26.224C29.3542 26.6406 28.7292 27.7605 28.5209 28.8541C28.3125 29.9478 26.1062 30.408 25.309 30.5381C23.9976 30.7523 21.8558 30.1025 20.6389 31.3194C19.8055 32.1527 19.7093 32.7911 19.6666 34.1666C19.6559 34.5143 20.4475 36.6936 21.3333 37.5C22.2868 38.368 23.2449 36.8036 24.6666 37.5C26.1213 38.2124 26.7441 39.774 27.1666 40.8333C27.5898 41.8942 27.313 41.8066 28 45C28.3455 46.6059 28.2659 45.9328 28.8333 48.3333C29.3026 50.3188 29.324 50.6398 29.6666 50.8333C30.6443 51.3856 32.9164 50.1531 33.8333 48.3333C34.4079 47.1931 34.0092 46.6979 34.6666 44.1666C34.994 42.9064 35.1576 42.2762 35.5 41.6666C36.9443 39.0949 39.569 39.062 39.6666 37.5C39.7335 36.4313 38.5355 35.9571 38.8333 35C39.1184 34.0836 40.3415 34.1164 40.5 33.3333C40.7149 32.2706 38.6256 31.4033 38.8333 30.8333C39.0685 30.1878 42.2246 29.9918 43.8333 31.6666C44.3664 32.2216 44.2485 32.4812 45.5 35C46.6532 37.3209 46.9697 37.5359 47.1666 37.5C47.5239 37.4348 47.4352 36.5537 47.9999 35C48.2702 34.2565 48.9105 32.4948 49.6666 32.5C50.1872 32.5036 50.2821 33.3414 51.3333 34.1666C51.9252 34.6313 52.8256 34.9005 53.2895 35.0315C53.6455 33.411 53.8333 31.7274 53.8333 30C53.8333 21.1404 48.8956 13.4341 41.622 9.48281" fill="#B1CC33"/>
<path d="M30.5 53.3333C43.3866 53.3333 53.8333 42.8866 53.8333 30C53.8333 17.1133 43.3866 6.66666 30.5 6.66666C17.6133 6.66666 7.16663 17.1133 7.16663 30C7.16663 42.8866 17.6133 53.3333 30.5 53.3333Z" stroke="black" stroke-width="2" stroke-miterlimit="10" stroke-linecap="round" stroke-linejoin="round"/>
<path d="M41.6995 9.52506C41.251 10.2801 40.3293 11.3105 39.6666 11.6666C38.629 12.2243 38.08 11.8893 37.1666 12.5C36.1092 13.207 36.1587 14.1149 35.5 14.1666C34.8318 14.2191 34.9267 12.5058 34.6666 11.6666C34.2899 10.4512 34.4744 10.3944 33.8333 9.99998C32.9305 9.44456 31.1565 9.12481 29.6666 9.99998C29.0755 10.3472 29.0411 10.5683 27.1666 13.3333C25.742 15.4348 25.3433 15.9244 25.5 16.6666C25.6657 17.4516 25.5355 18.1228 26.3333 18.3333C27.3227 18.5943 27.4717 18.1065 28 17.5C29.1068 16.2291 29.965 14.3476 30.5 14.1666C30.976 14.0056 32.2213 15.2912 32.1666 16.6666C32.128 17.6378 31.4566 18.2683 30.5 19.1666C29.8819 19.7471 28.1041 20.4166 25.5 20.8333C24.0675 21.0625 24.3264 21.5436 23.7812 22.1615C23.079 22.9573 23.3966 23.9691 22.7135 24.9219C21.8592 26.1136 19.8196 26.415 19.6665 27.1876C19.536 27.8461 21.3003 28.3204 22.1666 28.3333C22.8754 28.3439 23.0536 27.6899 24.6666 26.6666C25.284 26.275 26.125 25.599 26.9062 25.625C27.3263 25.639 28.4303 25.8626 28.8594 26.224C29.3542 26.6406 28.7292 27.7605 28.5209 28.8541C28.3125 29.9478 26.1062 30.408 25.309 30.5381C23.9976 30.7523 21.8558 30.1025 20.6389 31.3194C19.8055 32.1527 19.7093 32.7911 19.6666 34.1666C19.6559 34.5143 20.4475 36.6936 21.3333 37.5C22.2868 38.368 23.2449 36.8036 24.6666 37.5C26.1213 38.2124 26.7441 39.774 27.1666 40.8333C27.5898 41.8942 27.313 41.8066 28 45C28.3455 46.6059 28.2659 45.9328 28.8333 48.3333C29.3026 50.3188 29.324 50.6398 29.6666 50.8333C30.6443 51.3856 32.9164 50.1531 33.8333 48.3333C34.4079 47.1931 34.0092 46.6979 34.6666 44.1666C34.994 42.9064 35.1576 42.2762 35.5 41.6666C36.9443 39.0949 39.569 39.062 39.6666 37.5C39.7335 36.4313 38.5355 35.9571 38.8333 35C39.1184 34.0836 40.3415 34.1164 40.5 33.3333C40.7149 32.2706 38.6256 31.4033 38.8333 30.8333C39.0685 30.1878 42.2246 29.9918 43.8333 31.6666C44.3664 32.2216 44.2485 32.4812 45.5 35C46.6532 37.3209 46.9697 37.5359 47.1666 37.5C47.5239 37.4348 47.4352 36.5537 47.9999 35C48.2702 34.2565 48.9105 32.4948 49.6666 32.5C50.1872 32.5036 50.2821 33.3414 51.3333 34.1666C51.9252 34.6313 52.8256 34.9005 53.2895 35.0315C53.6455 33.411 53.8333 31.7274 53.8333 30C53.8333 21.1404 48.8956 13.4341 41.622 9.48281" stroke="black" stroke-width="2" stroke-miterlimit="10" stroke-linecap="round" stroke-linejoin="round"/>
</svg>
