<svg width="60" height="61" viewBox="0 0 60 61" fill="none" xmlns="http://www.w3.org/2000/svg">
<path d="M49.5834 21.2981C49.5834 15.5451 44.9197 10.8815 39.1667 10.8815C35.2056 10.8815 31.7616 13.0928 30 16.348C28.2384 13.0928 24.7944 10.8815 20.8334 10.8815C15.0804 10.8815 10.4167 15.5451 10.4167 21.2981C10.4167 23.7731 11.2836 26.0433 12.7253 27.8304L12.7217 27.8332L30 49.2479L47.2783 27.8333L47.2747 27.8305C48.7164 26.0433 49.5834 23.7731 49.5834 21.2981Z" fill="#B1CC33"/>
<path d="M49.5834 21.2981C49.5834 15.5451 44.9197 10.8815 39.1667 10.8815C35.2056 10.8815 31.7616 13.0928 30 16.348C28.2384 13.0928 24.7944 10.8815 20.8334 10.8815C15.0804 10.8815 10.4167 15.5451 10.4167 21.2981C10.4167 23.7731 11.2836 26.0433 12.7253 27.8304L12.7217 27.8332L30 49.2479L47.2783 27.8333L47.2747 27.8305C48.7164 26.0433 49.5834 23.7731 49.5834 21.2981Z" stroke="black" stroke-width="2" stroke-miterlimit="10" stroke-linejoin="round"/>
</svg>
