<svg width="60" height="61" viewBox="0 0 60 61" fill="none" xmlns="http://www.w3.org/2000/svg">
<path d="M29.7584 54.2061C33.7409 54.2061 36.0159 52.3361 36.555 49.9136H22.9634C23.5025 52.3361 25.7759 54.2061 29.7584 54.2061Z" fill="#D0CFCE"/>
<path d="M37.9166 9.00604C37.9166 9.00604 27.725 6.12521 22.75 10.0635C17.7758 14.0019 16.3741 23.0635 16.3741 23.0635C16.8615 24.9077 19.8958 30.141 19.8958 30.141C20.3458 30.9003 21.7733 36.7919 22.6033 40.0244H36.9116C37.6335 37.6535 40.5366 28.6494 40.9158 27.766C41.4025 26.6302 42.2325 24.4194 42.6516 23.5852C43.66 21.5777 43.0998 19.8727 43.0998 17.7294C43.0998 13.1569 41.5148 11.291 37.9156 9.00437L37.9166 9.00604Z" fill="#FCEA2B"/>
<path d="M29.7584 6.3327C22.6484 6.3327 16.0084 11.9594 16.0084 19.066C16.0084 19.9652 15.7883 22.8085 17.0225 22.8085C17.0225 22.8085 19.0167 16.2877 23.9909 12.3502C28.965 8.4127 36.9242 9.24603 36.9242 9.24603C36.3705 7.54187 32.2992 6.3302 29.7609 6.3302L29.7584 6.3327Z" fill="white"/>
<path d="M43.7917 20.1227C43.7917 23.4436 42.3042 25.0461 40.6634 28.8727C40.2444 29.8494 37.1542 40.0227 37.1542 40.0227H22.8459C22.8459 40.0227 20.3617 30.2977 19.8909 29.5061C17.9159 26.1744 16.2084 23.7477 16.2084 20.1227C16.2084 12.5052 22.3834 6.33105 30 6.33105C37.6175 6.33105 43.7917 12.5061 43.7917 20.1227Z" stroke="black" stroke-width="2" stroke-miterlimit="10" stroke-linecap="round" stroke-linejoin="round"/>
<path d="M30 39.6811V29.7311" stroke="black" stroke-width="2" stroke-miterlimit="10" stroke-linecap="round" stroke-linejoin="round"/>
<path d="M34.975 29.7311H25.025" stroke="black" stroke-width="2" stroke-miterlimit="10" stroke-linecap="round" stroke-linejoin="round"/>
<path d="M36.8 49.3228C36.8 52.0228 33.7575 54.2119 30.0042 54.2119C26.2509 54.2119 23.2084 52.0228 23.2084 49.3228H36.8Z" stroke="black" stroke-width="1.696" stroke-miterlimit="10" stroke-linecap="round" stroke-linejoin="round"/>
<path d="M23.3251 46.1478L36.6751 43.2561" stroke="black" stroke-width="1.965" stroke-miterlimit="10" stroke-linecap="round" stroke-linejoin="round"/>
<path d="M31.8334 47.0561L36.65 46.0728" stroke="black" stroke-width="2" stroke-miterlimit="10" stroke-linecap="round" stroke-linejoin="round"/>
<path d="M23.3501 43.331L28.1668 42.3477" stroke="black" stroke-width="2" stroke-miterlimit="10" stroke-linecap="round" stroke-linejoin="round"/>
</svg>
