<svg width="60" height="61" viewBox="0 0 60 61" fill="none" xmlns="http://www.w3.org/2000/svg">
<path d="M30.23 28.9716C34.3442 25.8924 35.1831 20.061 32.1039 15.9469C29.0247 11.8327 23.1933 10.9937 19.0792 14.0728C14.9651 17.152 14.1261 22.9834 17.2053 27.0976C20.2845 31.2118 26.1159 32.0508 30.23 28.9716Z" fill="white"/>
<path d="M32.5 16.6644C31.1442 14.8525 28.0738 12.8201 25.8333 12.4977C24.2991 12.2771 21.6666 12.4977 21.4061 13.7067C23.4328 13.8927 26.6236 14.8678 29.2797 18.7393C31.5336 22.0249 31.7045 24.7898 31.3707 26.6739C33.3333 26.6644 34.8222 19.768 32.5 16.6644Z" fill="#92D3F5"/>
<path d="M17.2642 11.8754C14.648 13.8351 12.9504 16.6947 12.4832 19.9306C12.0179 23.1664 12.8404 26.3901 14.7986 29.0079C18.8426 34.4101 26.5285 35.5163 31.9315 31.4726C37.3342 27.4298 38.4409 19.7451 34.3971 14.34C32.4385 11.7232 29.5772 10.0252 26.3415 9.55985C23.1056 9.09444 19.8823 9.91619 17.2642 11.8754ZM31.8278 16.1546C33.7289 18.6948 34.0745 21.9246 33.0306 24.6946C32.4502 26.2374 31.4379 27.6368 30.0227 28.6959C26.0675 31.6564 20.4411 30.8459 17.4814 26.8909C16.0476 24.9749 15.445 22.6152 15.7863 20.2467C16.128 17.8776 17.3695 15.7839 19.2865 14.3496C21.2018 12.9154 23.5613 12.3135 25.9307 12.6545C28.2994 12.9951 30.3933 14.2384 31.8278 16.1546Z" fill="#D0CFCE"/>
<path d="M32.5 35.8311L40.8333 47.4977C40.8333 47.4977 43.3333 50.8311 45 49.1644C46.6667 47.4977 45 44.9977 45 44.9977L35.8333 33.3311L32.5 35.8311Z" fill="#3F3F3F"/>
<path d="M31.9635 31.2878C37.3568 27.2512 38.4566 19.6068 34.4201 14.2135C30.3835 8.82019 22.7391 7.72033 17.3458 11.7569C11.9525 15.7935 10.8526 23.4379 14.8892 28.8312C18.9257 34.2245 26.5701 35.3244 31.9635 31.2878Z" stroke="black" stroke-width="2" stroke-miterlimit="10" stroke-linecap="round" stroke-linejoin="round"/>
<path d="M30.23 28.9717C34.3442 25.8925 35.1831 20.0611 32.1039 15.9469C29.0247 11.8327 23.1933 10.9937 19.0792 14.0729C14.9651 17.1521 14.1261 22.9835 17.2053 27.0976C20.2845 31.2118 26.1159 32.0508 30.23 28.9717Z" stroke="black" stroke-width="2" stroke-miterlimit="10" stroke-linecap="round" stroke-linejoin="round"/>
<path d="M32.2338 35.6541L35.7203 33.0444L45.4643 46.0628C46.1604 46.9929 45.9441 48.331 44.9813 49.0517C44.0185 49.7723 42.6738 49.6025 41.9776 48.6724L32.2338 35.6541Z" stroke="black" stroke-width="2" stroke-miterlimit="10" stroke-linecap="round" stroke-linejoin="round"/>
</svg>
