<svg width="60" height="61" viewBox="0 0 60 61" fill="none" xmlns="http://www.w3.org/2000/svg">
<path d="M7.797 47.4191H52.2032V19.9681H37.7353V17.5459H22.2648V19.9681H7.797V47.4191Z" fill="#D0CFCE"/>
<path d="M34.4795 33.6599H25.5206V44.282H34.4795V33.6599Z" fill="#A57939"/>
<path d="M30.0001 30.781C32.8985 30.781 35.2481 28.4314 35.2481 25.533C35.2481 22.6346 32.8985 20.285 30.0001 20.285C27.1017 20.285 24.7521 22.6346 24.7521 25.533C24.7521 28.4314 27.1017 30.781 30.0001 30.781Z" fill="white"/>
<path d="M18.6967 39.3453H17.0819V42.7082H18.6967V39.3453Z" stroke="#92D3F5" stroke-width="2" stroke-linecap="round" stroke-linejoin="round"/>
<path d="M13.0449 39.3453H11.4302V42.7082H13.0449V39.3453Z" stroke="#92D3F5" stroke-width="2" stroke-linecap="round" stroke-linejoin="round"/>
<path d="M18.6967 31.2714H17.0819V35.3083H18.6967V31.2714Z" stroke="#92D3F5" stroke-width="2" stroke-linecap="round" stroke-linejoin="round"/>
<path d="M13.0449 31.2714H11.4302V35.3083H13.0449V31.2714Z" stroke="#92D3F5" stroke-width="2" stroke-linecap="round" stroke-linejoin="round"/>
<path d="M18.6967 23.1976H17.0819V27.2345H18.6967V23.1976Z" stroke="#92D3F5" stroke-width="2" stroke-linecap="round" stroke-linejoin="round"/>
<path d="M13.0449 23.1976H11.4302V27.2345H13.0449V23.1976Z" stroke="#92D3F5" stroke-width="2" stroke-linecap="round" stroke-linejoin="round"/>
<path d="M48.5698 39.3453H46.9551V42.7082H48.5698V39.3453Z" stroke="#92D3F5" stroke-width="2" stroke-linecap="round" stroke-linejoin="round"/>
<path d="M42.9181 39.3453H41.3033V42.7082H42.9181V39.3453Z" stroke="#92D3F5" stroke-width="2" stroke-linecap="round" stroke-linejoin="round"/>
<path d="M48.5698 31.2714H46.9551V35.3083H48.5698V31.2714Z" stroke="#92D3F5" stroke-width="2" stroke-linecap="round" stroke-linejoin="round"/>
<path d="M42.9181 31.2714H41.3033V35.3083H42.9181V31.2714Z" stroke="#92D3F5" stroke-width="2" stroke-linecap="round" stroke-linejoin="round"/>
<path d="M48.5698 23.1976H46.9551V27.2345H48.5698V23.1976Z" stroke="#92D3F5" stroke-width="2" stroke-linecap="round" stroke-linejoin="round"/>
<path d="M42.9181 23.1976H41.3033V27.2345H42.9181V23.1976Z" stroke="#92D3F5" stroke-width="2" stroke-linecap="round" stroke-linejoin="round"/>
<path d="M20.6667 17.4061H22.2667V19.9644H7.80005L11.0084 14.8478H23.6756L20.6667 17.4061Z" fill="#D22F27"/>
<path d="M39.3333 17.4061H37.7364V19.9644H52.2031L48.9947 14.8478H36.3267L39.3333 17.4061Z" fill="#D22F27"/>
<path d="M39.3334 17.4061H20.6667L22.2667 16.047L30.0001 9.46442L39.3334 17.4061Z" fill="#EA5A47"/>
<path d="M22.2649 42.7082H5.9967V47.4191H22.2649V42.7082Z" fill="#B1CC33"/>
<path d="M54.0034 42.7082H37.7352V47.4191H54.0034V42.7082Z" fill="#B1CC33"/>
<path d="M37.7335 17.4061H22.2667V47.4227H37.7335V17.4061Z" stroke="black" stroke-width="2" stroke-linecap="round" stroke-linejoin="round"/>
<path d="M20.6667 17.4061H22.2667V19.9644H7.80005L11.0084 14.8478H23.6756L20.6667 17.4061Z" stroke="black" stroke-width="2" stroke-linecap="round" stroke-linejoin="round"/>
<path d="M39.3333 17.4061H37.7364V19.9644H52.2031L48.9947 14.8478H36.3267L39.3333 17.4061Z" stroke="black" stroke-width="2" stroke-linecap="round" stroke-linejoin="round"/>
<path d="M39.3334 17.4061H20.6667L22.2667 16.047L30.0001 9.46442L39.3334 17.4061Z" stroke="black" stroke-width="2" stroke-linecap="round" stroke-linejoin="round"/>
<path d="M8.09204 42.7082H20.1695C21.3268 42.7082 22.2649 43.6463 22.2649 44.8035V47.4191H5.9967V44.8035C5.9967 43.6463 6.93479 42.7082 8.09204 42.7082Z" stroke="black" stroke-width="2" stroke-linecap="round" stroke-linejoin="round"/>
<path d="M39.8306 42.7082H51.9081C53.0653 42.7082 54.0034 43.6463 54.0034 44.8035V47.4191H37.7352V44.8035C37.7352 43.6463 38.6733 42.7082 39.8306 42.7082Z" stroke="black" stroke-width="2" stroke-linecap="round" stroke-linejoin="round"/>
<path d="M22.2648 44.282H37.7353" stroke="black" stroke-width="2" stroke-linecap="round" stroke-linejoin="round"/>
<path d="M7.797 42.7082V19.9681H22.2648" stroke="black" stroke-width="2" stroke-linecap="round" stroke-linejoin="round"/>
<path d="M52.2032 47.4191H7.797" stroke="black" stroke-width="2" stroke-linecap="round" stroke-linejoin="round"/>
<path d="M37.7352 19.9681H52.2031V42.7082" stroke="black" stroke-width="2" stroke-linecap="round" stroke-linejoin="round"/>
<path d="M34.4795 33.6599H25.5206V44.282H34.4795V33.6599Z" stroke="black" stroke-width="2" stroke-linecap="round" stroke-linejoin="round"/>
<path d="M30 44.282V33.6599" stroke="black" stroke-width="2" stroke-linecap="round" stroke-linejoin="round"/>
<path d="M30.0001 30.781C32.8985 30.781 35.2481 28.4314 35.2481 25.533C35.2481 22.6346 32.8985 20.285 30.0001 20.285C27.1017 20.285 24.7521 22.6346 24.7521 25.533C24.7521 28.4314 27.1017 30.781 30.0001 30.781Z" stroke="black" stroke-width="2" stroke-linecap="round" stroke-linejoin="round"/>
<path d="M30 25.9366V22.4558" stroke="black" stroke-width="2" stroke-linecap="round" stroke-linejoin="round"/>
<path d="M30 25.9367L31.7404 25.0665" stroke="black" stroke-width="2" stroke-linecap="round" stroke-linejoin="round"/>
<path d="M17.0819 42.7082V39.3453" stroke="black" stroke-width="2" stroke-linecap="round" stroke-linejoin="round"/>
<path d="M11.4302 42.7082V39.3453" stroke="black" stroke-width="2" stroke-linecap="round" stroke-linejoin="round"/>
<path d="M18.6967 35.3083H17.0819V31.2714" stroke="black" stroke-width="2" stroke-linecap="round" stroke-linejoin="round"/>
<path d="M13.0449 35.3083H11.4302V31.2714" stroke="black" stroke-width="2" stroke-linecap="round" stroke-linejoin="round"/>
<path d="M18.6967 27.2345H17.0819V23.1976" stroke="black" stroke-width="2" stroke-linecap="round" stroke-linejoin="round"/>
<path d="M13.0449 27.2345H11.4302V23.1976" stroke="black" stroke-width="2" stroke-linecap="round" stroke-linejoin="round"/>
<path d="M46.9551 42.7082V39.3453" stroke="black" stroke-width="2" stroke-linecap="round" stroke-linejoin="round"/>
<path d="M41.3033 42.7082V39.3453" stroke="black" stroke-width="2" stroke-linecap="round" stroke-linejoin="round"/>
<path d="M48.5698 35.3083H46.9551V31.2714" stroke="black" stroke-width="2" stroke-linecap="round" stroke-linejoin="round"/>
<path d="M42.9182 35.3083H41.3033V31.2714" stroke="black" stroke-width="2" stroke-linecap="round" stroke-linejoin="round"/>
<path d="M48.5698 27.2345H46.9551V23.1976" stroke="black" stroke-width="2" stroke-linecap="round" stroke-linejoin="round"/>
<path d="M42.9182 27.2345H41.3033V23.1976" stroke="black" stroke-width="2" stroke-linecap="round" stroke-linejoin="round"/>
</svg>
