<svg width="60" height="61" viewBox="0 0 60 61" fill="none" xmlns="http://www.w3.org/2000/svg">
<path d="M46.6962 45.4692L39.9264 32.7947L42.715 33.2446C43.1682 33.3188 43.5959 33.0116 43.6702 32.5583C43.7019 32.3645 43.6641 32.1657 43.5632 31.9971L37.4197 21.6354L39.9846 21.8176C40.4427 21.8496 40.8402 21.5041 40.8722 21.0458C40.8853 20.8569 40.8337 20.6691 40.7256 20.5135L30.6875 6.06843C30.5275 5.84359 30.2682 5.71051 29.9922 5.71168C29.7155 5.71576 29.4589 5.85734 29.3078 6.08926L26.2099 10.8397L19.6922 20.8454C19.4412 21.2302 19.5497 21.7454 19.9345 21.9963C20.1086 22.1098 20.3188 22.1541 20.5238 22.1203L22.4417 21.8093L16.1485 31.9855C15.9067 32.3761 16.0274 32.8887 16.418 33.1303C16.5857 33.2342 16.7851 33.275 16.9802 33.2454L20.0856 32.7763L13.3067 45.4692C13.0902 45.8743 13.2432 46.3782 13.6482 46.5946C13.7855 46.6679 13.9406 46.7013 14.0959 46.6908L24.4684 45.9939L25.3317 45.9357L34.4658 45.8318L45.8978 46.6908H45.9602C46.4196 46.6908 46.7918 46.3183 46.7917 45.8591C46.7917 45.7225 46.7581 45.588 46.6937 45.4675L46.6962 45.4692Z" fill="#5C9E31"/>
<path d="M34.5397 45.0396L45.9947 45.9004L38.4197 31.7171L42.873 32.4354L35.9072 20.6863L40.0605 20.9771L30.003 6.50293L20.373 21.2896L24.098 20.6863L16.8314 32.4354L21.5855 31.7171L14.0106 45.9004L25.2689 45.1438" stroke="black" stroke-width="2" stroke-linecap="round" stroke-linejoin="round"/>
<path d="M30.0031 47.1013V54.8588" stroke="black" stroke-width="2" stroke-miterlimit="10" stroke-linecap="round"/>
</svg>
