<svg width="60" height="61" viewBox="0 0 60 61" fill="none" xmlns="http://www.w3.org/2000/svg">
<path d="M30 53.7981C42.8866 53.7981 53.3333 43.3514 53.3333 30.4648C53.3333 17.5782 42.8866 7.13147 30 7.13147C17.1133 7.13147 6.66663 17.5782 6.66663 30.4648C6.66663 43.3514 17.1133 53.7981 30 53.7981Z" fill="#92D3F5"/>
<path d="M30 53.7981C42.8866 53.7981 53.3333 43.3514 53.3333 30.4648C53.3333 17.5782 42.8866 7.13147 30 7.13147C17.1133 7.13147 6.66663 17.5782 6.66663 30.4648C6.66663 43.3514 17.1133 53.7981 30 53.7981Z" stroke="black" stroke-width="2" stroke-miterlimit="10" stroke-linecap="round" stroke-linejoin="round"/>
<path d="M29.9999 7.13147V53.7981M29.9999 7.13147C22.8663 7.13147 17.0833 17.5781 17.0833 30.4648C17.0833 43.3515 22.8663 53.7981 29.9999 53.7981M29.9999 7.13147C37.1336 7.13147 42.9166 17.5781 42.9166 30.4648C42.9166 43.3515 37.1336 53.7981 29.9999 53.7981" stroke="black" stroke-width="2" stroke-miterlimit="10" stroke-linecap="round" stroke-linejoin="round"/>
<path d="M53.3333 30.4648H6.66663" stroke="black" stroke-width="2" stroke-miterlimit="10" stroke-linecap="round" stroke-linejoin="round"/>
<path d="M50 18.7981H10" stroke="black" stroke-width="2" stroke-miterlimit="10" stroke-linecap="round" stroke-linejoin="round"/>
<path d="M50 42.1315H10" stroke="black" stroke-width="2" stroke-miterlimit="10" stroke-linecap="round" stroke-linejoin="round"/>
</svg>
