<svg width="100" height="100" viewBox="0 0 100 100" fill="none" xmlns="http://www.w3.org/2000/svg">
<g id="Infinite Rotation 2" clip-path="url(#clip0_272_6651)">
<path id="Vector" d="M98.4897 50C98.4897 77.186 76.5988 99.2177 49.6033 99.2177C22.6078 99.2177 0.716797 77.186 0.716797 50C0.716797 22.8141 22.6078 0.782349 49.6033 0.782349C76.5988 0.782349 98.4897 22.8141 98.4897 50Z" stroke="#333333" stroke-width="1.19565"/>
<path id="Vector_2" d="M42.7123 83.814L42.4809 84.6423L40.6239 84.1167C40.13 83.977 39.6674 83.9603 39.2362 84.0669C38.8031 84.18 38.4311 84.3968 38.12 84.7176C37.8025 85.0365 37.5747 85.4432 37.4367 85.9376C37.3004 86.4256 37.2852 86.8889 37.3911 87.3277C37.4969 87.7664 37.7063 88.1444 38.0192 88.4616C38.3321 88.7788 38.7323 89.0064 39.2198 89.1444L41.0672 89.6672L40.8359 90.4955L38.9692 89.9672C38.4817 89.8292 38.056 89.6187 37.6921 89.3355C37.3217 89.0506 37.028 88.7146 36.8108 88.3274C36.5871 87.9385 36.4484 87.5182 36.3946 87.0665C36.3344 86.6129 36.3715 86.1454 36.506 85.6638C36.6387 85.1886 36.849 84.7701 37.137 84.4082C37.4168 84.0509 37.7495 83.764 38.1353 83.5475C38.5211 83.3311 38.9458 83.1984 39.4093 83.1494C39.8665 83.0987 40.3356 83.1414 40.8167 83.2776L42.7123 83.814ZM43.3088 83.9829L41.4421 90.6671L40.5376 90.4111L42.4044 83.7269L43.3088 83.9829Z" fill="#333333"/>
<path id="Vector_3" d="M31.8923 79.1463C32.2935 79.3974 32.5992 79.7145 32.8092 80.0976C33.0158 80.4863 33.1143 80.8979 33.1046 81.3323C33.095 81.7666 32.9658 82.1852 32.7172 82.5879C32.472 82.985 32.1609 83.2858 31.7839 83.4903C31.4013 83.6913 30.9985 83.7853 30.5756 83.7723C30.1436 83.7614 29.7326 83.634 29.3426 83.39C28.9696 83.1566 28.6944 82.8664 28.5169 82.5195C28.3337 82.1689 28.2558 81.7938 28.2832 81.3942C28.3049 80.991 28.4331 80.5994 28.6678 80.2193C28.7028 80.1626 28.7442 80.1019 28.7919 80.0374C28.836 79.9785 28.8929 79.9119 28.9624 79.8374L32.3617 81.9644L31.9677 82.6026L28.9752 80.7302L29.4073 80.6585C29.2392 80.9307 29.1454 81.1905 29.1259 81.4378C29.1029 81.6908 29.1475 81.9232 29.2596 82.1349C29.3683 82.3523 29.5469 82.5388 29.7956 82.6944C30.0556 82.8571 30.3195 82.9436 30.5873 82.9539C30.8552 82.9642 31.1058 82.9008 31.3393 82.7638C31.5728 82.6268 31.7753 82.4193 31.9469 82.1414C32.1221 81.8577 32.2196 81.5728 32.2397 81.2865C32.2563 81.0059 32.1968 80.7406 32.0612 80.4906C31.9222 80.2463 31.717 80.0393 31.4457 79.8696C31.2197 79.7281 30.9889 79.6388 30.7533 79.6015C30.5121 79.5607 30.2747 79.5772 30.041 79.6512L29.8593 78.8415C30.1915 78.7349 30.5357 78.7104 30.8918 78.7681C31.2423 78.8222 31.5758 78.9483 31.8923 79.1463Z" fill="#333333"/>
<path id="Vector_4" d="M25.6573 74.0002C25.8419 74.1926 25.9933 74.3987 26.1116 74.6184C26.2206 74.8379 26.2988 75.0639 26.3465 75.2966C26.3893 75.5338 26.3969 75.7681 26.3694 75.9994L25.552 75.9851C25.585 75.7113 25.5613 75.4555 25.4809 75.2175C25.3957 74.9843 25.2562 74.7666 25.0623 74.5645C24.8685 74.3624 24.6851 74.2386 24.512 74.193C24.3342 74.152 24.1831 74.192 24.0588 74.3128C23.9345 74.4336 23.8828 74.5722 23.9035 74.7287C23.9149 74.885 23.9659 75.0538 24.0568 75.2352C24.1428 75.4212 24.2404 75.6145 24.3497 75.8151C24.4495 76.0155 24.5305 76.2203 24.5927 76.4295C24.6548 76.6388 24.6675 76.8495 24.6309 77.0617C24.5897 77.2691 24.4663 77.4728 24.2607 77.6726C24.0552 77.8724 23.8299 77.9938 23.5848 78.0368C23.3349 78.0845 23.0839 78.0588 22.8319 77.9597C22.5753 77.8559 22.3247 77.6765 22.0801 77.4215C21.8217 77.1521 21.641 76.8674 21.5382 76.5676C21.426 76.2676 21.3985 75.9597 21.4557 75.6437L22.2731 75.658C22.2411 75.8751 22.2609 76.0883 22.3324 76.2977C22.3993 76.5023 22.5181 76.6936 22.6889 76.8716C22.8688 77.0592 23.0407 77.171 23.2046 77.207C23.359 77.2429 23.4936 77.205 23.6083 77.0935C23.7231 76.982 23.77 76.8527 23.749 76.7057C23.7281 76.5587 23.6723 76.3945 23.5815 76.2131C23.486 76.027 23.3884 75.8337 23.2885 75.6333C23.1839 75.4375 23.1029 75.2326 23.0456 75.0188C22.9882 74.8049 22.9825 74.5919 23.0286 74.3799C23.0699 74.163 23.1958 73.9523 23.4062 73.7479C23.7264 73.4365 24.0906 73.3057 24.4985 73.3555C24.9018 73.4004 25.2881 73.6153 25.6573 74.0002Z" fill="#333333"/>
<path id="Vector_5" d="M21.541 68.9231L17.5148 71.4436L17.0418 70.6779L21.068 68.1574L21.541 68.9231ZM16.4731 71.5648C16.5607 71.7066 16.5873 71.8512 16.553 71.9985C16.5129 72.1494 16.4223 72.2691 16.281 72.3575C16.1454 72.4424 16.0044 72.4678 15.8579 72.4336C15.7058 72.403 15.5859 72.3168 15.4983 72.175C15.4108 72.0332 15.387 71.8869 15.427 71.736C15.4613 71.5887 15.5463 71.4725 15.6819 71.3876C15.8232 71.2992 15.9699 71.2703 16.122 71.3009C16.2685 71.335 16.3855 71.423 16.4731 71.5648Z" fill="#333333"/>
<path id="Vector_6" d="M19.9336 60.784C20.0917 61.2443 20.1475 61.6837 20.1011 62.1022C20.0524 62.5145 19.9106 62.8815 19.6758 63.2033L18.9301 62.8489C19.1003 62.5849 19.2018 62.306 19.2348 62.0121C19.274 61.7161 19.2341 61.3947 19.1149 61.0479C18.9567 60.5877 18.7094 60.2679 18.3729 60.0886C18.0405 59.9008 17.6696 59.8782 17.2604 60.0207L16.1461 60.4088L15.0836 60.6094L14.1345 61.1093L12.9541 61.5204L12.6616 60.6692L16.9679 59.1696C17.396 59.0205 17.8053 58.9909 18.1957 59.0808C18.584 59.1645 18.9311 59.3542 19.2372 59.65C19.5411 59.9394 19.7732 60.3175 19.9336 60.784ZM17.8843 61.4977C18.0251 61.9075 18.0543 62.3103 17.9717 62.7061C17.8871 63.0956 17.7072 63.4442 17.4323 63.7517C17.151 64.0614 16.7963 64.2909 16.3682 64.4399C15.9401 64.589 15.5267 64.6271 15.128 64.5542C14.723 64.4834 14.3677 64.3213 14.062 64.0677C13.7479 63.81 13.5204 63.4762 13.3796 63.0664C13.2583 62.7134 13.2203 62.3772 13.2656 62.0578C13.311 61.7385 13.4325 61.4561 13.6302 61.2108C13.8194 60.9614 14.0786 60.7723 14.408 60.6435L15.5979 60.2291C15.9318 60.134 16.2528 60.1245 16.561 60.2008C16.8607 60.2729 17.1264 60.4204 17.358 60.6432C17.5897 60.8661 17.7651 61.1509 17.8843 61.4977ZM17.0231 61.607C16.9277 61.3296 16.7845 61.1077 16.5934 60.9413C16.4001 60.7686 16.1769 60.6628 15.9239 60.6238C15.6645 60.5871 15.39 60.6191 15.1004 60.72C14.8108 60.8208 14.5796 60.9684 14.4067 61.1628C14.2253 61.353 14.1106 61.573 14.0625 61.8227C14.0081 62.0746 14.0296 62.3424 14.1271 62.6261C14.2246 62.9098 14.3731 63.1369 14.5727 63.3075C14.766 63.4802 14.9945 63.5912 15.2581 63.6406C15.5134 63.6858 15.7826 63.6591 16.0659 63.5604C16.3493 63.4618 16.5805 63.3142 16.7597 63.1176C16.9367 62.9148 17.0514 62.6843 17.1036 62.4261C17.1474 62.1637 17.1206 61.8907 17.0231 61.607Z" fill="#333333"/>
<path id="Vector_7" d="M16.1112 51.4671L13.349 51.6746C12.99 51.7016 12.7026 51.8369 12.4866 52.0804C12.2707 52.3239 12.1761 52.6252 12.2027 52.9842C12.2204 53.2236 12.2894 53.4323 12.4096 53.6105C12.5297 53.7886 12.6868 53.9239 12.8809 54.0163C13.0749 54.1087 13.2916 54.1459 13.5309 54.1279L13.3488 54.5126C12.9899 54.5396 12.6648 54.4838 12.3738 54.3452C12.0828 54.2066 11.8469 54.0004 11.6661 53.7265C11.4787 53.4531 11.3717 53.1369 11.3451 52.7779C11.3185 52.4189 11.3848 52.0963 11.5441 51.8103C11.7029 51.5175 11.9226 51.2804 12.2033 51.0989C12.4773 50.9178 12.7772 50.8151 13.103 50.7906L16.0447 50.5695L16.1112 51.4671ZM16.3597 54.8179L11.623 55.1738L11.5565 54.2763L16.2931 53.9203L16.3597 54.8179Z" fill="#333333"/>
<path id="Vector_8" d="M18.5707 37.8996C18.414 38.3036 18.1726 38.6313 17.8463 38.8828C17.5138 39.1318 17.1365 39.2844 16.7143 39.3406C16.2946 39.3905 15.8675 39.3302 15.4331 39.1595C14.9988 38.9889 14.644 38.7421 14.3688 38.4191C14.0961 38.0899 13.9199 37.7234 13.8405 37.3198C13.7634 36.9099 13.8044 36.4998 13.9635 36.0895C14.0936 35.7539 14.2806 35.4836 14.5245 35.2786C14.7647 35.0649 15.0401 34.926 15.351 34.8619C15.6556 34.7954 15.9729 34.8162 16.3028 34.9243L17.6338 35.4472C17.943 35.5901 18.1904 35.7912 18.3759 36.0503C18.5639 36.3032 18.6774 36.5914 18.7165 36.9147C18.7518 37.2294 18.7032 37.5577 18.5707 37.8996ZM17.8337 37.4489C17.9952 37.0324 17.9857 36.6419 17.8053 36.2774C17.6186 35.9104 17.305 35.6403 16.8645 35.4673C16.5605 35.3478 16.2738 35.3033 16.0047 35.3336C15.7317 35.3553 15.4922 35.4474 15.2862 35.61C15.074 35.7702 14.9136 35.9901 14.8052 36.2698C14.6968 36.5495 14.6655 36.8238 14.7115 37.0925C14.7599 37.3551 14.8748 37.5936 15.0561 37.8081C15.2337 38.014 15.4684 38.1742 15.76 38.2888C16.0578 38.4058 16.3444 38.4503 16.6198 38.4224C16.8914 38.3859 17.1345 38.2844 17.3491 38.118C17.5638 37.9517 17.7253 37.7286 17.8337 37.4489ZM19.0487 36.3898L17.8573 35.9218L16.8391 35.3391L15.7073 35.0771L14.6276 34.6529L14.9565 33.8045L19.3776 35.5414L19.0487 36.3898Z" fill="#333333"/>
<path id="Vector_9" d="M27.3434 25.0984C27.0813 25.3452 26.7936 25.5154 26.4802 25.6091C26.1671 25.6934 25.8567 25.6972 25.549 25.6207C25.2413 25.5442 24.9644 25.3883 24.7184 25.153L23.7449 24.1055C23.5235 23.8379 23.3874 23.5494 23.3365 23.2401C23.286 22.9214 23.3152 22.61 23.424 22.306C23.5332 21.9926 23.7163 21.7147 23.9736 21.4725C24.289 21.1754 24.6478 20.9886 25.0499 20.912C25.4569 20.8309 25.8603 20.8585 26.26 20.9949C26.6597 21.1312 27.0185 21.3703 27.3362 21.7121C27.6538 22.054 27.867 22.4302 27.9755 22.8408C28.0841 23.2514 28.0847 23.6584 27.9772 24.0618C27.8701 24.4557 27.6588 24.8013 27.3434 25.0984ZM26.6555 24.5786C26.8739 24.3729 27.0179 24.1411 27.0876 23.8831C27.1573 23.6252 27.159 23.3626 27.0927 23.0953C27.0218 22.8232 26.8775 22.57 26.6596 22.3356C26.4463 22.1061 26.2072 21.9467 25.9422 21.8574C25.6772 21.7682 25.4168 21.7524 25.1611 21.8101C24.9008 21.863 24.6638 21.99 24.4503 22.1911C24.2319 22.3968 24.0879 22.6286 24.0182 22.8866C23.9439 23.1396 23.9447 23.4 24.0204 23.6675C24.0961 23.935 24.2429 24.186 24.4607 24.4204C24.674 24.6499 24.9083 24.8139 25.1636 24.9123C25.4192 25.0012 25.6772 25.0193 25.9375 24.9664C26.2026 24.909 26.442 24.7797 26.6555 24.5786ZM25.4554 26.7392L20.5947 21.5091L21.2499 20.8921L23.6666 23.4924L24.3257 24.4514L25.2392 25.1845L26.1106 26.1221L25.4554 26.7392Z" fill="#333333"/>
<path id="Vector_10" d="M34.2504 20.2294C33.8342 20.4548 33.4087 20.5639 32.974 20.5568C32.5362 20.5437 32.1326 20.4249 31.7632 20.2004C31.3937 19.976 31.0975 19.655 30.8744 19.2375C30.6544 18.8259 30.5503 18.4047 30.5619 17.9739C30.5794 17.5398 30.699 17.1414 30.9209 16.7787C31.1455 16.4068 31.46 16.1114 31.8645 15.8923C32.2514 15.6828 32.6385 15.5868 33.0259 15.6045C33.4191 15.6189 33.7811 15.7375 34.1118 15.9602C34.4483 16.1798 34.7218 16.4865 34.9324 16.8805C34.9638 16.9393 34.9954 17.0055 35.0273 17.0793C35.056 17.1471 35.0851 17.2299 35.1146 17.3276L31.5886 19.2374L31.2351 18.5759L34.3391 16.8947L34.1856 17.3077C34.0348 17.0255 33.8577 16.8143 33.6543 16.6743C33.4478 16.5283 33.2254 16.4517 32.9872 16.4442C32.7457 16.431 32.496 16.4942 32.2381 16.6339C31.9685 16.7799 31.7625 16.9673 31.6201 17.196C31.4778 17.4247 31.4075 17.6751 31.4093 17.9471C31.411 18.2191 31.4889 18.4991 31.6428 18.7872C31.7999 19.0812 31.9968 19.3081 32.2335 19.4681C32.467 19.6221 32.7252 19.7022 33.0081 19.7081C33.2878 19.7083 33.5684 19.6321 33.8497 19.4797C34.0842 19.3527 34.2762 19.1957 34.4257 19.0086C34.581 18.8183 34.685 18.6028 34.7377 18.362L35.5258 18.6061C35.4522 18.9492 35.3018 19.2619 35.0747 19.5441C34.8534 19.8232 34.5787 20.0516 34.2504 20.2294Z" fill="#333333"/>
<path id="Vector_11" d="M41.0339 17.4141L39.3213 10.8953L40.191 10.6638L41.9036 17.1826L41.0339 17.4141ZM38.9047 13.9141L38.6963 13.121L41.8273 12.2875L42.0356 13.0806L38.9047 13.9141Z" fill="#333333"/>
<path id="Vector_12" d="M48.1096 16.2465L47.795 9.51385L48.694 9.47128L49.0086 16.2039L48.1096 16.2465ZM46.7575 12.3761L46.7192 11.557L49.9556 11.4038L49.9939 12.2229L46.7575 12.3761Z" fill="#333333"/>
<path id="Vector_13" d="M56.6472 16.9553C56.1823 16.8663 55.7831 16.6812 55.4495 16.4001C55.1172 16.1124 54.8776 15.7645 54.7309 15.3562C54.5842 14.948 54.5547 14.5113 54.6427 14.0462C54.7293 13.5877 54.9121 13.1951 55.191 12.8684C55.4764 12.5429 55.8189 12.3099 56.2187 12.1692C56.6262 12.0233 57.0559 11.9936 57.5077 12.0802C57.9398 12.1629 58.301 12.3339 58.5912 12.5932C58.888 12.8537 59.0953 13.1751 59.213 13.5574C59.3372 13.9409 59.3579 14.3521 59.2749 14.791C59.2625 14.8565 59.2456 14.928 59.2242 15.0053C59.2041 15.0761 59.1749 15.1588 59.1367 15.2533L55.1983 14.4989L55.3376 13.7619L58.8045 14.426L58.4266 14.6489C58.486 14.3345 58.4805 14.0585 58.41 13.821C58.3408 13.577 58.2159 13.3765 58.0352 13.2197C57.8557 13.0564 57.622 12.9471 57.3339 12.892C57.0327 12.8343 56.7551 12.849 56.5012 12.9361C56.2472 13.0232 56.0358 13.1728 55.8668 13.3847C55.6978 13.5967 55.583 13.8632 55.5223 14.1842C55.4604 14.5117 55.4714 14.8125 55.5553 15.0865C55.6405 15.354 55.7912 15.5797 56.0074 15.7637C56.2249 15.9411 56.4908 16.0599 56.8051 16.1201C57.067 16.1703 57.3147 16.1702 57.5481 16.1199C57.788 16.0708 58.0039 15.9696 58.1957 15.8163L58.6558 16.5052C58.3836 16.7245 58.0709 16.8717 57.7175 16.9465C57.3706 17.0226 57.0139 17.0256 56.6472 16.9553Z" fill="#333333"/>
<path id="Vector_14" d="M62.9849 18.7642L64.9749 14.4512L65.7901 14.8324L63.8001 19.1454L62.9849 18.7642ZM64.9355 16.6847L64.6903 16.4045C64.9445 15.8537 65.2738 15.4741 65.6783 15.2658C66.0827 15.0575 66.5235 15.0649 67.0006 15.288C67.218 15.3897 67.3961 15.5208 67.5349 15.6814C67.6766 15.8359 67.7824 16.0362 67.8523 16.2824L67.0623 16.5864C67.0164 16.4471 66.9489 16.3309 66.8597 16.2377C66.7706 16.1445 66.6535 16.064 66.5086 15.9963C66.2067 15.8551 65.9144 15.8362 65.6317 15.9395C65.3491 16.0429 65.117 16.2913 64.9355 16.6847Z" fill="#333333"/>
<path id="Vector_15" d="M75.2021 27.5057L80.2337 23.0213L80.8281 23.6971L75.7964 28.1815L75.2021 27.5057ZM77.3633 24.0123L77.9755 23.4667L80.1151 25.8997L79.503 26.4453L77.3633 24.0123Z" fill="#333333"/>
<path id="Vector_16" d="M79.9728 34.6097C79.7545 34.1972 79.6549 33.774 79.6742 33.3401C79.6934 32.9061 79.816 32.5037 80.0421 32.1328C80.274 31.7587 80.5956 31.4613 81.0068 31.2407C81.4122 31.0233 81.8279 30.9251 82.2539 30.9462C82.6858 30.9642 83.086 31.0861 83.4546 31.3121C83.8231 31.5381 84.1165 31.8573 84.3348 32.2697C84.55 32.6763 84.648 33.0965 84.6288 33.5305C84.6186 33.9672 84.5005 34.371 84.2744 34.7419C84.0483 35.1128 83.7326 35.407 83.3273 35.6245C82.916 35.8451 82.4915 35.948 82.0537 35.9332C81.6218 35.9152 81.2201 35.7903 80.8484 35.5585C80.4799 35.3325 80.188 35.0162 79.9728 34.6097ZM80.7395 34.1984C80.8798 34.4636 81.0663 34.6662 81.2988 34.8062C81.5313 34.9462 81.7845 35.0185 82.0584 35.0228C82.3381 35.0241 82.6161 34.9506 82.8922 34.8025C83.1624 34.6576 83.3705 34.4665 83.5165 34.2293C83.6657 33.998 83.7444 33.7477 83.7527 33.4785C83.77 33.212 83.7085 32.9461 83.5682 32.681C83.4278 32.4158 83.2414 32.2132 83.0089 32.0732C82.7822 31.93 82.5319 31.8562 82.2581 31.8518C81.9842 31.8474 81.7121 31.9177 81.4419 32.0627C81.1658 32.2108 80.9502 32.4021 80.7953 32.6365C80.6461 32.8678 80.5645 33.1197 80.5503 33.3921C80.5361 33.6645 80.5991 33.9333 80.7395 34.1984Z" fill="#333333"/>
<path id="Vector_17" d="M82.6431 40.6108L87.3012 39.6807L87.4751 40.5637L82.8171 41.4938L82.6431 40.6108ZM83.2636 43.7602L86.0781 43.1983C86.4246 43.1291 86.6746 42.967 86.8282 42.712C86.9896 42.4622 87.0388 42.1771 86.9756 41.8566C86.9331 41.6407 86.8493 41.4569 86.7243 41.3051C86.5993 41.1533 86.4447 41.0414 86.2607 40.9694C86.0766 40.8974 85.8702 40.8842 85.6413 40.9299L85.7463 40.5316C86.0994 40.4611 86.4215 40.475 86.7126 40.5732C87.005 40.678 87.2496 40.8501 87.4463 41.0896C87.6495 41.3277 87.7839 41.6136 87.8496 41.9472C87.9141 42.2742 87.9001 42.5829 87.8079 42.8733C87.7169 43.1702 87.5554 43.42 87.3236 43.6226C87.093 43.8318 86.7979 43.9723 86.4384 44.0441L83.4376 44.6433L83.2636 43.7602ZM83.8841 46.9097L86.6986 46.3477C87.0451 46.2786 87.2951 46.1165 87.4487 45.8614C87.6101 45.6117 87.6599 45.3298 87.5981 45.0158C87.5555 44.8 87.4711 44.6129 87.3448 44.4546C87.2198 44.3028 87.0652 44.1909 86.8812 44.1189C86.6971 44.0468 86.4907 44.0337 86.2618 44.0793L86.3398 43.5437C86.7032 43.4916 87.0292 43.525 87.3176 43.6442C87.6139 43.7686 87.8611 43.9538 88.059 44.1998C88.2635 44.4445 88.398 44.7304 88.4624 45.0574C88.5294 45.3975 88.5174 45.716 88.4264 46.0129C88.3354 46.3098 88.1747 46.5629 87.9441 46.7721C87.7148 46.9878 87.4171 47.1322 87.051 47.2053L84.06 47.8025L83.8841 46.9097Z" fill="#333333"/>
<path id="Vector_18" d="M83.6167 53.9681C83.6621 53.5037 83.8123 53.0965 84.0676 52.7466C84.3228 52.3967 84.6469 52.1307 85.0398 51.9485C85.4393 51.7669 85.8713 51.6992 86.3357 51.7451C86.7934 51.7904 87.194 51.9406 87.5375 52.1957C87.8877 52.4514 88.1541 52.7759 88.3367 53.1692C88.5193 53.5624 88.588 53.9912 88.5426 54.4557C88.4979 54.9135 88.3479 55.3174 88.0927 55.6673C87.8435 56.0245 87.5224 56.2941 87.1295 56.4763C86.7366 56.6585 86.3113 56.7269 85.8535 56.6816C85.3891 56.6357 84.9785 56.4845 84.6218 56.2281C84.2716 55.9724 84.0056 55.6446 83.8236 55.2447C83.6409 54.8515 83.572 54.4259 83.6167 53.9681ZM84.4825 54.0538C84.4533 54.3524 84.497 54.6247 84.6137 54.8707C84.7303 55.1167 84.9016 55.3179 85.1274 55.4743C85.3599 55.6312 85.6321 55.7252 85.9439 55.756C86.2491 55.7862 86.5279 55.7435 86.7803 55.6278C87.0321 55.5187 87.2357 55.3547 87.3911 55.1356C87.5524 54.9238 87.6477 54.6686 87.6769 54.37C87.706 54.0714 87.6623 53.7991 87.5456 53.5531C87.4356 53.3077 87.2677 53.1069 87.0418 52.9505C86.816 52.7942 86.5504 52.7009 86.2453 52.6707C85.9334 52.6399 85.6483 52.6786 85.3899 52.787C85.1381 52.8961 84.9312 53.0599 84.7692 53.2783C84.6072 53.4967 84.5116 53.7552 84.4825 54.0538Z" fill="#333333"/>
<path id="Vector_19" d="M82.4132 60.5202L86.8802 62.1353L86.5778 62.983L82.1108 61.3679L82.4132 60.5202ZM84.6593 62.2893L84.9146 62.0201C85.4851 62.2264 85.8926 62.5226 86.1371 62.9087C86.3816 63.2948 86.4153 63.7359 86.2383 64.232C86.1577 64.458 86.0441 64.6473 85.8977 64.8C85.7575 64.9549 85.5685 65.0779 85.3307 65.1692L84.9553 64.4061C85.0892 64.3481 85.1982 64.2706 85.2824 64.1735C85.3666 64.0763 85.4356 63.9524 85.4894 63.8017C85.6014 63.4877 85.5929 63.194 85.464 62.9205C85.335 62.6471 85.0668 62.4367 84.6593 62.2893Z" fill="#333333"/>
<path id="Vector_20" d="M79.1861 67.8445L83.1518 70.4591L82.661 71.2135L78.6953 68.5989L79.1861 67.8445ZM80.9578 70.0906L81.2685 69.8882C81.775 70.2221 82.1021 70.6055 82.25 71.0384C82.3978 71.4712 82.3282 71.9084 82.041 72.3499C81.9101 72.551 81.7557 72.7088 81.578 72.8231C81.4057 72.9412 81.1935 73.0168 80.9412 73.0501L80.7537 72.2198C80.8972 72.1947 81.0212 72.1447 81.1256 72.0698C81.23 71.9949 81.3259 71.8904 81.4131 71.7562C81.5949 71.4768 81.6549 71.189 81.5931 70.8928C81.5314 70.5965 81.3196 70.3291 80.9578 70.0906Z" fill="#333333"/>
<path id="Vector_21" d="M72.7266 75.6136C73.0689 75.2963 73.4511 75.092 73.8734 75.0005C74.2957 74.9091 74.7135 74.9263 75.1268 75.0523C75.5446 75.1831 75.911 75.4207 76.226 75.7651C76.5364 76.1045 76.7347 76.4843 76.8208 76.9044C76.9114 77.3294 76.8941 77.75 76.7687 78.1662C76.6434 78.5823 76.4096 78.949 76.0674 79.2662C75.73 79.5789 75.3502 79.781 74.9279 79.8724C74.5052 79.9733 74.0872 79.9608 73.6739 79.8349C73.2606 79.709 72.8987 79.4763 72.5883 79.1368C72.2733 78.7925 72.0683 78.4053 71.9732 77.9754C71.8826 77.5503 71.9024 77.1275 72.0326 76.7068C72.1579 76.2907 72.3892 75.9263 72.7266 75.6136ZM73.3138 76.2555C73.0937 76.4595 72.9454 76.6924 72.8688 76.9543C72.7921 77.2163 72.7859 77.4811 72.8501 77.7488C72.9188 78.0215 73.0589 78.2734 73.2703 78.5046C73.4773 78.7309 73.7131 78.885 73.9778 78.967C74.2375 79.0534 74.498 79.0665 74.7591 79.0063C75.0198 78.9555 75.2602 78.8282 75.4802 78.6242C75.7002 78.4203 75.8486 78.1874 75.9252 77.9254C76.0063 77.6684 76.0148 77.4061 75.9506 77.1383C75.8864 76.8706 75.7509 76.6236 75.5439 76.3973C75.3324 76.1661 75.0946 76.0048 74.8303 75.9134C74.5705 75.8269 74.3078 75.8114 74.0422 75.8667C73.7766 75.922 73.5338 76.0516 73.3138 76.2555Z" fill="#333333"/>
<path id="Vector_22" d="M66.3846 80.3431L70.1716 83.7579L69.3313 84.1792L66.4748 81.4725L66.743 81.338L67.177 85.2594L66.7121 85.4925L63.8646 82.7813L64.1327 82.6468L64.5578 86.5727L63.7175 86.994L63.2827 81.8985L63.7565 81.6609L66.5732 84.2645L66.2782 84.4125L65.9198 80.5762L66.3846 80.3431Z" fill="#333333"/>
<path id="Vector_23" d="M57.0769 83.7081C57.2592 83.668 57.4257 83.6962 57.5763 83.7927C57.7218 83.8972 57.8136 84.0374 57.8519 84.2133C57.8915 84.3957 57.8654 84.5585 57.7737 84.7015C57.6769 84.8525 57.5374 84.9481 57.3551 84.9882C57.1728 85.0284 57.0096 84.9995 56.8655 84.9015C56.7163 84.8115 56.6219 84.6752 56.5823 84.4928C56.5441 84.3169 56.5726 84.1502 56.668 83.9927C56.7583 83.8431 56.8946 83.7482 57.0769 83.7081Z" fill="#457D61"/>
</g>
<defs>
<clipPath id="clip0_272_6651">
<rect width="100" height="100" fill="white"/>
</clipPath>
</defs>
</svg>
