<svg width="42" height="41" viewBox="0 0 42 41" fill="none" xmlns="http://www.w3.org/2000/svg">
<circle cx="21.147" cy="20.5" r="20.5" fill="#457D61"/>
<path fill-rule="evenodd" clip-rule="evenodd" d="M13.0679 20.5C13.0679 20.7678 13.1743 21.0247 13.3637 21.2141C13.5531 21.4035 13.81 21.5099 14.0778 21.5099H25.7788L21.4422 25.8445C21.3483 25.9384 21.2738 26.0499 21.223 26.1725C21.1722 26.2952 21.146 26.4267 21.146 26.5595C21.146 26.6923 21.1722 26.8238 21.223 26.9465C21.2738 27.0692 21.3483 27.1806 21.4422 27.2745C21.5361 27.3684 21.6476 27.4429 21.7703 27.4937C21.8929 27.5446 22.0244 27.5707 22.1572 27.5707C22.29 27.5707 22.4215 27.5446 22.5442 27.4937C22.6669 27.4429 22.7784 27.3684 22.8723 27.2745L28.9318 21.215C29.0259 21.1212 29.1005 21.0097 29.1514 20.887C29.2023 20.7643 29.2285 20.6328 29.2285 20.5C29.2285 20.3671 29.2023 20.2356 29.1514 20.1129C29.1005 19.9902 29.0259 19.8787 28.9318 19.7849L22.8723 13.7254C22.6826 13.5357 22.4254 13.4292 22.1572 13.4292C21.889 13.4292 21.6318 13.5357 21.4422 13.7254C21.2526 13.915 21.146 14.1722 21.146 14.4404C21.146 14.7086 21.2526 14.9658 21.4422 15.1554L25.7788 19.49H14.0778C13.81 19.49 13.5531 19.5964 13.3637 19.7858C13.1743 19.9752 13.0679 20.2321 13.0679 20.5Z" fill="white"/>
</svg>
