<svg width="41" height="41" viewBox="0 0 41 41" fill="none" xmlns="http://www.w3.org/2000/svg">
<circle cx="20.5" cy="20.5" r="20.5" transform="rotate(-180 20.5 20.5)" fill="#FCFCFC"/>
<path fill-rule="evenodd" clip-rule="evenodd" d="M12.4209 20.5C12.4209 20.2322 12.5273 19.9753 12.7167 19.7859C12.9061 19.5965 13.163 19.4901 13.4308 19.4901H25.1318L20.7952 15.1555C20.7013 15.0616 20.6268 14.9501 20.576 14.8275C20.5252 14.7048 20.4991 14.5733 20.4991 14.4405C20.4991 14.3077 20.5252 14.1762 20.576 14.0535C20.6268 13.9308 20.7013 13.8194 20.7952 13.7255C20.8891 13.6316 21.0006 13.5571 21.1233 13.5063C21.246 13.4554 21.3775 13.4293 21.5103 13.4293C21.643 13.4293 21.7745 13.4554 21.8972 13.5063C22.0199 13.5571 22.1314 13.6316 22.2253 13.7255L28.2848 19.785C28.3789 19.8788 28.4535 19.9903 28.5044 20.113C28.5553 20.2357 28.5815 20.3672 28.5815 20.5C28.5815 20.6329 28.5553 20.7644 28.5044 20.8871C28.4535 21.0098 28.3789 21.1213 28.2848 21.2151L22.2253 27.2746C22.0356 27.4643 21.7784 27.5708 21.5103 27.5708C21.2421 27.5708 20.9849 27.4643 20.7952 27.2746C20.6056 27.085 20.4991 26.8278 20.4991 26.5596C20.4991 26.2914 20.6056 26.0342 20.7952 25.8446L25.1318 21.51H13.4308C13.163 21.51 12.9061 21.4036 12.7167 21.2142C12.5273 21.0248 12.4209 20.7679 12.4209 20.5Z" fill="#333333"/>
</svg>
