<svg width="110" height="20" viewBox="0 0 110 20" fill="none" xmlns="http://www.w3.org/2000/svg">
<g id="Group 1">
<path id="Vector" d="M2.25321 16.3651V2.06342C1.73534 1.72867 0.776122 1.46694 0 1.39255V1.24378L7.49887 0.684495L7.3144 3.44096V3.96305C8.90354 2.80867 11.8222 0.648682 15.1836 0.648682C17.5106 0.648682 20.7257 1.80306 20.7257 7.42757V15.4724C20.7257 17.4836 21.0578 18.1917 22.1659 18.9356H15.4418L15.6632 16.3651V7.50059C15.6632 3.32938 14.3337 2.39816 12.6707 2.39816C10.3806 2.39816 8.53324 3.96305 7.3144 4.89427V15.4724C7.3144 17.4836 7.64644 18.1917 8.7546 18.9356H2.03049L2.25184 16.3651H2.25321Z" fill="#333333"/>
<path id="Vector_2" d="M24.5215 9.93067C24.5215 4.45137 28.4296 0.648682 34.4962 0.648682C40.5627 0.648682 44.4708 4.33969 44.4708 9.93067C44.4708 15.5216 40.5627 19.2127 34.4962 19.2127C28.4296 19.2127 24.5215 15.5216 24.5215 9.93067ZM35.9471 18.5798C38.5529 18.5798 39.6322 16.3806 39.6322 12.9502C39.6322 7.95486 37.5109 1.28154 33.0439 1.28154C30.438 1.28154 29.3588 3.44348 29.3588 6.98558C29.3588 11.9065 31.5172 18.5784 35.9471 18.5784V18.5798Z" fill="#333333"/>
<path id="Vector_3" d="M49.0837 16.3624V2.03052C48.5642 1.69507 47.602 1.43278 46.8235 1.35824V1.20915L54.3458 0.648682L54.1607 3.41098V4.60507H54.6418C55.4944 2.21688 57.4956 0.648682 60.1259 0.648682C60.9044 0.648682 61.4966 0.760501 62.2011 1.09595L58.3468 7.58961H58.1987C59.0143 5.42506 58.3838 3.40959 56.9391 3.40959C55.308 3.40959 54.4568 5.61143 54.1593 8.22463V15.4651C54.1593 17.4806 54.4924 18.1901 55.604 18.9356H48.8959L49.081 16.3597L49.0837 16.3624Z" fill="#333333"/>
<path id="Vector_4" d="M78.0182 18.1987L78.0553 18.1616C76.8681 18.7942 75.3831 19.1655 73.64 19.1655C68.1488 19.1655 64.697 15.8195 64.697 10.6883C64.697 5.26001 68.4823 0.648682 76.3863 0.648682C78.7607 0.648682 81.507 1.09427 84.031 2.02397V15.8566C84.031 17.8645 84.3645 18.4971 85.4776 19.2398V19.3512L78.0196 18.1987H78.0182ZM76.0515 17.9388C77.1645 17.9388 78.1294 17.4547 78.8719 16.6378C78.9089 16.3778 78.946 15.968 78.946 15.3739V3.40063C77.7588 2.13674 76.4605 1.35558 74.7531 1.35558C71.3768 1.35558 69.7065 4.21892 69.7065 8.53182C69.7065 13.9229 72.4528 17.9388 76.0515 17.9388Z" fill="#333333"/>
<path id="Vector_5" d="M90.0877 16.3651V2.06342C89.5698 1.72867 88.6106 1.46694 87.8345 1.39255V1.24378L95.3333 0.684495L95.1489 3.44096V3.96305C96.738 2.80867 99.6567 0.648682 103.018 0.648682C105.345 0.648682 108.56 1.80306 108.56 7.42757V15.4724C108.56 17.4836 108.892 18.1917 110 18.9356H103.276L103.498 16.3651V7.50059C103.498 3.32938 102.168 2.39816 100.505 2.39816C98.2151 2.39816 96.3677 3.96305 95.1489 4.89427V15.4724C95.1489 17.4836 95.4809 18.1917 96.5891 18.9356H89.865L90.0863 16.3651H90.0877Z" fill="#333333"/>
</g>
</svg>
