<svg width="42" height="41" viewBox="0 0 42 41" fill="none" xmlns="http://www.w3.org/2000/svg">
<circle cx="21.147" cy="20.5" r="20.5" transform="rotate(-180 21.147 20.5)" fill="#457D61"/>
<path fill-rule="evenodd" clip-rule="evenodd" d="M29.2261 20.5C29.2261 20.2322 29.1197 19.9753 28.9303 19.7859C28.7409 19.5965 28.484 19.4901 28.2161 19.4901H16.5151L20.8517 15.1555C20.9456 15.0616 21.0201 14.9501 21.0709 14.8275C21.1218 14.7048 21.1479 14.5733 21.1479 14.4405C21.1479 14.3077 21.1218 14.1762 21.0709 14.0535C21.0201 13.9308 20.9456 13.8194 20.8517 13.7255C20.7578 13.6316 20.6464 13.5571 20.5237 13.5063C20.401 13.4554 20.2695 13.4293 20.1367 13.4293C20.0039 13.4293 19.8724 13.4554 19.7497 13.5063C19.6271 13.5571 19.5156 13.6316 19.4217 13.7255L13.3621 19.785C13.2681 19.8788 13.1935 19.9903 13.1425 20.113C13.0916 20.2357 13.0654 20.3672 13.0654 20.5C13.0654 20.6329 13.0916 20.7644 13.1425 20.8871C13.1935 21.0098 13.2681 21.1213 13.3621 21.2151L19.4217 27.2746C19.6113 27.4643 19.8685 27.5708 20.1367 27.5708C20.4049 27.5708 20.6621 27.4643 20.8517 27.2746C21.0414 27.085 21.1479 26.8278 21.1479 26.5596C21.1479 26.2914 21.0414 26.0342 20.8517 25.8446L16.5151 21.51H28.2161C28.484 21.51 28.7409 21.4036 28.9303 21.2142C29.1197 21.0248 29.2261 20.7679 29.2261 20.5Z" fill="white"/>
</svg>
