<svg width="42" height="42" viewBox="0 0 42 42" fill="none" xmlns="http://www.w3.org/2000/svg">
<circle cx="20.8533" cy="20.9648" r="20.5" fill="#FCFCFC"/>
<path fill-rule="evenodd" clip-rule="evenodd" d="M28.9324 20.9648C28.9324 21.2327 28.826 21.4895 28.6366 21.6789C28.4472 21.8683 28.1903 21.9747 27.9224 21.9747H16.2214L20.558 26.3093C20.6519 26.4032 20.7264 26.5147 20.7772 26.6374C20.8281 26.7601 20.8542 26.8916 20.8542 27.0244C20.8542 27.1572 20.8281 27.2886 20.7772 27.4113C20.7264 27.534 20.6519 27.6455 20.558 27.7394C20.4641 27.8333 20.3527 27.9078 20.23 27.9586C20.1073 28.0094 19.9758 28.0356 19.843 28.0356C19.7102 28.0356 19.5787 28.0094 19.456 27.9586C19.3334 27.9078 19.2219 27.8333 19.128 27.7394L13.0684 21.6798C12.9744 21.586 12.8998 21.4746 12.8488 21.3519C12.7979 21.2292 12.7717 21.0976 12.7717 20.9648C12.7717 20.832 12.7979 20.7004 12.8488 20.5777C12.8998 20.455 12.9744 20.3436 13.0684 20.2498L19.128 14.1902C19.3176 14.0006 19.5748 13.894 19.843 13.894C20.1112 13.894 20.3684 14.0006 20.558 14.1902C20.7477 14.3799 20.8542 14.6371 20.8542 14.9052C20.8542 15.1734 20.7477 15.4306 20.558 15.6203L16.2214 19.9549H27.9224C28.1903 19.9549 28.4472 20.0613 28.6366 20.2507C28.826 20.4401 28.9324 20.697 28.9324 20.9648Z" fill="#333333"/>
</svg>
